<svg width="64" height="64" viewBox="0 0 64 64" fill="none" xmlns="http://www.w3.org/2000/svg">
<path opacity="0.988" fill-rule="evenodd" clip-rule="evenodd" d="M31.5625 2.93752C32.0359 2.85182 32.4318 2.97682 32.75 3.31252C32.9224 3.87952 32.9849 4.46286 32.9375 5.06252C43.6194 6.55828 51.0569 12.2666 55.25 22.1875C58.5854 32.0491 57.0438 41.0491 50.625 49.1875C45.0874 55.3925 38.129 58.5593 29.75 58.6875C20.4805 58.5643 11.2097 58.5225 1.9375 58.5625C1.9375 57.0625 1.9375 55.5625 1.9375 54.0625C11.9793 54.0834 22.0209 54.0625 32.0625 54C41.1223 52.8375 47.4348 48.0668 51 39.6875C53.8808 30.9656 52.2974 23.174 46.25 16.3125C42.6114 12.6285 38.2155 10.4202 33.0625 9.68752C33.0833 10.3971 33.0624 11.1054 33 11.8125C32.6364 12.1743 32.1989 12.2784 31.6875 12.125C30.1459 10.8334 28.6041 9.54168 27.0625 8.25002C26.6854 7.84885 26.6229 7.41135 26.875 6.93752C28.4348 5.58713 29.9973 4.2538 31.5625 2.93752Z" fill="#10957D"/>
<path opacity="0.985" fill-rule="evenodd" clip-rule="evenodd" d="M22.9375 5.81254C23.1091 5.79295 23.2759 5.81379 23.4375 5.87504C22.8846 7.43414 23.093 8.89248 24.0625 10.25C14.5536 13.4259 9.15787 19.9884 7.87502 29.9375C7.47819 38.6642 10.8324 45.5184 17.9375 50.5C15.5625 50.5834 13.1875 50.5834 10.8125 50.5C4.01778 43.0088 1.83028 34.3213 4.25002 24.4375C7.22237 14.9443 13.4515 8.736 22.9375 5.81254Z" fill="#10957D"/>
<path opacity="0.991" fill-rule="evenodd" clip-rule="evenodd" d="M38.3125 22.4375C41.015 22.1836 42.515 23.3919 42.8125 26.0625C42.8271 26.9562 42.5563 27.7479 42 28.4375C37.9308 32.5067 33.8683 36.5692 29.8125 40.625C28.2606 41.4382 26.7606 41.3549 25.3125 40.375C23.1205 38.0582 20.9748 35.7041 18.875 33.3125C17.9076 31.1739 18.3869 29.4447 20.3125 28.125C21.5389 27.679 22.7473 27.7207 23.9375 28.25C25.2898 29.498 26.6231 30.7689 27.9375 32.0625C30.915 29.1476 33.8733 26.2101 36.8125 23.25C37.3043 22.942 37.8043 22.6711 38.3125 22.4375Z" fill="#10957D"/>
<path opacity="0.966" fill-rule="evenodd" clip-rule="evenodd" d="M56.4375 52.0625C56.6909 52.0423 56.9409 52.0632 57.1875 52.125C58.7452 53.3908 60.266 54.7033 61.75 56.0625C62.0502 56.6393 61.9877 57.1602 61.5625 57.625C60.1265 58.7388 58.6681 59.8222 57.1875 60.875C56.7275 61.0034 56.3316 60.8993 56 60.5625C55.8387 60.0338 55.7762 59.492 55.8125 58.9375C51.479 58.9584 47.1456 58.9375 42.8125 58.875C45.381 57.5708 47.756 55.9874 49.9375 54.125C51.8954 54.0625 53.8538 54.0417 55.8125 54.0625C55.7919 53.6438 55.8127 53.2272 55.875 52.8125C55.9499 52.4683 56.1374 52.2183 56.4375 52.0625Z" fill="#10957D"/>
</svg>
