<svg width="400" height="371" viewBox="0 0 400 371" fill="none" xmlns="http://www.w3.org/2000/svg">
<path fill-rule="evenodd" clip-rule="evenodd" d="M92.5781 51.9214C92.7078 46.3753 92.5781 40.8345 92.1875 35.2989C88.5789 42.0093 82.9797 46.7069 75.3906 49.3919C53.8579 56.8986 33.2851 55.2122 13.6719 44.3329C10.3444 41.9057 7.87053 38.8944 6.24999 35.2989C5.85966 40.3522 5.72945 45.4112 5.85936 50.476C4.95426 43.1343 4.82405 35.6663 5.46874 28.0718C8.67655 19.3225 15.0568 13.4203 24.6094 10.3653C44.8708 3.99877 64.4021 5.4442 83.2031 14.7016C88.0609 17.5435 91.3164 21.5184 92.9687 26.6264C93.614 35.1838 93.4836 43.6154 92.5781 51.9214Z" fill="#10957D"/>
<path fill-rule="evenodd" clip-rule="evenodd" d="M393.359 51.1988C393.489 45.8934 393.359 40.5935 392.969 35.299C389.013 42.4951 382.894 47.4336 374.609 50.1147C357.939 55.3939 341.273 55.3939 324.609 50.1147C316.735 47.5067 310.876 42.8091 307.031 36.0218C306.641 41.5573 306.511 47.0982 306.641 52.6442C305.734 44.0972 305.605 35.4246 306.25 26.6265C308.313 21.5827 311.829 17.6078 316.797 14.7017C330.208 7.85553 344.53 5.44647 359.766 7.4745C371.43 8.47539 381.456 12.6912 389.844 20.122C392.005 22.6771 393.308 25.568 393.75 28.7946C394.395 36.3891 394.265 43.8571 393.359 51.1988Z" fill="#9AD898"/>
<path fill-rule="evenodd" clip-rule="evenodd" d="M92.5781 51.9213C92.5781 52.1622 92.5781 52.4031 92.5781 52.644C91.8078 54.036 91.0266 55.4814 90.2344 56.9803C83.3844 64.5984 74.5303 69.0551 63.6719 70.3505C45.2887 74.3421 28.3616 71.4509 12.8906 61.6779C11.2977 60.2858 9.99569 58.7199 8.98436 56.9803C7.50092 55.1994 6.45926 53.2722 5.85936 51.1986C5.85936 50.9577 5.85936 50.7167 5.85936 50.4758C5.72945 45.4111 5.85966 40.3521 6.24999 35.2988C7.87053 38.8943 10.3444 41.9056 13.6719 44.3328C33.2851 55.2121 53.858 56.8985 75.3906 49.3918C82.9797 46.7068 88.5789 42.0092 92.1875 35.2988C92.5781 40.8344 92.7078 46.3752 92.5781 51.9213Z" fill="#596CFA"/>
<path fill-rule="evenodd" clip-rule="evenodd" d="M393.359 51.1986C392.659 53.8495 391.357 56.2585 389.453 58.4257C385.516 62.899 380.568 66.1512 374.609 68.1824C357.923 73.396 341.257 73.396 324.609 68.1824C318.366 65.8833 313.157 62.3902 308.984 57.703C308.388 55.8834 307.606 54.1971 306.641 52.644C306.511 47.0979 306.641 41.5571 307.031 36.0215C310.876 42.8089 316.735 47.5065 324.609 50.1145C341.273 55.3937 357.939 55.3937 374.609 50.1145C382.894 47.4334 389.013 42.4949 392.969 35.2988C393.359 40.5933 393.489 45.8932 393.359 51.1986Z" fill="#10957D"/>
<path fill-rule="evenodd" clip-rule="evenodd" d="M83.2031 48.3078C86.3477 47.6412 88.1711 48.7253 88.6719 51.56C88.3148 55.2493 86.232 57.5379 82.4219 58.4258C80.418 58.1374 79.3758 57.0533 79.2969 55.1736C79.8898 52.5088 81.1922 50.2203 83.2031 48.3078Z" fill="#DEE1EF"/>
<path fill-rule="evenodd" clip-rule="evenodd" d="M384.766 48.3078C386.242 48.1607 387.414 48.6425 388.281 49.7532C389.295 53.0899 388.383 55.8603 385.547 58.0644C380.409 59.214 378.716 57.4072 380.469 52.6441C381.531 50.8209 382.963 49.3755 384.766 48.3078Z" fill="#E3E9E9"/>
<path fill-rule="evenodd" clip-rule="evenodd" d="M5.85937 51.1987C6.45926 53.2724 7.50093 55.1996 8.98436 56.9805C9.35108 62.0903 11.9553 66.3062 16.7969 69.628C32.1191 78.1293 48.5254 80.2974 66.0156 76.1324C76.1563 74.2873 83.8383 69.349 89.0625 61.3167C89.6976 59.9178 90.0883 58.4724 90.2344 56.9805C91.0266 55.4816 91.8078 54.0362 92.5781 52.6442C93.5812 61.9 93.5812 71.0544 92.5781 80.1073C92.7078 74.5612 92.5781 69.0205 92.1875 63.4849C88.2867 70.7028 82.1672 75.641 73.8281 78.3006C53.1522 84.8722 33.3605 83.1854 14.4531 73.2415C10.823 70.6095 8.08866 67.3573 6.24999 63.4849C5.85966 68.5382 5.72945 73.5971 5.85937 78.6619C4.92741 69.6205 4.92741 60.4661 5.85937 51.1987Z" fill="#7C8EF7"/>
<path fill-rule="evenodd" clip-rule="evenodd" d="M393.359 51.1987C394.275 60.7081 394.275 70.1034 393.359 79.3846C393.489 74.0792 393.359 68.7794 392.969 63.4849C389.049 70.7224 382.929 75.6612 374.609 78.3006C357.939 83.5814 341.273 83.5814 324.609 78.3006C316.735 75.6923 310.876 70.9949 307.031 64.2076C306.641 69.7432 306.511 75.2839 306.641 80.8301C305.652 71.541 305.652 62.1457 306.641 52.6442C307.606 54.1973 308.387 55.8836 308.984 57.7032C310.621 64.4048 314.788 69.3433 321.484 72.5188C340.862 80.8329 360.133 80.5916 379.297 71.7961C384.787 69.1069 388.433 65.0115 390.234 59.51C390.18 58.9572 389.92 58.5959 389.453 58.4259C391.357 56.2587 392.659 53.8496 393.359 51.1987Z" fill="#9ED797"/>
<path fill-rule="evenodd" clip-rule="evenodd" d="M308.984 57.7031C313.157 62.3903 318.366 65.8834 324.609 68.1825C341.257 73.3962 357.923 73.3962 374.609 68.1825C380.568 66.1514 385.516 62.8992 389.453 58.4258C389.92 58.5958 390.18 58.9572 390.234 59.5099C388.433 65.0114 384.787 69.1068 379.297 71.7961C360.133 80.5915 340.862 80.8329 321.484 72.5188C314.788 69.3432 310.621 64.4047 308.984 57.7031Z" fill="#FAD47A"/>
<path fill-rule="evenodd" clip-rule="evenodd" d="M8.98438 56.9805C9.9957 58.72 11.2977 60.286 12.8906 61.6781C28.3616 71.4511 45.2887 74.3423 63.6719 70.3507C74.5303 69.0553 83.3844 64.5985 90.2344 56.9805C90.0883 58.4724 89.6977 59.9178 89.0625 61.3168C83.8383 69.349 76.1563 74.2873 66.0156 76.1324C48.5254 80.2974 32.1191 78.1293 16.7969 69.628C11.9553 66.3062 9.35109 62.0904 8.98438 56.9805Z" fill="white"/>
<path fill-rule="evenodd" clip-rule="evenodd" d="M238.672 63.4849C236.387 63.4559 234.304 64.0582 232.422 65.2917C195.117 86.2208 157.747 107.059 120.312 127.807C118.297 129.85 117.386 132.26 117.578 135.034C118.539 160.559 119.06 186.095 119.141 211.642C116.92 211.156 114.966 210.192 113.281 208.751C113.251 192.302 112.6 175.92 111.328 159.606C113.162 158.806 113.422 157.601 112.109 155.992C111.979 146.594 112.109 137.199 112.5 127.807C113.377 126.272 114.548 124.947 116.016 123.832C154.506 102.234 193.178 80.9139 232.031 59.8713C234.604 60.6349 236.817 61.8394 238.672 63.4849Z" fill="#D1D7E5"/>
<path fill-rule="evenodd" clip-rule="evenodd" d="M92.5781 80.1073C92.5781 80.5894 92.5781 81.0707 92.5781 81.5527C91.5469 82.9714 90.5047 84.4169 89.4531 85.889C82.8828 92.9066 74.5498 97.1222 64.4531 98.5366C48.416 101.847 33.0514 100.161 18.3594 93.4775C15.147 91.5175 12.2825 89.2294 9.76561 86.6118C8.02186 84.3489 6.71978 81.9401 5.85936 79.3846C5.85936 79.1439 5.85936 78.9025 5.85936 78.6619C5.72945 73.5971 5.85966 68.5382 6.24999 63.4849C8.08866 67.3572 10.823 70.6095 14.4531 73.2415C33.3605 83.1854 53.1522 84.8722 73.8281 78.3005C82.1672 75.6409 88.2867 70.7028 92.1875 63.4849C92.5781 69.0204 92.7078 74.5612 92.5781 80.1073Z" fill="#10957D"/>
<path fill-rule="evenodd" clip-rule="evenodd" d="M238.672 63.4849C239.154 63.5649 239.545 63.8058 239.844 64.2076C240.798 89.9782 241.448 115.755 241.797 141.538C239.278 143.502 236.804 145.671 234.375 148.043C232.567 147.151 230.874 146.187 229.297 145.152C231.724 144.148 234.068 142.944 236.328 141.538C236.916 117.206 236.655 92.8748 235.547 68.5439C198.177 89.5641 160.677 110.402 123.047 131.059C121.958 132.316 121.437 133.761 121.484 135.395C122.052 158.398 122.704 181.405 123.437 204.414C145.139 192.27 166.884 180.225 188.672 168.279C187.38 170.669 186.078 173.077 184.766 175.506C162.777 187 141.163 199.045 119.922 211.642C145.007 225.412 170.528 238.421 196.484 250.668C198.691 250.43 200.774 249.827 202.734 248.861C240.907 227.715 278.927 206.395 316.797 184.901C316.926 187.082 316.795 189.25 316.406 191.406C294.053 204.213 271.527 216.74 248.828 228.987C247.369 229.538 246.066 230.261 244.922 231.155C231.17 238.966 217.367 246.795 203.516 254.643C199.728 256.659 195.822 256.899 191.797 255.366C177.947 248.72 164.145 242.095 150.391 235.491C148.337 234.542 146.254 233.578 144.141 232.6C135.989 229.192 127.916 225.578 119.922 221.76C119.146 218.421 118.885 215.048 119.141 211.642C119.06 186.095 118.539 160.559 117.578 135.034C117.386 132.26 118.297 129.85 120.312 127.807C157.747 107.059 195.117 86.2208 232.422 65.2917C234.304 64.0581 236.387 63.4558 238.672 63.4849Z" fill="#616477"/>
<path fill-rule="evenodd" clip-rule="evenodd" d="M393.359 79.3846C393.359 79.6253 393.359 79.8666 393.359 80.1073C392.326 82.2444 391.284 84.4125 390.234 86.6117C378.615 96.4609 364.813 101.038 348.828 100.343C337.973 100.664 327.817 98.3747 318.359 93.4775C314.601 91.5631 311.476 89.0336 308.984 85.889C308.079 84.187 307.298 82.5009 306.641 80.83C306.511 75.2839 306.641 69.7431 307.031 64.2076C310.876 70.9949 316.735 75.6922 324.609 78.3005C341.273 83.5814 357.939 83.5814 374.609 78.3005C382.929 75.6612 389.049 70.7224 392.969 63.4849C393.359 68.7793 393.489 74.0791 393.359 79.3846Z" fill="#10957D"/>
<path fill-rule="evenodd" clip-rule="evenodd" d="M229.297 145.152C224.87 144.188 220.443 144.188 216.016 145.152C217.584 143.874 219.277 142.67 221.094 141.538C221.484 125.881 221.615 110.222 221.484 94.5617C221.484 92.1529 221.484 89.7434 221.484 87.3345C218.991 87.7624 216.648 88.6058 214.453 89.864C189.841 103.296 165.102 116.546 140.234 129.613C137.34 132.252 136.298 135.504 137.109 139.37C136.979 154.549 137.109 169.726 137.5 184.901C137.938 185.278 138.459 185.519 139.063 185.624C160.641 174.381 182.125 163.058 203.516 151.656C200.941 154.401 198.206 157.051 195.312 159.606C193.231 162.61 191.018 165.501 188.672 168.279C166.884 180.225 145.139 192.27 123.438 204.414C122.704 181.405 122.052 158.398 121.484 135.395C121.437 133.761 121.958 132.316 123.047 131.059C160.677 110.402 198.177 89.5641 235.547 68.5439C236.655 92.8749 236.916 117.207 236.328 141.538C234.068 142.944 231.724 144.148 229.297 145.152Z" fill="#FDFCFD"/>
<path fill-rule="evenodd" clip-rule="evenodd" d="M83.9844 76.4937C86.7961 76.0875 88.3586 77.1716 88.6719 79.7459C88.3148 83.4353 86.232 85.7235 82.4219 86.6117C80.418 86.3233 79.3758 85.2392 79.2969 83.3595C79.7984 80.3696 81.3609 78.0815 83.9844 76.4937Z" fill="#DFE2EF"/>
<path fill-rule="evenodd" clip-rule="evenodd" d="M383.984 77.2165C387.164 76.4996 388.727 77.5836 388.672 80.4687C388.474 84.0259 386.521 86.314 382.812 87.3345C380.837 86.8308 379.927 85.626 380.078 83.7209C380.395 80.9587 381.698 78.7906 383.984 77.2165Z" fill="#E3E9E9"/>
<path fill-rule="evenodd" clip-rule="evenodd" d="M5.85939 79.3845C6.71981 81.94 8.02189 84.3489 9.76564 86.6117C9.15571 88.9229 9.80673 91.0911 11.7188 93.1161C21.5824 102.264 33.5616 106.601 47.6563 106.125C62.1675 106.931 74.9279 103.077 85.9375 94.5615C87.782 92.113 89.2141 89.4635 90.2344 86.6117C90.1375 86.173 89.8774 85.9323 89.4531 85.889C90.5047 84.4168 91.5469 82.9714 92.5781 81.5527C93.6195 89.9846 93.6195 98.4158 92.5781 106.848C92.7078 101.302 92.5781 95.7605 92.1875 90.2252C88.2867 97.443 82.1672 102.381 73.8281 105.041C53.1487 111.657 33.357 109.97 14.4531 99.9819C10.8231 97.3498 8.08868 94.0976 6.25001 90.2252C5.85968 95.2785 5.72947 100.337 5.85939 105.402C4.89408 96.8388 4.89408 88.1662 5.85939 79.3845Z" fill="#8090F4"/>
<path fill-rule="evenodd" clip-rule="evenodd" d="M89.4531 85.8889C89.8774 85.9323 90.1375 86.1729 90.2344 86.6116C89.2141 89.4635 87.7821 92.1129 85.9375 94.5615C74.9279 103.077 62.1675 106.931 47.6563 106.125C33.5616 106.6 21.5824 102.264 11.7188 93.1161C9.80673 91.091 9.15572 88.9229 9.76564 86.6116C12.2825 89.2293 15.147 91.5174 18.3594 93.4774C33.0514 100.161 48.416 101.847 64.4531 98.5364C74.5499 97.1221 82.8828 92.9065 89.4531 85.8889Z" fill="white"/>
<path fill-rule="evenodd" clip-rule="evenodd" d="M221.484 94.5616C193.171 109.189 165.046 124.125 137.109 139.37C136.298 135.504 137.34 132.252 140.234 129.613C165.102 116.546 189.841 103.296 214.453 89.864C216.648 88.6057 218.991 87.7623 221.484 87.3345C221.484 89.7433 221.484 92.1528 221.484 94.5616Z" fill="#10957D"/>
<path fill-rule="evenodd" clip-rule="evenodd" d="M92.5781 106.848C92.5781 107.088 92.5781 107.33 92.5781 107.571C91.5516 109.47 90.5101 111.397 89.4531 113.352C83.8164 118.734 77.0459 122.469 69.1406 124.554C51.5689 129.1 34.6419 127.655 18.3594 120.218C14.8833 118.567 12.0187 116.279 9.76561 113.352C8.02186 111.089 6.71978 108.681 5.85936 106.125C5.85936 105.884 5.85936 105.643 5.85936 105.402C5.72945 100.338 5.85966 95.2786 6.24999 90.2253C8.08866 94.0976 10.823 97.3499 14.4531 99.982C33.357 109.97 53.1487 111.657 73.8281 105.041C82.1672 102.381 88.2867 97.4431 92.1875 90.2253C92.5781 95.7606 92.7078 101.302 92.5781 106.848Z" fill="#10957D"/>
<path fill-rule="evenodd" clip-rule="evenodd" d="M393.359 106.125C393.359 106.366 393.359 106.607 393.359 106.848C392.553 109.067 391.512 111.235 390.234 113.352C383.427 119.997 375.094 124.212 365.234 126C348.127 129.251 331.981 127.083 316.797 119.495C314.323 118.05 312.241 116.243 310.547 114.075C308.994 112.655 307.822 110.969 307.031 109.016C306.51 102.994 306.51 96.9704 307.031 90.9481C310.676 97.928 316.535 102.626 324.609 105.041C342.145 110.524 359.593 110.282 376.953 104.318C384.07 101.347 389.409 96.6496 392.969 90.2253C393.359 95.52 393.489 100.82 393.359 106.125Z" fill="#10957D"/>
<path fill-rule="evenodd" clip-rule="evenodd" d="M221.484 94.5615C221.615 110.222 221.484 125.881 221.094 141.538C219.277 142.67 217.584 143.874 216.016 145.152C211.88 147.307 207.713 149.475 203.516 151.656C182.125 163.058 160.641 174.38 139.062 185.624C138.459 185.519 137.938 185.278 137.5 184.901C137.109 169.726 136.979 154.549 137.109 139.37C165.046 124.125 193.171 109.189 221.484 94.5615Z" fill="#E0E4F0"/>
<path fill-rule="evenodd" clip-rule="evenodd" d="M83.2031 103.234C86.3477 102.568 88.1711 103.652 88.6719 106.486C88.3148 110.176 86.232 112.464 82.4219 113.352C80.418 113.064 79.3758 111.98 79.2969 110.1C79.8898 107.435 81.1922 105.146 83.2031 103.234Z" fill="#E3E5F2"/>
<path fill-rule="evenodd" clip-rule="evenodd" d="M384.766 103.234C386.242 103.087 387.414 103.569 388.281 104.68C389.507 108.384 388.335 111.154 384.766 112.991C383.463 113.473 382.162 113.473 380.859 112.991C379.306 108.764 380.609 105.512 384.766 103.234Z" fill="#E6ECEB"/>
<path fill-rule="evenodd" clip-rule="evenodd" d="M5.85937 106.125C6.71979 108.681 8.02187 111.089 9.76562 113.352C9.34132 113.396 9.08093 113.636 8.98437 114.075C11.3927 119.314 15.299 123.289 20.7031 126C38.4267 133.632 56.3955 134.114 74.6094 127.445C81.8578 124.716 86.8055 120.018 89.4531 113.352C90.5101 111.397 91.5515 109.47 92.5781 107.57C93.6195 116.002 93.6195 124.434 92.5781 132.865C92.7078 127.319 92.5781 121.778 92.1875 116.243C88.3429 123.03 82.4836 127.728 74.6094 130.336C57.6823 135.636 40.7552 135.636 23.8281 130.336C15.5348 127.781 9.67538 122.843 6.24999 115.52C6.11604 120.709 5.72541 125.768 5.07812 130.697C4.88799 122.484 5.14841 114.293 5.85937 106.125Z" fill="#7C8FF9"/>
<path fill-rule="evenodd" clip-rule="evenodd" d="M393.359 80.1072C394.325 88.8889 394.325 97.5615 393.359 106.125C393.489 100.819 393.359 95.5198 392.969 90.2252C389.409 96.6494 384.07 101.347 376.953 104.318C359.593 110.282 342.145 110.523 324.609 105.041C316.535 102.626 310.676 97.9279 307.031 90.9479C306.51 96.9703 306.51 102.993 307.031 109.016C307.822 110.969 308.994 112.655 310.547 114.075C310.123 114.118 309.863 114.359 309.766 114.798C313.361 121.652 319.091 126.35 326.953 128.89C342.036 133.154 357.141 133.154 372.266 128.89C380.945 126.279 386.935 121.099 390.234 113.352C391.512 111.235 392.553 109.066 393.359 106.848C394.07 115.016 394.33 123.207 394.141 131.42C393.493 126.249 393.102 120.949 392.969 115.52C389.684 122.653 384.085 127.592 376.172 130.336C358.47 136.576 340.761 136.576 323.047 130.336C315.966 127.613 310.627 123.156 307.031 116.966C306.898 122.394 306.507 127.694 305.859 132.865C305.614 115.488 305.875 98.1425 306.641 80.8299C307.298 82.5008 308.079 84.1869 308.984 85.8889C310.315 92.0681 313.961 96.7658 319.922 99.9818C340.341 109.304 360.653 109.063 380.859 99.2591C386.034 96.3018 389.159 92.0862 390.234 86.6116C391.284 84.4124 392.326 82.2442 393.359 80.1072Z" fill="#9ED798"/>
<path fill-rule="evenodd" clip-rule="evenodd" d="M308.984 85.8889C311.476 89.0334 314.601 91.563 318.359 93.4774C327.817 98.3745 337.973 100.663 348.828 100.343C364.813 101.038 378.615 96.4608 390.234 86.6116C389.159 92.0862 386.034 96.3018 380.859 99.2591C360.653 109.064 340.341 109.304 319.922 99.9819C313.961 96.7658 310.315 92.0681 308.984 85.8889Z" fill="#F9D47A"/>
<path fill-rule="evenodd" clip-rule="evenodd" d="M9.76562 113.352C12.0187 116.279 14.8833 118.567 18.3594 120.218C34.6419 127.655 51.5689 129.1 69.1406 124.554C77.0459 122.469 83.8164 118.734 89.4531 113.352C86.8055 120.019 81.8578 124.716 74.6094 127.445C56.3955 134.114 38.4267 133.632 20.7031 126C15.299 123.289 11.3927 119.314 8.98438 114.075C9.08094 113.636 9.34133 113.396 9.76562 113.352Z" fill="white"/>
<path fill-rule="evenodd" clip-rule="evenodd" d="M390.234 113.352C386.935 121.099 380.945 126.279 372.266 128.891C357.141 133.154 342.036 133.154 326.953 128.891C319.091 126.35 313.361 121.653 309.766 114.798C309.862 114.359 310.123 114.118 310.547 114.075C312.241 116.243 314.323 118.05 316.797 119.495C331.981 127.083 348.127 129.251 365.234 126C375.094 124.213 383.427 119.997 390.234 113.352Z" fill="#F9D47A"/>
<path fill-rule="evenodd" clip-rule="evenodd" d="M92.5781 132.865C91.7609 136.746 89.6774 139.878 86.3281 142.261C84.5524 142.591 83.5109 143.554 83.2031 145.152C64.334 154.051 44.8027 155.376 24.6094 149.127C14.752 145.911 8.24164 139.768 5.07812 130.697C5.72542 125.768 6.11605 120.709 6.25 115.52C9.67539 122.843 15.5348 127.781 23.8281 130.336C40.7552 135.636 57.6823 135.636 74.6094 130.336C82.4836 127.728 88.343 123.03 92.1875 116.243C92.5781 121.778 92.7078 127.319 92.5781 132.865Z" fill="#10957D"/>
<path fill-rule="evenodd" clip-rule="evenodd" d="M394.141 131.42C391.238 140.249 384.988 146.151 375.391 149.127C359.929 153.828 344.304 154.309 328.516 150.572C324.402 149.348 320.496 147.782 316.797 145.874C315.985 144.406 314.684 143.443 312.891 142.983C309.758 140.078 307.414 136.705 305.859 132.865C306.507 127.694 306.898 122.394 307.031 116.966C310.627 123.156 315.966 127.613 323.047 130.336C340.761 136.576 358.47 136.576 376.172 130.336C384.085 127.592 389.684 122.653 392.969 115.52C393.102 120.949 393.493 126.249 394.141 131.42Z" fill="#10957D"/>
<path fill-rule="evenodd" clip-rule="evenodd" d="M158.203 122.025C158.984 122.025 159.766 122.025 160.547 122.025C160.747 123.768 159.966 124.973 158.203 125.638C157.292 124.433 157.292 123.229 158.203 122.025Z" fill="#FFFAFB"/>
<path fill-rule="evenodd" clip-rule="evenodd" d="M151.172 125.638C151.953 125.638 152.734 125.638 153.516 125.638C153.752 127.87 152.711 129.074 150.391 129.252C150.286 127.957 150.546 126.753 151.172 125.638Z" fill="#FFF6F7"/>
<path fill-rule="evenodd" clip-rule="evenodd" d="M144.141 129.252C144.922 129.252 145.703 129.252 146.484 129.252C147.066 131.745 146.023 132.949 143.359 132.866C143.255 131.57 143.515 130.366 144.141 129.252Z" fill="#FFF3F5"/>
<path fill-rule="evenodd" clip-rule="evenodd" d="M383.984 129.975C386.884 129.502 388.446 130.586 388.672 133.227C388.629 136.823 386.806 139.112 383.203 140.093C381.014 139.752 379.972 138.547 380.078 136.479C380.394 133.784 381.696 131.616 383.984 129.975Z" fill="#E6ECEB"/>
<path fill-rule="evenodd" clip-rule="evenodd" d="M83.2031 129.975C88.5711 129.795 90.0039 131.964 87.5 136.479C86.1211 138.123 84.4281 139.327 82.4219 140.093C80.3555 139.542 79.3133 138.216 79.2969 136.118C79.7945 133.615 81.0961 131.567 83.2031 129.975Z" fill="#E1E3F1"/>
<path fill-rule="evenodd" clip-rule="evenodd" d="M86.3281 142.261C94.7664 147.01 103.36 151.587 112.109 155.992C113.422 157.601 113.162 158.806 111.328 159.606C101.932 154.779 92.557 149.961 83.2031 145.152C83.5109 143.554 84.5523 142.591 86.3281 142.261Z" fill="#6488A1"/>
<path fill-rule="evenodd" clip-rule="evenodd" d="M312.891 142.983C314.684 143.443 315.985 144.406 316.797 145.874C306.901 150.933 297.005 155.992 287.109 161.051C286.689 159.883 286.429 158.678 286.328 157.438C295.445 152.981 304.3 148.164 312.891 142.983Z" fill="#6388A0"/>
<path fill-rule="evenodd" clip-rule="evenodd" d="M262.109 145.152C255.339 145.934 249.48 148.584 244.531 153.101C238.475 149.28 232.095 148.678 225.391 151.295C207.678 159.978 196.35 173.348 191.406 191.405C190.882 194.802 190.231 198.174 189.453 201.523C178.334 210.46 174.427 221.541 177.734 234.768C173.911 233.126 170.526 230.957 167.578 228.264C164.887 220.454 165.798 212.986 170.312 205.86C172.852 202.062 175.977 198.689 179.687 195.742C180.076 193.829 180.206 191.902 180.078 189.96C181.168 185.008 182.73 180.19 184.766 175.506C186.078 173.077 187.38 170.668 188.672 168.278C191.018 165.501 193.231 162.61 195.312 159.606C198.206 157.05 200.941 154.401 203.516 151.656C207.713 149.475 211.88 147.307 216.016 145.152C220.443 144.188 224.87 144.188 229.297 145.152C230.874 146.187 232.567 147.151 234.375 148.042C236.804 145.67 239.278 143.502 241.797 141.538C249.478 138.774 256.249 139.978 262.109 145.152Z" fill="#10957D"/>
<path fill-rule="evenodd" clip-rule="evenodd" d="M262.109 145.152C263.878 145.671 265.701 145.912 267.578 145.874C266.982 146.429 266.201 146.791 265.234 146.958C267.999 148.337 269.952 150.384 271.094 153.101C273.398 152.424 275.612 151.702 277.734 150.933C281.673 151.909 284.537 154.077 286.328 157.438C286.429 158.678 286.689 159.883 287.109 161.051C287.803 162.897 288.063 164.825 287.891 166.833C285.393 178.427 279.143 187.943 269.141 195.38C262.325 198.528 255.815 202.021 249.609 205.86C239.232 211.138 229.076 216.679 219.141 222.482C209.002 227.413 198.845 232.352 188.672 237.298C184.484 238.206 180.838 237.362 177.734 234.768C174.427 221.541 178.334 210.46 189.453 201.523C190.231 198.174 190.882 194.802 191.406 191.405C196.35 173.348 207.678 159.978 225.391 151.295C232.095 148.678 238.475 149.28 244.531 153.101C249.48 148.584 255.339 145.934 262.109 145.152Z" fill="#10957D" fill-opacity="0.77"/>
<path fill-rule="evenodd" clip-rule="evenodd" d="M267.578 145.874C271.34 147.01 274.725 148.696 277.734 150.933C275.612 151.702 273.398 152.424 271.094 153.101C269.952 150.384 267.999 148.337 265.234 146.958C266.201 146.791 266.982 146.429 267.578 145.874Z" fill="#556CF0"/>
<path fill-rule="evenodd" clip-rule="evenodd" d="M228.516 163.942C229.093 163.848 229.614 163.968 230.078 164.304C234.22 168.858 238.647 173.195 243.359 177.313C241.641 178.539 239.819 179.623 237.891 180.565C237.241 186.573 236.85 192.596 236.719 198.633C231.706 201.614 226.628 204.505 221.484 207.305C220.834 201.539 220.444 195.757 220.312 189.96C218.555 190.833 216.862 191.797 215.234 192.851C214.974 192.61 214.713 192.369 214.453 192.128C219.366 182.801 224.053 173.406 228.516 163.942Z" fill="#FCFCFE"/>
<path opacity="0.999" fill-rule="evenodd" clip-rule="evenodd" d="M287.891 166.833C297.134 171.87 306.509 176.809 316.016 181.649C316.703 182.629 316.964 183.713 316.797 184.901C278.927 206.394 240.907 227.715 202.734 248.861C200.774 249.827 198.691 250.429 196.484 250.668C170.528 238.421 145.007 225.412 119.922 211.641C141.163 199.045 162.777 187 184.766 175.506C182.73 180.19 181.168 185.008 180.078 189.96C177.567 190.639 175.223 191.723 173.047 193.212C174.309 193.657 175.351 194.379 176.172 195.38C174.617 195.281 173.055 194.919 171.484 194.296C169.304 195.185 167.22 196.269 165.234 197.548C166.93 198.695 168.753 199.659 170.703 200.439C170.214 200.981 169.823 201.584 169.531 202.246C167.541 200.059 165.066 198.975 162.109 198.994C152.969 204.243 144.115 209.302 135.547 214.171C141.806 217.558 148.056 220.93 154.297 224.289C158.375 224.401 161.891 223.075 164.844 220.314C165.24 221.395 164.849 222.239 163.672 222.843C161.584 223.567 159.76 224.651 158.203 226.096C160.921 228.57 164.046 229.292 167.578 228.264C170.526 230.957 173.911 233.126 177.734 234.768C180.838 237.362 184.484 238.205 188.672 237.298C198.845 232.351 209.002 227.413 219.141 222.482C221.561 224.211 224.165 225.776 226.953 227.18C229.402 227.751 231.745 227.51 233.984 226.457C241.601 221.91 249.283 217.453 257.031 213.087C257.552 212.123 257.552 211.159 257.031 210.196C254.309 209.003 251.835 207.558 249.609 205.86C255.815 202.021 262.325 198.528 269.141 195.38C279.143 187.943 285.393 178.427 287.891 166.833Z" fill="#DFE3EF"/>
<path fill-rule="evenodd" clip-rule="evenodd" d="M99.6094 187.069C99.7367 185.366 99.607 183.68 99.2187 182.01C93.8117 185.295 88.2125 188.307 82.4219 191.044C80.1359 192.776 79.6148 194.823 80.8594 197.187C80.0781 198.151 79.2969 198.151 78.5156 197.187C79.5289 195.602 79.5289 193.916 78.5156 192.128C72.0889 188.555 65.5785 185.182 58.9844 182.01C59.3259 180.873 60.1071 180.029 61.3281 179.481C67.3466 176.457 73.3362 173.446 79.2969 170.447C86.2875 173.44 93.0586 176.812 99.6094 180.565C100.627 182.838 100.627 185.006 99.6094 187.069Z" fill="#10957D"/>
<path opacity="0.992" fill-rule="evenodd" clip-rule="evenodd" d="M374.609 186.346C367.823 190.273 360.922 194.128 353.906 197.91C347.13 194.155 340.49 190.3 333.984 186.346C340.48 182.376 347.251 178.762 354.297 175.506C361.343 178.762 368.113 182.376 374.609 186.346Z" fill="#10957D"/>
<path fill-rule="evenodd" clip-rule="evenodd" d="M58.9844 182.01C65.5785 185.182 72.0889 188.555 78.5156 192.128C79.5289 193.916 79.5289 195.602 78.5156 197.187C71.9215 194.015 65.4111 190.642 58.9844 187.069C58.0357 185.364 58.0357 183.678 58.9844 182.01Z" fill="#F8BE57"/>
<path fill-rule="evenodd" clip-rule="evenodd" d="M99.6094 187.069C93.6437 190.796 87.3937 194.168 80.8594 197.187C79.6148 194.823 80.1359 192.776 82.4219 191.044C88.2125 188.307 93.8117 185.295 99.2187 182.01C99.607 183.68 99.7367 185.366 99.6094 187.069Z" fill="#EFB04C"/>
<path opacity="0.999" fill-rule="evenodd" clip-rule="evenodd" d="M333.984 186.346C340.49 190.3 347.13 194.155 353.906 197.91C360.922 194.128 367.823 190.273 374.609 186.346C375.638 188.319 375.638 190.367 374.609 192.49C367.884 196.264 360.983 199.756 353.906 202.969C347.215 199.572 340.574 196.079 333.984 192.49C332.955 190.367 332.955 188.319 333.984 186.346Z" fill="#CFD5E2"/>
<path fill-rule="evenodd" clip-rule="evenodd" d="M249.609 205.86C251.835 207.558 254.309 209.003 257.031 210.196C257.552 211.159 257.552 212.123 257.031 213.087C249.283 217.453 241.601 221.91 233.984 226.457C231.745 227.51 229.402 227.751 226.953 227.18C224.165 225.776 221.561 224.211 219.141 222.482C229.076 216.679 239.232 211.138 249.609 205.86Z" fill="#B9C1CE"/>
<path fill-rule="evenodd" clip-rule="evenodd" d="M180.078 189.96C180.206 191.902 180.076 193.829 179.688 195.742C175.977 198.689 172.852 202.062 170.313 205.86C165.798 212.986 164.888 220.454 167.578 228.264C164.046 229.292 160.921 228.57 158.203 226.096C159.76 224.651 161.584 223.567 163.672 222.843C164.849 222.239 165.24 221.395 164.844 220.314C161.891 223.075 158.375 224.401 154.297 224.289C148.056 220.93 141.806 217.558 135.547 214.171C144.115 209.302 152.969 204.243 162.109 198.994C165.066 198.975 167.541 200.059 169.531 202.246C169.823 201.584 170.214 200.981 170.703 200.439C168.753 199.659 166.93 198.695 165.234 197.548C167.22 196.269 169.304 195.185 171.484 194.296C173.055 194.919 174.617 195.281 176.172 195.38C175.351 194.379 174.309 193.657 173.047 193.212C175.223 191.723 177.567 190.639 180.078 189.96Z" fill="#C5CBD9"/>
<path fill-rule="evenodd" clip-rule="evenodd" d="M92.5781 255.727C92.7078 250.181 92.5781 244.64 92.1875 239.105C88.5109 245.696 82.9117 250.394 75.3906 253.197C53.8453 260.768 33.2724 259.081 13.6719 248.138C10.771 245.274 8.1668 242.263 5.85938 239.105C6.36991 236.874 6.1095 234.706 5.07812 232.6C7.92875 224.058 13.9184 218.156 23.0469 214.894C43.7406 207.778 63.7927 208.982 83.2031 218.507C87.6813 221.608 90.9367 225.583 92.9688 230.432C93.6141 238.99 93.4836 247.421 92.5781 255.727Z" fill="#10957D"/>
<path fill-rule="evenodd" clip-rule="evenodd" d="M393.359 262.232C393.489 256.926 393.359 251.626 392.969 246.332C388.834 253.764 382.453 258.944 373.828 261.87C353.431 268.333 333.9 266.647 315.234 256.811C311.913 254.223 309.178 251.212 307.031 247.777C306.641 252.107 306.511 256.443 306.641 260.786C305.986 260.539 305.725 260.058 305.859 259.341C305.73 252.351 305.859 245.364 306.25 238.382C309.859 230.253 316.239 224.832 325.391 222.121C346.066 215.549 365.859 217.236 384.766 227.18C389.854 230.454 392.848 234.911 393.75 240.55C394.395 247.904 394.264 255.131 393.359 262.232Z" fill="#10957D" fill-opacity="0.62"/>
<path fill-rule="evenodd" clip-rule="evenodd" d="M248.828 228.987C267.705 239.285 286.716 249.403 305.859 259.341C305.725 260.058 305.986 260.539 306.641 260.786C306.641 261.749 306.641 262.714 306.641 263.677C285.962 253.028 265.389 242.187 244.922 231.155C246.066 230.261 247.369 229.538 248.828 228.987Z" fill="#63879F"/>
<path fill-rule="evenodd" clip-rule="evenodd" d="M144.141 232.6C146.254 233.578 148.338 234.541 150.391 235.491C131.254 245.185 112.244 255.062 93.3594 265.122C93.3594 263.918 93.3594 262.713 93.3594 261.509C110.654 252.425 127.841 243.15 144.922 233.684C144.487 233.407 144.227 233.046 144.141 232.6Z" fill="#6488A0"/>
<path fill-rule="evenodd" clip-rule="evenodd" d="M5.85938 239.104C8.1668 242.263 10.771 245.274 13.6719 248.138C33.2724 259.081 53.8453 260.768 75.3906 253.197C82.9117 250.394 88.5109 245.696 92.1875 239.104C92.5781 244.64 92.7078 250.181 92.5781 255.727C92.5781 255.968 92.5781 256.209 92.5781 256.45C91.6125 258.003 90.8313 259.689 90.2344 261.509C78.6352 271.433 64.8328 276.251 48.8281 275.963C38.0394 276.015 27.8831 273.727 18.3594 269.097C15.147 267.137 12.2825 264.849 9.76563 262.231C8.02188 259.969 6.7198 257.56 5.85938 255.004C5.85938 254.764 5.85938 254.522 5.85938 254.282C5.85938 249.223 5.85938 244.163 5.85938 239.104Z" fill="#F34958"/>
<path opacity="0.356" fill-rule="evenodd" clip-rule="evenodd" d="M5.07813 232.6C6.1095 234.706 6.36992 236.874 5.85938 239.105C5.85938 244.164 5.85938 249.223 5.85938 254.282C5.0828 247.185 4.82239 239.958 5.07813 232.6Z" fill="#ED8F9F"/>
<path fill-rule="evenodd" clip-rule="evenodd" d="M393.359 262.232C393.359 262.472 393.359 262.714 393.359 262.954C392.553 265.173 391.512 267.341 390.234 269.459C382.584 276.733 373.209 281.189 362.109 282.829C344.913 285.753 329.027 282.862 314.453 274.156C312.73 272.684 311.167 271.119 309.766 269.459C308.503 267.841 307.462 266.155 306.641 264.4C306.641 264.159 306.641 263.918 306.641 263.677C306.641 262.714 306.641 261.749 306.641 260.786C306.511 256.443 306.641 252.107 307.031 247.777C309.178 251.212 311.913 254.223 315.234 256.811C333.9 266.647 353.431 268.333 373.828 261.87C382.453 258.944 388.834 253.764 392.969 246.332C393.359 251.626 393.489 256.926 393.359 262.232Z" fill="#10957D"/>
<path fill-rule="evenodd" clip-rule="evenodd" d="M83.9844 252.114C86.7961 251.707 88.3586 252.791 88.6719 255.366C88.3148 259.055 86.232 261.343 82.4219 262.232C80.418 261.943 79.3758 260.859 79.2969 258.979C79.7984 255.989 81.3609 253.701 83.9844 252.114Z" fill="#FCEBED"/>
<path fill-rule="evenodd" clip-rule="evenodd" d="M83.9844 253.559C86.7742 253.493 87.686 254.697 86.7188 257.173C85.7883 259.365 84.0953 260.57 81.6406 260.786C81.1383 257.944 81.9195 255.535 83.9844 253.559Z" fill="#C1C7D3"/>
<path fill-rule="evenodd" clip-rule="evenodd" d="M5.85938 255.004C6.7198 257.56 8.02187 259.969 9.76562 262.232C9.29945 262.401 9.03898 262.763 8.98438 263.316C11.7932 269.528 16.4807 274.105 23.0469 277.047C36.1611 281.881 49.7027 283.085 63.6719 280.661C72.2441 279.165 79.6656 275.673 85.9375 270.181C88.0078 267.556 89.4398 264.665 90.2344 261.509C90.8313 259.689 91.6125 258.003 92.5781 256.45C92.9633 258.116 93.2234 259.803 93.3594 261.509C93.3594 262.714 93.3594 263.918 93.3594 265.122C93.6148 271.758 93.3539 278.263 92.5781 284.636C92.7078 279.09 92.5781 273.549 92.1875 268.013C84.975 277.8 74.9488 283.461 62.1094 284.997C45.0984 287.876 29.213 285.225 14.4531 277.047C10.807 274.287 7.94242 271.035 5.85938 267.291C6.11573 264.989 6.11573 262.58 5.85938 260.063C5.85938 258.377 5.85938 256.69 5.85938 255.004Z" fill="#F8667E"/>
<path fill-rule="evenodd" clip-rule="evenodd" d="M90.2344 261.509C89.4398 264.665 88.0078 267.556 85.9375 270.181C79.6656 275.673 72.2441 279.165 63.6719 280.661C49.7027 283.085 36.1611 281.881 23.0469 277.047C16.4807 274.105 11.7932 269.528 8.98438 263.316C9.03898 262.763 9.29945 262.401 9.76562 262.232C12.2825 264.849 15.147 267.137 18.3594 269.097C27.8831 273.727 38.0394 276.015 48.8281 275.963C64.8328 276.251 78.6352 271.433 90.2344 261.509Z" fill="#FDD179"/>
<path fill-rule="evenodd" clip-rule="evenodd" d="M383.984 260.063C387.164 259.346 388.727 260.431 388.672 263.316C388.484 266.738 386.661 269.027 383.203 270.181C381.014 269.841 379.972 268.636 380.078 266.568C380.394 263.873 381.696 261.705 383.984 260.063Z" fill="#EAE9EA"/>
<path fill-rule="evenodd" clip-rule="evenodd" d="M393.359 262.954C394.27 272.223 394.27 281.377 393.359 290.417C393.489 285.112 393.359 279.812 392.969 274.518C389.994 281.124 384.916 285.822 377.734 288.61C360.483 295.175 343.035 295.657 325.391 290.056C317.329 287.408 311.209 282.71 307.031 275.963C306.641 281.258 306.511 286.557 306.641 291.863C305.638 282.81 305.638 273.655 306.641 264.4C307.462 266.155 308.503 267.841 309.766 269.459C309.341 269.502 309.081 269.743 308.984 270.181C310.764 276.25 314.67 280.706 320.703 283.551C334.381 289.656 348.704 291.342 363.672 288.61C373.042 286.988 380.984 283.013 387.5 276.686C389.09 274.473 390.001 272.064 390.234 269.459C391.512 267.341 392.553 265.173 393.359 262.954Z" fill="#F5CF7A"/>
<path fill-rule="evenodd" clip-rule="evenodd" d="M5.85938 267.291C7.94242 271.035 10.807 274.287 14.4531 277.047C29.2131 285.225 45.0984 287.876 62.1094 284.997C74.9488 283.461 84.975 277.8 92.1875 268.013C92.5781 273.549 92.7078 279.09 92.5781 284.636C91.6125 286.189 90.8313 287.875 90.2344 289.695C82.5297 296.993 73.1545 301.45 62.1094 303.065C44.625 306.233 28.4791 303.342 13.6719 294.392C12.2083 293.161 10.9062 291.836 9.76563 290.417C8.02188 288.155 6.7198 285.746 5.85938 283.19C5.85938 282.95 5.85938 282.708 5.85938 282.468C5.85938 277.409 5.85938 272.35 5.85938 267.291Z" fill="#10957D"/>
<path fill-rule="evenodd" clip-rule="evenodd" d="M309.766 269.459C311.167 271.119 312.73 272.684 314.453 274.156C329.027 282.862 344.913 285.753 362.109 282.829C373.209 281.189 382.584 276.733 390.234 269.459C390.001 272.064 389.09 274.474 387.5 276.686C380.984 283.013 373.042 286.988 363.672 288.611C348.704 291.342 334.381 289.656 320.703 283.552C314.67 280.706 310.764 276.25 308.984 270.181C309.081 269.743 309.341 269.502 309.766 269.459Z" fill="#527A8F"/>
<path fill-rule="evenodd" clip-rule="evenodd" d="M393.359 290.417C393.359 290.658 393.359 290.899 393.359 291.14C392.499 293.696 391.197 296.104 389.453 298.367C382.999 304.369 375.187 308.344 366.016 310.292C347.955 314.372 331.027 311.964 315.234 303.065C313.251 301.352 311.428 299.545 309.766 297.644C308.503 296.027 307.462 294.341 306.641 292.585C306.641 292.345 306.641 292.103 306.641 291.863C306.511 286.557 306.641 281.258 307.031 275.963C311.209 282.71 317.329 287.408 325.391 290.056C343.035 295.657 360.483 295.175 377.734 288.611C384.916 285.822 389.994 281.124 392.969 274.518C393.359 279.812 393.489 285.112 393.359 290.417Z" fill="#10957D"/>
<path opacity="0.329" fill-rule="evenodd" clip-rule="evenodd" d="M5.85937 260.063C6.11573 262.58 6.11573 264.989 5.85937 267.291C5.85937 272.35 5.85937 277.409 5.85937 282.468C4.81771 275 4.81771 267.531 5.85937 260.063Z" fill="#EC8E9D"/>
<path fill-rule="evenodd" clip-rule="evenodd" d="M83.9844 280.299C86.7961 279.893 88.3586 280.977 88.6719 283.552C88.1687 288.122 85.5641 290.29 80.8594 290.056C78.9156 288.157 78.7851 286.11 80.4687 283.913C81.2961 282.353 82.468 281.148 83.9844 280.299Z" fill="#EAE0E4"/>
<path fill-rule="evenodd" clip-rule="evenodd" d="M383.984 288.249C387.164 287.532 388.727 288.616 388.672 291.501C388.484 294.924 386.661 297.213 383.203 298.367C381.014 298.027 379.972 296.822 380.078 294.754C380.394 292.059 381.696 289.89 383.984 288.249Z" fill="#EAE9EA"/>
<path fill-rule="evenodd" clip-rule="evenodd" d="M5.85938 294.031C12.6727 304.066 22.5684 309.968 35.5469 311.738C52.8612 314.738 69.0071 312.088 83.9844 303.788C87.3063 301.2 90.0406 298.188 92.1875 294.754C92.7086 300.535 92.7086 306.317 92.1875 312.099C91.2656 313.804 90.3539 315.491 89.4531 317.158C78.0119 326.799 64.4702 331.376 48.8281 330.889C36.3417 331.174 24.8834 328.163 14.4531 321.856C12.7298 320.383 11.1673 318.818 9.76562 317.158C7.86141 314.99 6.55929 312.582 5.85938 309.931C5.85938 309.69 5.85938 309.449 5.85938 309.208C5.85938 304.149 5.85938 299.09 5.85938 294.031Z" fill="#10957D"/>
<path fill-rule="evenodd" clip-rule="evenodd" d="M393.359 291.14C394.305 299.924 394.305 308.597 393.359 317.158C393.489 311.852 393.359 306.553 392.969 301.258C389.684 308.39 384.084 313.328 376.172 316.074C357.83 322.547 339.602 322.307 321.484 315.351C314.902 312.851 310.084 308.635 307.031 302.704C306.898 308.132 306.507 313.432 305.859 318.603C305.616 309.873 305.876 301.2 306.641 292.586C307.462 294.341 308.503 296.027 309.766 297.645C310.537 303.932 314.183 308.63 320.703 311.738C329.554 316.344 339.059 318.392 349.219 317.881C360.18 318.165 370.466 315.877 380.078 311.015C384.907 308.235 388.292 304.381 390.234 299.451C390.18 298.898 389.92 298.537 389.453 298.367C391.197 296.104 392.499 293.696 393.359 291.14Z" fill="#F1CD7B"/>
<path opacity="0.382" fill-rule="evenodd" clip-rule="evenodd" d="M5.07813 287.527C6.1095 289.633 6.36992 291.801 5.85938 294.031C5.85938 299.09 5.85938 304.149 5.85938 309.208C5.0828 302.112 4.82239 294.885 5.07813 287.527Z" fill="#EC8E9E"/>
<path fill-rule="evenodd" clip-rule="evenodd" d="M309.766 297.645C311.428 299.545 313.251 301.352 315.234 303.065C331.027 311.964 347.955 314.372 366.016 310.292C375.187 308.344 382.999 304.369 389.453 298.367C389.92 298.537 390.18 298.898 390.234 299.451C388.292 304.381 384.907 308.235 380.078 311.015C370.466 315.876 360.18 318.165 349.219 317.881C339.059 318.392 329.554 316.344 320.703 311.737C314.183 308.63 310.537 303.932 309.766 297.645Z" fill="#527A8F"/>
<path fill-rule="evenodd" clip-rule="evenodd" d="M393.359 317.158C393.359 317.398 393.359 317.64 393.359 317.881C392.565 320.08 391.523 322.249 390.234 324.385C385.909 329.287 380.441 332.78 373.828 334.864C353.39 341.531 333.859 339.844 315.234 329.805C313.513 328.091 311.69 326.525 309.766 325.108C308.852 322.932 307.55 321.004 305.859 319.326C305.859 319.085 305.859 318.844 305.859 318.603C306.507 313.432 306.898 308.132 307.031 302.703C310.084 308.635 314.902 312.85 321.484 315.351C339.602 322.306 357.83 322.547 376.172 316.074C384.084 313.328 389.684 308.39 392.969 301.258C393.359 306.553 393.489 311.852 393.359 317.158Z" fill="#10957D"/>
<path fill-rule="evenodd" clip-rule="evenodd" d="M228.516 322.94C228.643 321.236 228.513 319.55 228.125 317.881C221.548 321.585 214.908 325.199 208.203 328.721C201.498 325.199 194.858 321.585 188.281 317.881C187.893 319.55 187.763 321.236 187.891 322.94C186.862 320.967 186.862 318.919 187.891 316.797C194.564 313.108 201.335 309.615 208.203 306.317C215.071 309.615 221.842 313.108 228.516 316.797C229.545 318.919 229.545 320.967 228.516 322.94Z" fill="#9CD89B"/>
<path fill-rule="evenodd" clip-rule="evenodd" d="M5.85938 283.19C6.7198 285.746 8.02188 288.155 9.76563 290.417C9.1557 292.729 9.80672 294.897 11.7188 296.922C17.6512 303.221 25.073 307.196 33.9844 308.847C50.1111 311.771 65.4757 309.844 80.0781 303.065C85.2945 299.798 88.6797 295.341 90.2344 289.695C90.8313 287.875 91.6125 286.189 92.5781 284.636C93.6149 302.052 93.6149 319.397 92.5781 336.671C92.7078 331.125 92.5781 325.584 92.1875 320.049C88.8875 326.234 83.8094 330.69 76.9531 333.419C58.4635 340.646 39.974 340.646 21.4844 333.419C14.6284 330.69 9.55031 326.234 6.25 320.049C5.85967 325.102 5.72946 330.161 5.85938 335.226C4.87748 326.901 4.87748 318.469 5.85938 309.931C6.55929 312.582 7.86141 314.99 9.76563 317.158C9.34133 317.201 9.08094 317.442 8.98438 317.881C11.3927 323.119 15.299 327.094 20.7031 329.805C37.7769 337.232 55.2248 337.955 73.0469 331.973C81.0258 329.289 86.4945 324.35 89.4531 317.158C90.3539 315.49 91.2656 313.804 92.1875 312.099C92.7086 306.317 92.7086 300.535 92.1875 294.754C90.0406 298.188 87.3063 301.2 83.9844 303.788C69.0071 312.088 52.8613 314.738 35.5469 311.737C22.5684 309.968 12.6727 304.066 5.85938 294.031C6.36991 291.801 6.1095 289.632 5.07812 287.526C5.73548 286.168 5.99589 284.723 5.85938 283.19Z" fill="#F76980"/>
<path fill-rule="evenodd" clip-rule="evenodd" d="M83.9844 307.04C86.7961 306.634 88.3586 307.718 88.6719 310.292C88.3148 313.981 86.232 316.27 82.4219 317.158C80.418 316.869 79.3758 315.785 79.2969 313.906C79.7984 310.916 81.3609 308.628 83.9844 307.04Z" fill="#EDE4E8"/>
<path fill-rule="evenodd" clip-rule="evenodd" d="M90.2344 289.695C88.6797 295.341 85.2945 299.798 80.0781 303.065C65.4757 309.844 50.1111 311.772 33.9844 308.847C25.0731 307.196 17.6512 303.221 11.7188 296.922C9.80673 294.897 9.15572 292.729 9.76564 290.418C10.9062 291.836 12.2083 293.161 13.6719 294.392C28.4792 303.342 44.625 306.233 62.1094 303.065C73.1545 301.451 82.5297 296.994 90.2344 289.695Z" fill="#FDD179"/>
<path fill-rule="evenodd" clip-rule="evenodd" d="M383.984 314.99C387.164 314.273 388.727 315.357 388.672 318.242C388.484 321.665 386.661 323.954 383.203 325.108C381.014 324.767 379.972 323.563 380.078 321.494C380.394 318.799 381.696 316.631 383.984 314.99Z" fill="#EDECEC"/>
<path fill-rule="evenodd" clip-rule="evenodd" d="M9.76562 317.158C11.1673 318.818 12.7298 320.383 14.4531 321.856C24.8834 328.163 36.3417 331.174 48.8281 330.89C64.4702 331.376 78.0119 326.799 89.4531 317.158C86.4945 324.35 81.0258 329.289 73.0469 331.974C55.2248 337.955 37.7769 337.232 20.7031 329.805C15.299 327.095 11.3927 323.12 8.98438 317.881C9.08094 317.442 9.34133 317.201 9.76562 317.158Z" fill="#FDD179"/>
<path fill-rule="evenodd" clip-rule="evenodd" d="M228.516 322.94C222.02 326.91 215.249 330.524 208.203 333.78C201.157 330.524 194.387 326.91 187.891 322.94C187.763 321.236 187.893 319.55 188.281 317.881C194.858 321.585 201.498 325.199 208.203 328.721C214.908 325.199 221.548 321.585 228.125 317.881C228.513 319.55 228.643 321.236 228.516 322.94Z" fill="#77C278"/>
<path fill-rule="evenodd" clip-rule="evenodd" d="M92.5781 336.671C90.8648 342.719 86.9586 347.175 80.8594 350.042C60.4105 358.903 39.8376 359.144 19.1406 350.764C14.1545 348.166 10.118 344.673 7.03124 340.285C6.26799 338.666 5.87736 336.98 5.85936 335.226C5.72945 330.161 5.85966 325.102 6.24999 320.049C9.5503 326.234 14.6284 330.69 21.4844 333.419C39.974 340.646 58.4635 340.646 76.9531 333.419C83.8094 330.69 88.8875 326.234 92.1875 320.049C92.5781 325.584 92.7078 331.125 92.5781 336.671Z" fill="#10957D"/>
<path fill-rule="evenodd" clip-rule="evenodd" d="M393.359 317.881C394.05 326.052 394.31 334.243 394.141 342.453C393.493 337.523 393.102 332.464 392.969 327.276C386.767 337.564 377.262 343.466 364.453 344.982C346.535 348.555 329.869 345.905 314.453 337.033C311.057 334.621 308.583 331.609 307.031 327.999C306.641 333.534 306.511 339.075 306.641 344.621C305.863 336.319 305.603 327.887 305.859 319.326C307.55 321.004 308.852 322.932 309.766 325.108C311.493 330.209 314.879 334.184 319.922 337.033C340.336 346.337 360.648 346.096 380.859 336.31C385.808 333.529 388.933 329.554 390.234 324.385C391.523 322.249 392.565 320.081 393.359 317.881Z" fill="#F8D17E"/>
<path fill-rule="evenodd" clip-rule="evenodd" d="M390.234 324.385C388.933 329.554 385.808 333.529 380.859 336.31C360.648 346.096 340.336 346.337 319.922 337.033C314.879 334.184 311.493 330.209 309.766 325.108C311.69 326.525 313.513 328.091 315.234 329.805C333.859 339.844 353.39 341.531 373.828 334.864C380.441 332.78 385.909 329.287 390.234 324.385Z" fill="#547B8F"/>
<path fill-rule="evenodd" clip-rule="evenodd" d="M394.141 342.453C392.522 348.896 388.616 353.835 382.422 357.269C361.212 367.109 339.858 367.35 318.359 357.991C312.26 355.125 308.354 350.669 306.641 344.621C306.511 339.075 306.641 333.534 307.031 327.999C308.583 331.609 311.057 334.621 314.453 337.033C329.869 345.905 346.535 348.555 364.453 344.982C377.262 343.466 386.767 337.564 392.969 327.276C393.102 332.464 393.493 337.523 394.141 342.453Z" fill="#10957D"/>
<path fill-rule="evenodd" clip-rule="evenodd" d="M83.2031 333.78C89.2508 334.436 90.293 337.086 86.3281 341.73C82.9719 344.988 80.6281 344.507 79.2969 340.285C80.0016 337.774 81.3031 335.606 83.2031 333.78Z" fill="#ECE3E7"/>
<path fill-rule="evenodd" clip-rule="evenodd" d="M383.984 341.73C387.164 341.013 388.727 342.097 388.672 344.982C388.474 348.54 386.521 350.828 382.813 351.848C380.65 351.288 379.739 349.963 380.078 347.873C380.49 345.299 381.792 343.251 383.984 341.73Z" fill="#ECEAE8"/>
</svg>
