<svg width="64" height="64" viewBox="0 0 64 64" fill="none" xmlns="http://www.w3.org/2000/svg">
<rect width="64" height="64" fill="#1E1E1E"/>
<g id="Fix Mockup" clip-path="url(#clip0_0_1)">
<rect width="1440" height="8509" transform="translate(-693 -5705)" fill="white"/>
<g id="Section: Why Should Us?">
<g id="Features List" clip-path="url(#clip1_0_1)">
<g id="Row 1" clip-path="url(#clip2_0_1)">
<g id="2">
<g id="contract 2" clip-path="url(#clip3_0_1)">
<g id="Group">
<path id="Vector" opacity="0.996" fill-rule="evenodd" clip-rule="evenodd" d="M29.0625 -0.0625C30.9791 -0.0625 32.8959 -0.0625 34.8125 -0.0625C45.163 1.14223 53.2255 6.05889 59 14.6875C61.809 19.177 63.4548 24.052 63.9375 29.3125C63.9375 31.0625 63.9375 32.8125 63.9375 34.5625C62.4354 46.9157 56.102 55.8116 44.9375 61.25C41.5622 62.6979 38.0622 63.5938 34.4375 63.9375C32.7291 63.9375 31.0209 63.9375 29.3125 63.9375C16.7266 62.4062 7.74745 55.9062 2.375 44.4375C1.10799 41.3276 0.29549 38.1193 -0.0625 34.8125C-0.0625 32.8959 -0.0625 30.9791 -0.0625 29.0625C1.22741 18.2484 6.47741 9.97758 15.6875 4.25C19.8544 1.86784 24.3127 0.430336 29.0625 -0.0625Z" fill="#10957D"/>
</g>
<g id="Group_2">
<path id="Vector_2" fill-rule="evenodd" clip-rule="evenodd" d="M16.9375 16.0625C21.2709 16.0625 25.6041 16.0625 29.9375 16.0625C29.9166 19.4794 29.9375 22.8961 30 26.3125C30.1666 26.4791 30.3334 26.4791 30.5 26.3125C31.125 25.1459 31.75 23.9791 32.375 22.8125C32.5416 22.6459 32.7084 22.6459 32.875 22.8125C33.5 23.9791 34.125 25.1459 34.75 26.3125C34.9166 26.4791 35.0834 26.4791 35.25 26.3125C35.3125 22.8961 35.3334 19.4794 35.3125 16.0625C36.9421 15.7654 38.2963 16.2237 39.375 17.4375C39.4584 17.6041 39.5416 17.7709 39.625 17.9375C39.8303 21.4715 39.8719 25.0131 39.75 28.5625C37.4964 30.7744 35.288 33.0244 33.125 35.3125C32.3748 37.3756 31.6873 39.459 31.0625 41.5625C31.2638 42.536 31.847 42.9319 32.8125 42.75C34.6875 42.125 36.5625 41.5 38.4375 40.875C38.8725 40.5442 39.2893 40.1901 39.6875 39.8125C39.8333 41.6444 39.8541 43.4777 39.75 45.3125C39.426 46.678 38.5719 47.4905 37.1875 47.75C30.4791 47.8334 23.7709 47.8334 17.0625 47.75C15.3895 47.2172 14.5978 46.0714 14.6875 44.3125C16.0145 44.474 17.2645 44.2449 18.4375 43.625C19.9303 42.2762 20.2011 40.7137 19.25 38.9375C18.7385 38.2194 18.051 37.7402 17.1875 37.5C16.3553 37.4375 15.5219 37.4167 14.6875 37.4375C14.6875 36.7291 14.6875 36.0209 14.6875 35.3125C15.5219 35.3332 16.3553 35.3125 17.1875 35.25C18.8208 34.7574 19.6958 33.6532 19.8125 31.9375C19.6973 30.2266 18.8223 29.1225 17.1875 28.625C16.3553 28.5625 15.5219 28.5417 14.6875 28.5625C14.6875 27.8541 14.6875 27.1459 14.6875 26.4375C16.5338 26.8429 18.0545 26.3429 19.25 24.9375C20.201 23.1595 19.9303 21.597 18.4375 20.25C17.2645 19.6301 16.0145 19.401 14.6875 19.5625C14.6199 17.8632 15.3699 16.6966 16.9375 16.0625Z" fill="#F4F4F4"/>
</g>
<g id="Group_3">
<path id="Vector_3" fill-rule="evenodd" clip-rule="evenodd" d="M30.5625 16.0625C31.9375 16.0625 33.3125 16.0625 34.6875 16.0625C34.7084 18.6045 34.6875 21.1461 34.625 23.6875C34.3828 23.8575 34.1745 23.8159 34 23.5625C33.6628 22.718 33.2044 21.968 32.625 21.3125C32.4041 21.4175 32.2374 21.5841 32.125 21.8125C31.8334 22.3959 31.5416 22.9791 31.25 23.5625C31.0755 23.8159 30.8673 23.8575 30.625 23.6875C30.5625 21.1461 30.5416 18.6045 30.5625 16.0625Z" fill="#F1F3F3"/>
</g>
<g id="Group_4">
<path id="Vector_4" fill-rule="evenodd" clip-rule="evenodd" d="M11.8125 20.3125C13.563 20.2916 15.313 20.3125 17.0625 20.375C19.1419 21.2375 19.6626 22.675 18.625 24.6875C18.1744 25.2151 17.6119 25.5693 16.9375 25.75C15.2291 25.8334 13.5209 25.8334 11.8125 25.75C11.6623 25.6371 11.5582 25.4914 11.5 25.3125C11.4167 23.7709 11.4167 22.2291 11.5 20.6875C11.5872 20.5386 11.6914 20.4136 11.8125 20.3125Z" fill="#F3F4F4"/>
</g>
<g id="Group_5">
<path id="Vector_5" fill-rule="evenodd" clip-rule="evenodd" d="M47.9375 21.5626C48.5477 21.5242 49.1311 21.6283 49.6875 21.8751C50.6716 22.6507 51.5258 23.5466 52.25 24.5626C52.3533 25.1987 52.3115 25.8237 52.125 26.4376C51.7127 26.9751 51.2544 27.4751 50.75 27.9376C50.6666 27.7709 50.5834 27.6042 50.5 27.4376C49.0598 25.9973 47.6222 24.5598 46.1875 23.1251C46.6385 22.4443 47.2218 21.9234 47.9375 21.5626Z" fill="#F2F4F3"/>
</g>
<g id="Group_6">
<path id="Vector_6" fill-rule="evenodd" clip-rule="evenodd" d="M45.4375 23.8126C45.6091 23.7929 45.7759 23.8138 45.9375 23.8751C47.2916 25.2292 48.6459 26.5834 50 27.9376C50.0883 28.2464 50.0466 28.5382 49.875 28.8126C49 29.6876 48.125 30.5626 47.25 31.4376C45.6649 29.8733 44.1024 28.2899 42.5625 26.6876C43.4851 25.6816 44.4435 24.7232 45.4375 23.8126Z" fill="#F3F4F4"/>
</g>
<g id="Group_7">
<path id="Vector_7" fill-rule="evenodd" clip-rule="evenodd" d="M41.8125 27.3125C41.944 27.2939 42.069 27.3146 42.1875 27.375C42.8125 28 43.4375 28.625 44.0625 29.25C42.4149 30.9184 40.7483 32.5643 39.0625 34.1875C38.3541 33.5625 37.6875 32.8959 37.0625 32.1875C38.6485 30.5599 40.2319 28.9349 41.8125 27.3125Z" fill="#F1F3F3"/>
</g>
<g id="Group_8">
<path id="Vector_8" fill-rule="evenodd" clip-rule="evenodd" d="M22.1875 28.8125C26.646 28.7916 31.1044 28.8125 35.5625 28.875C35.7291 29.0416 35.7291 29.2084 35.5625 29.375C31.1041 29.4584 26.6459 29.4584 22.1875 29.375C22.034 29.1888 22.034 29.0013 22.1875 28.8125Z" fill="#00AB94"/>
</g>
<g id="Group_9">
<path id="Vector_9" fill-rule="evenodd" clip-rule="evenodd" d="M11.8125 29.1875C13.5214 29.1666 15.2296 29.1875 16.9375 29.25C18.4828 29.6965 19.2119 30.7174 19.125 32.3125C18.8768 33.4773 18.1893 34.2481 17.0625 34.625C15.3125 34.7084 13.5625 34.7084 11.8125 34.625C11.7083 34.5209 11.6042 34.4166 11.5 34.3125C11.4167 32.7291 11.4167 31.1459 11.5 29.5625C11.6306 29.4534 11.7348 29.3284 11.8125 29.1875Z" fill="#F3F4F4"/>
</g>
<g id="Group_10">
<path id="Vector_10" fill-rule="evenodd" clip-rule="evenodd" d="M44.4375 29.8125C45.2613 30.4274 46.0113 31.1358 46.6875 31.9375C45.1041 33.6041 43.4791 35.2291 41.8125 36.8125C41.0625 36.1459 40.3541 35.4375 39.6875 34.6875C41.2735 33.0599 42.8569 31.4349 44.4375 29.8125Z" fill="#F3F4F4"/>
</g>
<g id="Group_11">
<path id="Vector_11" fill-rule="evenodd" clip-rule="evenodd" d="M22.1875 32.1875C24.6459 32.1875 27.1041 32.1875 29.5625 32.1875C29.5893 32.393 29.5475 32.5805 29.4375 32.75C27.0209 32.8334 24.6041 32.8334 22.1875 32.75C22.034 32.5637 22.034 32.3762 22.1875 32.1875Z" fill="#02AB94"/>
</g>
<g id="Group_12">
<path id="Vector_12" fill-rule="evenodd" clip-rule="evenodd" d="M36.5625 32.6875C38.1623 34.2248 39.7456 35.7873 41.3125 37.375C40.7065 38.0019 40.0815 38.606 39.4375 39.1875C37.9375 37.6041 36.3959 36.0625 34.8125 34.5625C35.3985 33.935 35.9819 33.31 36.5625 32.6875Z" fill="#F2F4F4"/>
</g>
<g id="Group_13">
<path id="Vector_13" fill-rule="evenodd" clip-rule="evenodd" d="M34.0625 35.1875C34.3319 35.1715 34.5819 35.234 34.8125 35.375C36.0416 36.6041 37.2709 37.8334 38.5 39.0625C38.8215 39.5828 38.7173 39.9785 38.1875 40.25C36.4198 40.8638 34.6489 41.468 32.875 42.0625C31.9716 42.3259 31.6384 41.9925 31.875 41.0625C32.4584 39.3125 33.0416 37.5625 33.625 35.8125C33.7121 35.552 33.858 35.3436 34.0625 35.1875Z" fill="#F2F4F4"/>
</g>
<g id="Group_14">
<path id="Vector_14" fill-rule="evenodd" clip-rule="evenodd" d="M23.3125 35.9375C23.4778 35.9163 23.6236 35.9579 23.75 36.0625C23.7724 36.4441 23.8349 36.8191 23.9375 37.1875C24.8833 37.5179 25.2583 38.1636 25.0625 39.125C24.9375 39.2084 24.8125 39.2084 24.6875 39.125C24.496 38.0089 23.871 37.6339 22.8125 38C22.238 38.7608 22.363 39.3858 23.1875 39.875C24.9423 40.0313 25.5048 40.9271 24.875 42.5625C24.6214 42.9495 24.2673 43.1578 23.8125 43.1875C23.8331 43.5648 23.8123 43.9398 23.75 44.3125C23.5805 44.4225 23.393 44.4643 23.1875 44.4375C23.2081 44.0603 23.1873 43.6853 23.125 43.3125C22.2034 42.955 21.7659 42.2884 21.8125 41.3125C21.9841 41.2929 22.1509 41.3138 22.3125 41.375C22.4466 42.338 22.9883 42.713 23.9375 42.5C24.7663 41.8871 24.7663 41.2621 23.9375 40.625C22.2104 40.4839 21.5645 39.588 22 37.9375C22.2871 37.5025 22.683 37.2525 23.1875 37.1875C23.1566 36.7576 23.1983 36.341 23.3125 35.9375Z" fill="#19AE98"/>
</g>
<g id="Group_15">
<path id="Vector_15" fill-rule="evenodd" clip-rule="evenodd" d="M11.8125 38.0625C13.5214 38.0416 15.2296 38.0625 16.9375 38.125C18.9634 38.9059 19.5675 40.3018 18.75 42.3125C18.3294 42.8983 17.7669 43.2941 17.0625 43.5C15.2653 43.602 13.4735 43.5811 11.6875 43.4375C11.601 43.3719 11.5385 43.2885 11.5 43.1875C11.4167 41.6041 11.4167 40.0209 11.5 38.4375C11.6306 38.3284 11.7348 38.2034 11.8125 38.0625Z" fill="#F3F4F4"/>
</g>
</g>
</g>
</g>
</g>
</g>
</g>
<defs>
<clipPath id="clip0_0_1">
<rect width="1440" height="8509" fill="white" transform="translate(-693 -5705)"/>
</clipPath>
<clipPath id="clip1_0_1">
<rect width="1110" height="450" fill="white" transform="translate(-523)"/>
</clipPath>
<clipPath id="clip2_0_1">
<rect width="1110" height="180" fill="white" transform="translate(-523)"/>
</clipPath>
<clipPath id="clip3_0_1">
<rect width="64" height="64" fill="white"/>
</clipPath>
</defs>
</svg>
