<svg width="64" height="64" viewBox="0 0 64 64" fill="none" xmlns="http://www.w3.org/2000/svg">
<g clip-path="url(#clip0_1_470)">
<path opacity="0.994" fill-rule="evenodd" clip-rule="evenodd" d="M29.0625 -0.0625C30.9791 -0.0625 32.8959 -0.0625 34.8125 -0.0625C46.018 1.29849 54.4555 6.84016 60.125 16.5625C62.2119 20.4964 63.4826 24.663 63.9375 29.0625C63.9375 30.9791 63.9375 32.8959 63.9375 34.8125C62.5765 46.018 57.0349 54.4555 47.3125 60.125C43.3786 62.2119 39.212 63.4826 34.8125 63.9375C32.8959 63.9375 30.9791 63.9375 29.0625 63.9375C17.857 62.5765 9.41953 57.0349 3.75 47.3125C1.66316 43.3786 0.392325 39.212 -0.0625 34.8125C-0.0625 32.8959 -0.0625 30.9791 -0.0625 29.0625C1.29844 17.8571 6.8401 9.41966 16.5625 3.75C20.4964 1.66316 24.663 0.392325 29.0625 -0.0625ZM28.3125 12.3125C30.7295 12.2917 33.1463 12.3125 35.5625 12.375C35.7311 12.4715 35.8353 12.6174 35.875 12.8125C36.1903 14.1609 36.5444 15.4941 36.9375 16.8125C37.6883 17.1044 38.4383 17.396 39.1875 17.6875C40.495 16.971 41.7866 16.221 43.0625 15.4375C44.8524 17.1649 46.6232 18.9149 48.375 20.6875C48.4144 20.8635 48.3727 21.0301 48.25 21.1875C47.529 22.3382 46.8415 23.505 46.1875 24.6875C46.479 25.4368 46.7706 26.1868 47.0625 26.9375C48.381 27.3298 49.7144 27.6839 51.0625 28C51.2576 28.0397 51.4035 28.1439 51.5 28.3125C51.5834 30.7291 51.5834 33.1459 51.5 35.5625C51.4035 35.7311 51.2576 35.8353 51.0625 35.875C49.7365 36.2274 48.4031 36.5399 47.0625 36.8125C46.8078 37.6144 46.5161 38.4061 46.1875 39.1875C46.8415 40.37 47.529 41.5368 48.25 42.6875C48.3727 42.8449 48.4144 43.0115 48.375 43.1875C46.6232 44.9601 44.8524 46.7101 43.0625 48.4375C41.7866 47.654 40.495 46.904 39.1875 46.1875C38.4061 46.5161 37.6144 46.8078 36.8125 47.0625C36.5349 48.5479 36.1599 50.0062 35.6875 51.4375C33.1875 51.6041 30.6875 51.6041 28.1875 51.4375C27.7151 50.0062 27.3401 48.5479 27.0625 47.0625C26.2606 46.8078 25.4689 46.5161 24.6875 46.1875C23.38 46.904 22.0884 47.654 20.8125 48.4375C19.0226 46.7101 17.2518 44.9601 15.5 43.1875C15.4606 43.0115 15.5022 42.8449 15.625 42.6875C16.2916 41.6041 16.9584 40.5209 17.625 39.4375C17.7084 39.2709 17.7084 39.1041 17.625 38.9375C17.3199 38.203 16.9866 37.4946 16.625 36.8125C15.2074 36.505 13.8115 36.13 12.4375 35.6875C12.2708 33.1875 12.2708 30.6875 12.4375 28.1875C13.8115 27.745 15.2074 27.37 16.625 27.0625C16.9866 26.3804 17.3199 25.672 17.625 24.9375C17.7084 24.7709 17.7084 24.6041 17.625 24.4375C16.9584 23.3541 16.2916 22.2709 15.625 21.1875C15.5022 21.0301 15.4606 20.8635 15.5 20.6875C17.2518 18.9149 19.0226 17.1649 20.8125 15.4375C22.0884 16.221 23.38 16.971 24.6875 17.6875C25.4689 17.3589 26.2606 17.0672 27.0625 16.8125C27.3351 15.4719 27.6476 14.1385 28 12.8125C28.06 12.6084 28.1641 12.4417 28.3125 12.3125ZM31.3125 24.0625C36.3916 24.2668 39.225 26.8918 39.8125 31.9375C39.6124 35.2985 38.0081 37.7152 35 39.1875C34.9375 37.8549 34.9166 36.5215 34.9375 35.1875C36.1465 35.2082 37.3549 35.1875 38.5625 35.125C38.6787 34.9757 38.7621 34.8091 38.8125 34.625C36.7659 31.8867 34.7034 29.1576 32.625 26.4375C32.1666 25.7709 31.7084 25.7709 31.25 26.4375C29.1716 29.1576 27.1091 31.8867 25.0625 34.625C25.1129 34.8091 25.1963 34.9757 25.3125 35.125C26.5201 35.1875 27.7285 35.2082 28.9375 35.1875C28.9584 36.5215 28.9375 37.8549 28.875 39.1875C25.2939 37.3589 23.7521 34.4422 24.25 30.4375C25.2092 26.7484 27.5634 24.6234 31.3125 24.0625ZM31.8125 27.4375C31.937 27.4268 32.0411 27.4685 32.125 27.5625C33.7974 29.7612 35.4849 31.9487 37.1875 34.125C36.1459 34.1666 35.1041 34.2084 34.0625 34.25C34 34.3125 33.9375 34.375 33.875 34.4375C33.8125 36.1454 33.7916 37.8536 33.8125 39.5625C32.5625 39.8959 31.3125 39.8959 30.0625 39.5625C30.1206 37.8003 30.0581 36.0503 29.875 34.3125C28.8223 34.2103 27.7598 34.1478 26.6875 34.125C28.4228 31.9113 30.1311 29.6821 31.8125 27.4375Z" fill="#10957D"/>
<path opacity="0.987" fill-rule="evenodd" clip-rule="evenodd" d="M28.6875 13.0625C30.8541 13.0625 33.0209 13.0625 35.1875 13.0625C35.4797 14.44 35.7922 15.815 36.125 17.1875C37.1244 17.6809 38.1453 18.1392 39.1875 18.5625C40.4 17.9544 41.5667 17.2669 42.6875 16.5C42.8541 16.4166 43.0209 16.4166 43.1875 16.5C44.5834 17.8959 45.9791 19.2916 47.375 20.6875C47.4584 20.8541 47.4584 21.0209 47.375 21.1875C46.6081 22.3083 45.9206 23.475 45.3125 24.6875C45.7357 25.7297 46.1941 26.7506 46.6875 27.75C48.06 28.0828 49.435 28.3953 50.8125 28.6875C50.8125 30.8541 50.8125 33.0209 50.8125 35.1875C49.472 35.4601 48.1387 35.7726 46.8125 36.125C46.5834 36.1875 46.4375 36.3334 46.375 36.5625C46.0817 37.4632 45.7276 38.3382 45.3125 39.1875C45.9206 40.4 46.6081 41.5667 47.375 42.6875C47.4584 42.8541 47.4584 43.0209 47.375 43.1875C45.9791 44.5834 44.5834 45.9791 43.1875 47.375C43.0209 47.4584 42.8541 47.4584 42.6875 47.375C41.5667 46.6081 40.4 45.9206 39.1875 45.3125C38.245 45.7448 37.2866 46.1406 36.3125 46.5C35.8307 47.9061 35.4557 49.3436 35.1875 50.8125C33.0209 50.8125 30.8541 50.8125 28.6875 50.8125C28.4149 49.472 28.1024 48.1387 27.75 46.8125C27.6875 46.5834 27.5416 46.4375 27.3125 46.375C26.4117 46.0817 25.5367 45.7276 24.6875 45.3125C23.475 45.9206 22.3083 46.6081 21.1875 47.375C21.0209 47.4584 20.8541 47.4584 20.6875 47.375C19.2916 45.9791 17.8959 44.5834 16.5 43.1875C16.4166 43.0209 16.4166 42.8541 16.5 42.6875C17.2669 41.5667 17.9544 40.4 18.5625 39.1875C18.1302 38.245 17.7344 37.2866 17.375 36.3125C15.9689 35.8307 14.5314 35.4557 13.0625 35.1875C13.0625 33.0209 13.0625 30.8541 13.0625 28.6875C14.44 28.3953 15.815 28.0828 17.1875 27.75C17.6809 26.7506 18.1392 25.7297 18.5625 24.6875C17.9544 23.475 17.2669 22.3083 16.5 21.1875C16.4166 21.0209 16.4166 20.8541 16.5 20.6875C17.8959 19.2916 19.2916 17.8959 20.6875 16.5C20.8541 16.4166 21.0209 16.4166 21.1875 16.5C22.3083 17.2669 23.475 17.9544 24.6875 18.5625C25.63 18.1302 26.5884 17.7344 27.5625 17.375C28.0443 15.9689 28.4193 14.5314 28.6875 13.0625ZM31.3125 24.0625C27.5634 24.6234 25.2092 26.7484 24.25 30.4375C23.7521 34.4422 25.2939 37.3589 28.875 39.1875C28.9375 37.8549 28.9584 36.5215 28.9375 35.1875C27.7285 35.2083 26.5201 35.1875 25.3125 35.125C25.1962 34.9757 25.1129 34.8091 25.0625 34.625C27.1091 31.8867 29.1716 29.1576 31.25 26.4375C31.7084 25.7709 32.1666 25.7709 32.625 26.4375C34.7034 29.1576 36.7659 31.8867 38.8125 34.625C38.7621 34.8091 38.6787 34.9757 38.5625 35.125C37.3549 35.1875 36.1465 35.2083 34.9375 35.1875C34.9166 36.5215 34.9375 37.8549 35 39.1875C38.0081 37.7153 39.6124 35.2985 39.8125 31.9375C39.225 26.8918 36.3916 24.2668 31.3125 24.0625ZM31.8125 27.4375C30.1311 29.6821 28.4228 31.9113 26.6875 34.125C27.7598 34.1478 28.8223 34.2103 29.875 34.3125C30.0581 36.0503 30.1206 37.8003 30.0625 39.5625C31.3125 39.8959 32.5625 39.8959 33.8125 39.5625C33.7916 37.8536 33.8125 36.1454 33.875 34.4375C33.9375 34.375 34 34.3125 34.0625 34.25C35.1041 34.2084 36.1459 34.1666 37.1875 34.125C35.4849 31.9487 33.7974 29.7612 32.125 27.5625C32.0411 27.4685 31.937 27.4268 31.8125 27.4375Z" fill="#F3F4F4"/>
</g>
<defs>
<clipPath id="clip0_1_470">
<rect width="64" height="64" fill="white"/>
</clipPath>
</defs>
</svg>
