<svg width="196" height="62" viewBox="0 0 196 62" fill="none" xmlns="http://www.w3.org/2000/svg">
<rect width="196" height="62" rx="8" fill="#10957D"/>
<path d="M56.7016 39V24.6H59.1116V36.74H65.4716V39H56.7016ZM72.0756 39.3C70.9823 39.3 70.0223 39.0633 69.1956 38.59C68.369 38.1167 67.7223 37.46 67.2556 36.62C66.7956 35.78 66.5656 34.8133 66.5656 33.72C66.5656 32.54 66.7923 31.5167 67.2456 30.65C67.699 29.7767 68.329 29.1 69.1356 28.62C69.9423 28.14 70.8756 27.9 71.9356 27.9C73.0556 27.9 74.0056 28.1633 74.7856 28.69C75.5723 29.21 76.1556 29.9467 76.5356 30.9C76.9156 31.8533 77.059 32.9767 76.9656 34.27H74.5756V33.39C74.569 32.2167 74.3623 31.36 73.9556 30.82C73.549 30.28 72.909 30.01 72.0356 30.01C71.049 30.01 70.3156 30.3167 69.8356 30.93C69.3556 31.5367 69.1156 32.4267 69.1156 33.6C69.1156 34.6933 69.3556 35.54 69.8356 36.14C70.3156 36.74 71.0156 37.04 71.9356 37.04C72.529 37.04 73.039 36.91 73.4656 36.65C73.899 36.3833 74.2323 36 74.4656 35.5L76.8456 36.22C76.4323 37.1933 75.7923 37.95 74.9256 38.49C74.0656 39.03 73.1156 39.3 72.0756 39.3ZM68.3556 34.27V32.45H75.7856V34.27H68.3556ZM85.5269 39C84.8135 39.1333 84.1135 39.19 83.4269 39.17C82.7469 39.1567 82.1369 39.0333 81.5969 38.8C81.0569 38.56 80.6469 38.1833 80.3669 37.67C80.1202 37.2033 79.9902 36.7267 79.9769 36.24C79.9635 35.7533 79.9569 35.2033 79.9569 34.59V25.2H82.3569V34.45C82.3569 34.8833 82.3602 35.2633 82.3669 35.59C82.3802 35.9167 82.4502 36.1833 82.5769 36.39C82.8169 36.79 83.2002 37.0133 83.7269 37.06C84.2535 37.1067 84.8535 37.08 85.5269 36.98V39ZM77.9969 30.09V28.2H85.5269V30.09H77.9969ZM88.1492 29.72L88.2892 28.68C88.5959 28.7067 88.8392 28.6567 89.0192 28.53C89.1992 28.3967 89.3192 28.2133 89.3792 27.98C89.4459 27.74 89.4626 27.47 89.4292 27.17H88.1492V24.6H90.6192V27.27C90.6192 28.1433 90.4126 28.8033 89.9992 29.25C89.5859 29.6967 88.9692 29.8533 88.1492 29.72ZM96.1013 39.3C94.7679 39.3 93.6846 39 92.8513 38.4C92.0179 37.8 91.5113 36.9567 91.3313 35.87L93.7913 35.49C93.9179 36.0233 94.1979 36.4433 94.6313 36.75C95.0646 37.0567 95.6113 37.21 96.2713 37.21C96.8513 37.21 97.2979 37.0967 97.6113 36.87C97.9313 36.6367 98.0913 36.32 98.0913 35.92C98.0913 35.6733 98.0313 35.4767 97.9113 35.33C97.7979 35.1767 97.5446 35.03 97.1513 34.89C96.7579 34.75 96.1546 34.5733 95.3413 34.36C94.4346 34.12 93.7146 33.8633 93.1813 33.59C92.6479 33.31 92.2646 32.98 92.0313 32.6C91.7979 32.22 91.6813 31.76 91.6813 31.22C91.6813 30.5467 91.8579 29.96 92.2113 29.46C92.5646 28.96 93.0579 28.5767 93.6913 28.31C94.3246 28.0367 95.0713 27.9 95.9313 27.9C96.7713 27.9 97.5146 28.03 98.1613 28.29C98.8146 28.55 99.3413 28.92 99.7413 29.4C100.141 29.88 100.388 30.4433 100.481 31.09L98.0213 31.53C97.9613 31.07 97.7513 30.7067 97.3913 30.44C97.0379 30.1733 96.5646 30.0233 95.9713 29.99C95.4046 29.9567 94.9479 30.0433 94.6013 30.25C94.2546 30.45 94.0813 30.7333 94.0813 31.1C94.0813 31.3067 94.1513 31.4833 94.2913 31.63C94.4313 31.7767 94.7113 31.9233 95.1313 32.07C95.5579 32.2167 96.1913 32.3967 97.0313 32.61C97.8913 32.83 98.5779 33.0833 99.0913 33.37C99.6113 33.65 99.9846 33.9867 100.211 34.38C100.445 34.7733 100.561 35.25 100.561 35.81C100.561 36.8967 100.165 37.75 99.3713 38.37C98.5846 38.99 97.4946 39.3 96.1013 39.3ZM113.085 39C112.372 39.1333 111.672 39.19 110.985 39.17C110.305 39.1567 109.695 39.0333 109.155 38.8C108.615 38.56 108.205 38.1833 107.925 37.67C107.679 37.2033 107.549 36.7267 107.535 36.24C107.522 35.7533 107.515 35.2033 107.515 34.59V25.2H109.915V34.45C109.915 34.8833 109.919 35.2633 109.925 35.59C109.939 35.9167 110.009 36.1833 110.135 36.39C110.375 36.79 110.759 37.0133 111.285 37.06C111.812 37.1067 112.412 37.08 113.085 36.98V39ZM105.555 30.09V28.2H113.085V30.09H105.555ZM118.428 39.3C117.648 39.3 116.988 39.1533 116.448 38.86C115.908 38.56 115.498 38.1633 115.218 37.67C114.944 37.1767 114.808 36.6333 114.808 36.04C114.808 35.52 114.894 35.0533 115.068 34.64C115.241 34.22 115.508 33.86 115.868 33.56C116.228 33.2533 116.694 33.0033 117.268 32.81C117.701 32.67 118.208 32.5433 118.788 32.43C119.374 32.3167 120.008 32.2133 120.688 32.12C121.374 32.02 122.091 31.9133 122.838 31.8L121.978 32.29C121.984 31.5433 121.818 30.9933 121.478 30.64C121.138 30.2867 120.564 30.11 119.758 30.11C119.271 30.11 118.801 30.2233 118.348 30.45C117.894 30.6767 117.578 31.0667 117.398 31.62L115.198 30.93C115.464 30.0167 115.971 29.2833 116.718 28.73C117.471 28.1767 118.484 27.9 119.758 27.9C120.718 27.9 121.561 28.0567 122.288 28.37C123.021 28.6833 123.564 29.1967 123.918 29.91C124.111 30.29 124.228 30.68 124.268 31.08C124.308 31.4733 124.328 31.9033 124.328 32.37V39H122.218V36.66L122.568 37.04C122.081 37.82 121.511 38.3933 120.858 38.76C120.211 39.12 119.401 39.3 118.428 39.3ZM118.908 37.38C119.454 37.38 119.921 37.2833 120.308 37.09C120.694 36.8967 121.001 36.66 121.228 36.38C121.461 36.1 121.618 35.8367 121.698 35.59C121.824 35.2833 121.894 34.9333 121.908 34.54C121.928 34.14 121.938 33.8167 121.938 33.57L122.678 33.79C121.951 33.9033 121.328 34.0033 120.808 34.09C120.288 34.1767 119.841 34.26 119.468 34.34C119.094 34.4133 118.764 34.4967 118.478 34.59C118.198 34.69 117.961 34.8067 117.768 34.94C117.574 35.0733 117.424 35.2267 117.318 35.4C117.218 35.5733 117.168 35.7767 117.168 36.01C117.168 36.2767 117.234 36.5133 117.368 36.72C117.501 36.92 117.694 37.08 117.948 37.2C118.208 37.32 118.528 37.38 118.908 37.38ZM127.131 39V24.3H129.541V39H127.131ZM132.517 39L132.537 24.6H134.977V33.4L138.927 28.2H141.937L137.747 33.6L142.297 39H139.107L134.977 33.8V39H132.517Z" fill="#F4F5F7"/>
</svg>
