<svg width="64" height="64" viewBox="0 0 64 64" fill="none" xmlns="http://www.w3.org/2000/svg">
<g clip-path="url(#clip0_1_422)">
<path opacity="0.986" fill-rule="evenodd" clip-rule="evenodd" d="M62.4375 -0.0625C62.7709 -0.0625 63.1041 -0.0625 63.4375 -0.0625C63.6459 0.0625 63.8125 0.229166 63.9375 0.4375C63.9375 0.770834 63.9375 1.10417 63.9375 1.4375C62.0659 3.39245 60.1493 5.30912 58.1875 7.1875C56.7291 8.5625 55.3125 9.97916 53.9375 11.4375C52.6875 12.6041 51.4791 13.8125 50.3125 15.0625C49.4629 15.9748 48.5879 16.8706 47.6875 17.75C46.682 18.2171 46.057 17.9255 45.8125 16.875C45.9161 16.648 46.0204 16.4189 46.125 16.1875C47.0044 15.2871 47.9002 14.4121 48.8125 13.5625C50.5209 11.9375 52.1875 10.2708 53.8125 8.5625C54.8125 7.64584 55.7709 6.6875 56.6875 5.6875C58.5659 3.72579 60.4825 1.80912 62.4375 -0.0625Z" fill="#10957D" fill-opacity="0.77"/>
<path opacity="0.999" fill-rule="evenodd" clip-rule="evenodd" d="M49.5625 4.9375C51.6678 5.33409 53.0844 6.54243 53.8125 8.5625C52.1875 10.2708 50.5209 11.9375 48.8125 13.5625C46.9712 12.6758 45.3254 12.9674 43.875 14.4375C42.7584 16.1774 42.8 17.8858 44 19.5625C45.5214 20.9499 47.2089 21.1791 49.0625 20.25C50.8666 18.846 51.2834 17.1169 50.3125 15.0625C51.4791 13.8125 52.6875 12.6041 53.9375 11.4375C53.9584 17.9376 53.9375 24.4376 53.875 30.9375C53.75 31.6874 53.5 32.3958 53.125 33.0625C43.1208 43.2126 33.0583 53.296 22.9375 63.3125C15.5702 56.1329 8.2578 48.8829 1 41.5625C0.543 40.9396 0.188832 40.273 -0.0625 39.5625C-0.0625 38.8125 -0.0625 38.0625 -0.0625 37.3125C0.188832 36.602 0.543 35.9354 1 35.3125C10.7292 25.5834 20.4584 15.8541 30.1875 6.125C30.8341 5.55166 31.5841 5.17666 32.4375 5C38.1456 4.9375 43.854 4.91666 49.5625 4.9375ZM48.8125 13.5625C47.9002 14.4121 47.0044 15.2871 46.125 16.1875C46.0204 16.4189 45.9161 16.648 45.8125 16.875C46.057 17.9255 46.682 18.2171 47.6875 17.75C48.5879 16.8706 49.4629 15.9748 50.3125 15.0625C51.2834 17.1169 50.8666 18.846 49.0625 20.25C47.2089 21.1791 45.5214 20.9499 44 19.5625C42.8 17.8858 42.7584 16.1774 43.875 14.4375C45.3254 12.9674 46.9712 12.6758 48.8125 13.5625Z" fill="#10957D"/>
<path fill-rule="evenodd" clip-rule="evenodd" d="M49.5625 4.93749C51.3963 4.91667 53.2296 4.93751 55.0625 4.99999C55.6669 5.09678 56.2085 5.32594 56.6875 5.68749C55.7709 6.68749 54.8125 7.64583 53.8125 8.56249C53.0844 6.54242 51.6677 5.33408 49.5625 4.93749Z" fill="#1F9297"/>
<path fill-rule="evenodd" clip-rule="evenodd" d="M58.1875 7.1875C58.549 7.66649 58.7783 8.20816 58.875 8.8125C58.9584 16.3541 58.9584 23.8959 58.875 31.4375C58.6984 32.2909 58.3234 33.0409 57.75 33.6875C48.0209 43.4166 38.2916 53.1459 28.5625 62.875C27.9396 63.332 27.273 63.6861 26.5625 63.9375C25.8125 63.9375 25.0625 63.9375 24.3125 63.9375C23.8528 63.7554 23.3944 63.5471 22.9375 63.3125C33.0583 53.296 43.1208 43.2126 53.125 33.0625C53.5 32.3958 53.75 31.6874 53.875 30.9375C53.9375 24.4376 53.9584 17.9376 53.9375 11.4375C55.3125 9.97916 56.7291 8.5625 58.1875 7.1875Z" fill="#10957D"/>
</g>
<defs>
<clipPath id="clip0_1_422">
<rect width="64" height="64" fill="white"/>
</clipPath>
</defs>
</svg>
