<svg width="64" height="64" viewBox="0 0 64 64" fill="none" xmlns="http://www.w3.org/2000/svg">
<path opacity="0.972" fill-rule="evenodd" clip-rule="evenodd" d="M50.6875 5.0625C51.1208 6.57844 51.5165 8.1201 51.875 9.6875C52.0214 9.86165 52.2089 9.96581 52.4375 10C53.8649 10.3152 55.2815 10.6693 56.6875 11.0625C55.3768 12.4357 54.0435 13.7899 52.6875 15.125C51.4099 14.9989 50.139 14.8114 48.875 14.5625C48.7416 14.6489 48.5958 14.7114 48.4375 14.75C42.8959 20.2916 37.3541 25.8334 31.8125 31.375C31.1579 31.6719 30.4912 31.8176 29.8125 31.8125C30.0124 31.1919 30.1999 30.5669 30.375 29.9375C35.9166 24.3959 41.4584 18.8541 47 13.3125C47.0798 13.1739 47.1423 13.0281 47.1875 12.875C47.0019 11.6581 46.7935 10.4498 46.5625 9.25C47.9627 7.87064 49.3377 6.4748 50.6875 5.0625Z" fill="#10957D"/>
<path opacity="0.988" fill-rule="evenodd" clip-rule="evenodd" d="M28.9375 10.3125C34.3147 10.3752 39.0647 12.1043 43.1875 15.5C42.1667 16.6875 41.0625 17.7916 39.875 18.8125C33.3755 14.2415 26.6464 13.8874 19.6875 17.75C13.0548 22.3092 10.409 28.5801 11.75 36.5625C13.3012 42.7384 17.0303 47.0093 22.9375 49.375C30.5562 51.7235 37.077 49.9943 42.5 44.1875C47.3703 37.7757 47.9535 30.9841 44.25 23.8125C43.8125 23.1875 43.375 22.5625 42.9375 21.9375C44.002 20.8523 45.0438 19.748 46.0625 18.625C46.2044 18.5314 46.3294 18.5521 46.4375 18.6875C51.547 25.4738 52.6929 32.8905 49.875 40.9375C45.8648 49.9664 38.9064 54.7164 29 55.1875C19.3918 54.7402 12.5168 50.1986 8.37504 41.5625C5.10421 32.8124 6.43755 24.854 12.375 17.6875C16.8708 12.9292 22.3917 10.4709 28.9375 10.3125Z" fill="#10957D"/>
<path opacity="0.988" fill-rule="evenodd" clip-rule="evenodd" d="M27.9375 16.1875C32.0921 16.0033 35.8004 17.1699 39.0625 19.6875C37.981 20.8315 36.8767 21.9565 35.75 23.0625C30.7804 20.0412 25.9679 20.2704 21.3125 23.75C16.8809 28.1029 16.0266 33.0822 18.75 38.6875C22.2439 43.8803 27.0146 45.6094 33.0625 43.875C38.373 41.5613 40.9355 37.4988 40.75 31.6875C40.5575 29.6098 39.87 27.714 38.6875 26C39.7935 24.8733 40.9185 23.769 42.0625 22.6875C44.1254 25.2692 45.2712 28.2275 45.5 31.5625C45.6824 39.0555 42.4531 44.493 35.8125 47.875C29.3012 50.4354 23.3429 49.5188 17.9375 45.125C12.6491 39.8522 11.2116 33.6647 13.625 26.5625C15.6929 21.6848 19.2554 18.4557 24.3125 16.875C25.5234 16.5625 26.7317 16.3333 27.9375 16.1875Z" fill="#10957D"/>
<path opacity="0.988" fill-rule="evenodd" clip-rule="evenodd" d="M27.8125 22.0626C29.7605 21.9509 31.6355 22.2634 33.4375 23.0001C33.963 23.1996 34.4214 23.4912 34.8125 23.8751C33.7535 25.0799 32.6285 26.2257 31.4375 27.3126C28.7203 26.3017 26.366 26.8434 24.375 28.9376C22.7776 31.2327 22.6526 33.6077 24 36.0626C25.6889 38.3332 27.9181 39.1457 30.6875 38.5001C33.7169 37.3023 35.1126 35.0731 34.875 31.8126C34.7924 31.2941 34.6466 30.7941 34.4375 30.3126C35.4983 29.1893 36.5815 28.0852 37.6875 27.0001C37.8294 26.9064 37.9544 26.9272 38.0625 27.0626C39.9045 30.2201 40.1753 33.5117 38.875 36.9376C36.5743 41.6203 32.8035 43.7662 27.5625 43.3751C22.3599 42.3807 19.2974 39.2766 18.375 34.0626C18.0239 29.4943 19.753 25.9734 23.5625 23.5001C24.9141 22.7787 26.3308 22.2996 27.8125 22.0626Z" fill="#10957D"/>
<path opacity="0.984" fill-rule="evenodd" clip-rule="evenodd" d="M28.1875 27.9374C28.7307 27.9167 29.2724 27.9376 29.8125 27.9999C30.0894 28.0212 30.3394 28.1046 30.5625 28.2499C30.1666 28.6458 29.7709 29.0416 29.375 29.4374C29.0527 30.5388 28.7402 31.6429 28.4375 32.7499C28.5741 33.2757 28.9075 33.4423 29.4375 33.2499C30.3541 32.9999 31.2709 32.7499 32.1875 32.4999C32.6642 32.1274 33.1226 31.7317 33.5625 31.3124C34.2709 33.9994 33.3959 35.9786 30.9375 37.2499C28.35 38.1097 26.2875 37.4222 24.75 35.1874C23.602 32.5498 24.1645 30.3623 26.4375 28.6249C27.0199 28.3552 27.6031 28.1261 28.1875 27.9374Z" fill="#10957D"/>
<path opacity="0.986" fill-rule="evenodd" clip-rule="evenodd" d="M14.1875 51.1875C15.5389 52.0928 16.9139 52.9678 18.3125 53.8125C17.3038 55.6741 16.2205 57.4866 15.0625 59.25C13.6163 59.4529 12.158 59.4946 10.6875 59.375C10.5087 59.3169 10.3628 59.2126 10.25 59.0625C10.1667 58.7291 10.1667 58.3959 10.25 58.0625C11.6287 55.8047 12.9411 53.513 14.1875 51.1875Z" fill="#10957D"/>
<path opacity="0.986" fill-rule="evenodd" clip-rule="evenodd" d="M43.5625 51.1874C43.687 51.1767 43.7911 51.2184 43.875 51.3124C45.1666 53.5624 46.4584 55.8124 47.75 58.0624C47.8755 58.4991 47.813 58.8948 47.5625 59.2499C46.0209 59.3333 44.4791 59.3333 42.9375 59.2499C41.8384 57.4478 40.7551 55.6353 39.6875 53.8124C41.0476 53.0289 42.3393 52.1539 43.5625 51.1874Z" fill="#10957D"/>
</svg>
