<svg width="28" height="3" viewBox="0 0 28 3" fill="none" xmlns="http://www.w3.org/2000/svg">
<path d="M0.382812 2.82467V0.187257H2.01128V0.452768H0.666023V1.36967H1.90507V1.63518H0.666023V2.82467H0.382812ZM3.22031 2.86715C3.04097 2.86715 2.87812 2.82467 2.73177 2.7397C2.58545 2.65237 2.46863 2.53437 2.38129 2.38569C2.29633 2.23463 2.25385 2.06353 2.25385 1.87237C2.25385 1.68357 2.29633 1.51481 2.38129 1.36613C2.46626 1.21744 2.58075 1.10061 2.72469 1.01565C2.87104 0.928316 3.03622 0.884666 3.22031 0.884666C3.4044 0.884666 3.56845 0.927148 3.71239 1.01211C3.85874 1.09707 3.97319 1.2139 4.05578 1.36259C4.14075 1.51127 4.18323 1.6812 4.18323 1.87237C4.18323 2.06591 4.13958 2.23817 4.05224 2.38923C3.96494 2.53791 3.84812 2.65474 3.70177 2.7397C3.55783 2.82467 3.39732 2.86715 3.22031 2.86715ZM3.22031 2.60164C3.34775 2.60164 3.46224 2.56977 3.5637 2.50605C3.66757 2.44233 3.74899 2.35499 3.80797 2.24408C3.86936 2.13317 3.90002 2.00926 3.90002 1.87237C3.90002 1.73547 3.86936 1.61277 3.80797 1.50419C3.74899 1.39562 3.66757 1.30948 3.5637 1.24576C3.46224 1.18204 3.34775 1.15018 3.22031 1.15018C3.09286 1.15018 2.97724 1.18204 2.87337 1.24576C2.77191 1.30948 2.69049 1.39562 2.62911 1.50419C2.56775 1.61277 2.53706 1.73547 2.53706 1.87237C2.53706 2.00926 2.56775 2.13317 2.62911 2.24408C2.69049 2.35499 2.77191 2.44233 2.87337 2.50605C2.97724 2.56977 3.09286 2.60164 3.22031 2.60164ZM5.32415 2.86715C5.19196 2.86715 5.07159 2.83645 4.96305 2.7751C4.85448 2.71138 4.76835 2.62405 4.70462 2.51313C4.64324 2.39985 4.61258 2.27003 4.61258 2.12372V0.927147H4.87809V2.09186C4.87809 2.24525 4.92411 2.36916 5.01615 2.46357C5.1082 2.55561 5.22619 2.60164 5.37017 2.60164C5.51648 2.60164 5.63568 2.55324 5.72773 2.45649C5.8221 2.35974 5.86933 2.22638 5.86933 2.05645V0.927147H6.13484V2.82467H5.86933V2.59102C5.81269 2.67598 5.73714 2.74324 5.64276 2.7928C5.54834 2.84237 5.44214 2.86715 5.32415 2.86715ZM6.68087 2.82467V0.927147H6.94638V1.1608C7.00303 1.07583 7.07854 1.00857 7.17295 0.959009C7.26737 0.909447 7.37357 0.884666 7.49157 0.884666C7.62609 0.884666 7.74646 0.915358 7.85266 0.976709C7.96124 1.03806 8.0462 1.12302 8.10755 1.2316C8.17127 1.3378 8.20313 1.45817 8.20313 1.5927V2.82467H7.93762V1.69536C7.93762 1.52306 7.8916 1.38974 7.79956 1.29532C7.70989 1.19857 7.59186 1.15018 7.44554 1.15018C7.30157 1.15018 7.18241 1.19857 7.08799 1.29532C6.99357 1.39208 6.94638 1.52543 6.94638 1.69536V2.82467H6.68087ZM9.56694 2.86715C9.38993 2.86715 9.23063 2.82467 9.08902 2.7397C8.94742 2.65237 8.8353 2.53437 8.75271 2.38569C8.67245 2.23463 8.63234 2.0647 8.63234 1.87591C8.63234 1.68474 8.67245 1.51481 8.75271 1.36613C8.8353 1.21744 8.94625 1.10061 9.08548 1.01565C9.22709 0.928316 9.38756 0.884666 9.56694 0.884666C9.71563 0.884666 9.84899 0.914155 9.96698 0.97317C10.085 1.03218 10.1829 1.1124 10.2608 1.2139V0.144775H10.5263V2.82467H10.2608V2.51667C10.19 2.62759 10.0933 2.71375 9.97052 2.7751C9.84778 2.83645 9.71325 2.86715 9.56694 2.86715ZM9.5811 2.60164C9.70855 2.60164 9.823 2.56977 9.9245 2.50605C10.0283 2.44233 10.1098 2.3562 10.1688 2.24762C10.2301 2.13671 10.2608 2.0128 10.2608 1.87591C10.2608 1.73901 10.2301 1.61631 10.1688 1.50773C10.1098 1.39682 10.0283 1.30948 9.9245 1.24576C9.823 1.18204 9.70855 1.15018 9.5811 1.15018C9.45603 1.15018 9.34274 1.18204 9.24125 1.24576C9.13975 1.30948 9.05953 1.39562 9.00052 1.50419C8.94388 1.61277 8.91556 1.73667 8.91556 1.87591C8.91556 2.0128 8.94388 2.13671 9.00052 2.24762C9.05953 2.3562 9.13858 2.44233 9.23771 2.50605C9.3392 2.56977 9.45366 2.60164 9.5811 2.60164ZM11.9353 2.86715C11.7583 2.86715 11.5978 2.82467 11.4538 2.7397C11.3122 2.65237 11.2001 2.53321 11.1175 2.38215C11.0349 2.23109 10.9936 2.05999 10.9936 1.86883C10.9936 1.67766 11.0337 1.5089 11.114 1.36259C11.1942 1.2139 11.3028 1.09707 11.4396 1.01211C11.5789 0.927148 11.7347 0.884666 11.9069 0.884666C12.0438 0.884666 12.1654 0.910616 12.2716 0.96255C12.3802 1.01211 12.4721 1.08054 12.5479 1.16788C12.6233 1.25284 12.681 1.34959 12.7213 1.45817C12.7613 1.56437 12.7815 1.67412 12.7815 1.7874C12.7815 1.81102 12.7801 1.83813 12.778 1.86883C12.7755 1.89715 12.7719 1.92664 12.7673 1.95733H11.2733C11.278 2.09423 11.311 2.21222 11.3724 2.31134C11.4361 2.4081 11.5175 2.48364 11.6167 2.53791C11.7158 2.59218 11.822 2.61934 11.9353 2.61934C12.0745 2.61934 12.1914 2.58631 12.2857 2.52021C12.3802 2.45412 12.4569 2.37153 12.516 2.2724L12.7426 2.39277C12.7047 2.47773 12.647 2.55678 12.5691 2.62996C12.4912 2.70076 12.3979 2.75857 12.2893 2.80342C12.1831 2.84591 12.0651 2.86715 11.9353 2.86715ZM11.9069 1.13248C11.8031 1.13248 11.7064 1.15609 11.6167 1.20328C11.527 1.25047 11.4515 1.31773 11.3901 1.40507C11.3311 1.49003 11.2945 1.59153 11.2803 1.70952H12.4947C12.4923 1.59623 12.464 1.49711 12.4098 1.41215C12.3577 1.32481 12.2869 1.25638 12.1972 1.20682C12.1099 1.15726 12.0131 1.13248 11.9069 1.13248ZM13.2495 2.82467V0.927147H13.515V1.13248C13.5646 1.0593 13.6308 1.00266 13.7133 0.96255C13.7982 0.92244 13.8984 0.902366 14.0142 0.902366H14.1345V1.16788H13.9682C13.8312 1.16788 13.7214 1.21036 13.6389 1.29532C13.5564 1.38029 13.515 1.50065 13.515 1.65642V2.82467H13.2495ZM15.0861 2.82467V0.187257H15.3693V1.37321H16.7854V0.187257H17.0686V2.82467H16.7854V1.63872H15.3693V2.82467H15.0861ZM18.5424 2.86715C18.3632 2.86715 18.2004 2.82467 18.0538 2.7397C17.9076 2.65237 17.7908 2.53437 17.7034 2.38569C17.6184 2.23463 17.5759 2.06353 17.5759 1.87237C17.5759 1.68357 17.6184 1.51481 17.7034 1.36613C17.7883 1.21744 17.903 1.10061 18.0468 1.01565C18.1933 0.928316 18.3583 0.884666 18.5424 0.884666C18.7265 0.884666 18.8907 0.927148 19.0345 1.01211C19.181 1.09707 19.2954 1.2139 19.3779 1.36259C19.4628 1.51127 19.5053 1.6812 19.5053 1.87237C19.5053 2.06591 19.4618 2.23817 19.3743 2.38923C19.2872 2.53791 19.1704 2.65474 19.0238 2.7397C18.8801 2.82467 18.7194 2.86715 18.5424 2.86715ZM18.5424 2.60164C18.6698 2.60164 18.7845 2.56977 18.8858 2.50605C18.9899 2.44233 19.0713 2.35499 19.13 2.24408C19.1916 2.13317 19.2221 2.00926 19.2221 1.87237C19.2221 1.73547 19.1916 1.61277 19.13 1.50419C19.0713 1.39562 18.9899 1.30948 18.8858 1.24576C18.7845 1.18204 18.6698 1.15018 18.5424 1.15018C18.4149 1.15018 18.2995 1.18204 18.1954 1.24576C18.0942 1.30948 18.0128 1.39562 17.9512 1.50419C17.8899 1.61277 17.8591 1.73547 17.8591 1.87237C17.8591 2.00926 17.8899 2.13317 17.9512 2.24408C18.0128 2.35499 18.0942 2.44233 18.1954 2.50605C18.2995 2.56977 18.4149 2.60164 18.5424 2.60164ZM20.6647 2.84591C20.4948 2.84591 20.3638 2.79634 20.2717 2.69722C20.1797 2.5981 20.1337 2.45649 20.1337 2.2724V1.19266H19.7832V0.927147H19.8717C19.9521 0.927147 20.0158 0.901198 20.0629 0.849264C20.1103 0.794993 20.1337 0.727731 20.1337 0.647475V0.48817H20.3992V0.927147H20.8169V1.19266H20.3992V2.2724C20.3992 2.36682 20.4218 2.4447 20.4664 2.50605C20.5114 2.5674 20.5928 2.5981 20.7107 2.5981C20.7298 2.5981 20.7521 2.59693 20.778 2.59456C20.8042 2.59218 20.8265 2.58985 20.8452 2.58748V2.82467C20.8169 2.83175 20.7851 2.83645 20.7497 2.83883C20.7143 2.84354 20.6859 2.84591 20.6647 2.84591ZM21.8259 2.86715C21.7055 2.86715 21.5979 2.84474 21.5037 2.79989C21.4092 2.75269 21.3348 2.68897 21.2807 2.60872C21.2262 2.52846 21.1993 2.43642 21.1993 2.33259C21.1993 2.18627 21.2474 2.05883 21.3444 1.95025C21.4411 1.84167 21.5943 1.7697 21.8046 1.7343L22.4914 1.62102V1.52189C22.4914 1.40861 22.45 1.31656 22.3675 1.24576C22.2847 1.17496 22.1774 1.13956 22.0454 1.13956C21.9296 1.13956 21.828 1.16905 21.7409 1.22806C21.6535 1.2847 21.5887 1.35905 21.5462 1.45109L21.3055 1.3201C21.3409 1.23985 21.3961 1.16671 21.4719 1.10062C21.5497 1.03452 21.6382 0.982621 21.7374 0.944848C21.8365 0.904738 21.9391 0.884666 22.0454 0.884666C22.1845 0.884666 22.3073 0.911819 22.4135 0.966089C22.5219 1.02036 22.6058 1.09591 22.6649 1.19266C22.7261 1.28707 22.7569 1.39682 22.7569 1.52189V2.82467H22.4914V2.55207C22.4298 2.64412 22.3402 2.71963 22.2224 2.77864C22.1041 2.83766 21.9721 2.86715 21.8259 2.86715ZM21.4825 2.32197C21.4825 2.40693 21.5154 2.4789 21.5816 2.53791C21.6499 2.59693 21.7374 2.62642 21.8436 2.62642C21.9731 2.62642 22.0864 2.59926 22.1834 2.54499C22.2801 2.48835 22.3555 2.41284 22.41 2.31842C22.4642 2.22401 22.4914 2.11901 22.4914 2.00335V1.86175L21.8683 1.96441C21.7313 1.98802 21.6322 2.03167 21.571 2.0954C21.5119 2.15912 21.4825 2.23463 21.4825 2.32197ZM23.3028 2.82467V0.927147H23.5683V1.1608C23.625 1.07346 23.6993 1.0062 23.7914 0.959009C23.8859 0.909447 23.9875 0.884666 24.0958 0.884666C24.2257 0.884666 24.345 0.917695 24.4534 0.98379C24.562 1.04988 24.6459 1.13718 24.7047 1.24576C24.7614 1.12777 24.8428 1.03806 24.949 0.976709C25.0577 0.915358 25.1756 0.884666 25.303 0.884666C25.4304 0.884666 25.5473 0.915358 25.6535 0.976709C25.7622 1.03806 25.8482 1.12302 25.9119 1.2316C25.9781 1.3378 26.011 1.45817 26.011 1.5927V2.82467H25.7455V1.69536C25.7455 1.52306 25.7009 1.38974 25.611 1.29532C25.5214 1.19857 25.4081 1.15018 25.2711 1.15018C25.1345 1.15018 25.0198 1.19857 24.9277 1.29532C24.8357 1.39208 24.7897 1.52543 24.7897 1.69536V2.82467H24.5242V1.69536C24.5242 1.52306 24.4796 1.38974 24.3896 1.29532C24.3001 1.19857 24.1868 1.15018 24.0498 1.15018C23.9131 1.15018 23.7984 1.19857 23.7064 1.29532C23.6143 1.39208 23.5683 1.52543 23.5683 1.69536V2.82467H23.3028ZM27.0667 2.86715C26.9463 2.86715 26.8391 2.84474 26.7445 2.79989C26.6504 2.75269 26.576 2.68897 26.5215 2.60872C26.4674 2.52846 26.4401 2.43642 26.4401 2.33259C26.4401 2.18627 26.4886 2.05883 26.5852 1.95025C26.6822 1.84167 26.8355 1.7697 27.0455 1.7343L27.7322 1.62102V1.52189C27.7322 1.40861 27.6912 1.31656 27.6083 1.24576C27.5259 1.17496 27.4186 1.13956 27.2862 1.13956C27.1708 1.13956 27.0692 1.16905 26.9817 1.22806C26.8946 1.2847 26.8295 1.35905 26.787 1.45109L26.5463 1.3201C26.5817 1.23985 26.6373 1.16671 26.7127 1.10062C26.7906 1.03452 26.8791 0.982621 26.9782 0.944848C27.0773 0.904738 27.18 0.884666 27.2862 0.884666C27.4257 0.884666 27.5482 0.911819 27.6544 0.966089C27.763 1.02036 27.8469 1.09591 27.9057 1.19266C27.9673 1.28707 27.9978 1.39682 27.9978 1.52189V2.82467H27.7322V2.55207C27.671 2.64412 27.5814 2.71963 27.4632 2.77864C27.3453 2.83766 27.2133 2.86715 27.0667 2.86715ZM26.7233 2.32197C26.7233 2.40693 26.7566 2.4789 26.8224 2.53791C26.8911 2.59693 26.9782 2.62642 27.0844 2.62642C27.2143 2.62642 27.3276 2.59926 27.4243 2.54499C27.5213 2.48835 27.5967 2.41284 27.6508 2.31842C27.7053 2.22401 27.7322 2.11901 27.7322 2.00335V1.86175L27.1092 1.96441C26.9725 1.98802 26.8734 2.03167 26.8118 2.0954C26.753 2.15912 26.7233 2.23463 26.7233 2.32197Z" fill="black" fill-opacity="0.55"/>
</svg>
