<svg width="30" height="22" viewBox="0 0 30 22" fill="none" xmlns="http://www.w3.org/2000/svg">
<ellipse cx="0.761614" cy="0.799601" rx="0.761614" ry="0.799601" fill="#10957D"/>
<ellipse cx="0.761614" cy="14.1382" rx="0.761614" ry="0.799601" fill="#10957D"/>
<ellipse cx="12.1522" cy="0.799601" rx="0.761614" ry="0.799601" fill="#10957D"/>
<ellipse cx="12.1522" cy="14.1382" rx="0.761614" ry="0.799601" fill="#10957D"/>
<ellipse cx="23.5431" cy="0.799601" rx="0.761614" ry="0.799601" fill="#10957D"/>
<ellipse cx="23.5431" cy="14.1382" rx="0.761614" ry="0.799601" fill="#10957D"/>
<ellipse cx="0.761614" cy="7.46903" rx="0.761614" ry="0.799601" fill="#10957D"/>
<ellipse cx="0.761614" cy="20.8077" rx="0.761614" ry="0.799601" fill="#10957D"/>
<ellipse cx="12.1522" cy="7.46903" rx="0.761614" ry="0.799601" fill="#10957D"/>
<ellipse cx="12.1522" cy="20.8077" rx="0.761614" ry="0.799601" fill="#10957D"/>
<ellipse cx="23.5431" cy="7.46903" rx="0.761614" ry="0.799601" fill="#10957D"/>
<ellipse cx="23.5431" cy="20.8077" rx="0.761614" ry="0.799601" fill="#10957D"/>
<ellipse cx="6.45693" cy="0.799601" rx="0.761614" ry="0.799601" fill="#10957D"/>
<ellipse cx="6.45693" cy="14.1382" rx="0.761614" ry="0.799601" fill="#10957D"/>
<ellipse cx="17.8476" cy="0.799601" rx="0.761614" ry="0.799601" fill="#10957D"/>
<ellipse cx="17.8476" cy="14.1382" rx="0.761614" ry="0.799601" fill="#10957D"/>
<ellipse cx="29.2384" cy="0.799601" rx="0.761614" ry="0.799601" fill="#10957D"/>
<ellipse cx="29.2384" cy="14.1382" rx="0.761614" ry="0.799601" fill="#10957D"/>
<ellipse cx="6.45693" cy="7.46903" rx="0.761614" ry="0.799601" fill="#10957D"/>
<ellipse cx="6.45693" cy="20.8077" rx="0.761614" ry="0.799601" fill="#10957D"/>
<ellipse cx="17.8476" cy="7.46903" rx="0.761614" ry="0.799601" fill="#10957D"/>
<ellipse cx="17.8476" cy="20.8077" rx="0.761614" ry="0.799601" fill="#10957D"/>
<ellipse cx="29.2384" cy="7.46903" rx="0.761614" ry="0.799601" fill="#10957D"/>
<ellipse cx="29.2384" cy="20.8077" rx="0.761614" ry="0.799601" fill="#10957D"/>
</svg>
