<svg width="62" height="6" viewBox="0 0 62 6" fill="none" xmlns="http://www.w3.org/2000/svg">
<path d="M0.425293 4.39044V0.434328H1.14748V2.16015H2.83082V0.434328H3.55832V4.39044H2.83082V2.79738H1.14748V4.39044H0.425293ZM5.13758 4.45416C4.83667 4.45416 4.59594 4.37982 4.41539 4.23113C4.23485 4.08245 4.14457 3.88066 4.14457 3.62577C4.14457 3.38504 4.22599 3.18502 4.38884 3.02572C4.55169 2.86641 4.80304 2.75843 5.14289 2.70179L6.00315 2.56373V2.46814C6.00315 2.34424 5.95358 2.24157 5.85446 2.16015C5.75888 2.07519 5.63143 2.0327 5.47213 2.0327C5.3199 2.0327 5.18714 2.07342 5.07386 2.15484C4.96058 2.23272 4.87738 2.33716 4.82428 2.46814L4.25608 2.19201C4.34105 1.96544 4.49681 1.78312 4.72338 1.64506C4.94995 1.50699 5.20838 1.43796 5.49868 1.43796C5.73587 1.43796 5.94296 1.48221 6.11997 1.57071C6.30052 1.65568 6.44213 1.77604 6.54479 1.93181C6.64745 2.08758 6.69879 2.26635 6.69879 2.46814V4.39044H6.04032V4.08245C5.81375 4.33026 5.51284 4.45416 5.13758 4.45416ZM4.86676 3.59922C4.86676 3.69834 4.90393 3.778 4.97827 3.83818C5.05262 3.89482 5.1482 3.92314 5.26503 3.92314C5.48451 3.92314 5.66152 3.85411 5.79605 3.71604C5.93411 3.57798 6.00315 3.40982 6.00315 3.21157V3.09475L5.27565 3.21688C5.00306 3.26998 4.86676 3.39743 4.86676 3.59922ZM7.34175 1.17776V0.434328H8.03738V1.17776H7.34175ZM6.94348 5.564C6.89746 5.564 6.84967 5.56223 6.80011 5.55869C6.75054 5.55515 6.70983 5.54984 6.67797 5.54276V4.93739C6.73815 4.94801 6.80188 4.95332 6.86914 4.95332C7.01782 4.95332 7.13288 4.91792 7.2143 4.84712C7.29926 4.77986 7.34175 4.67542 7.34175 4.53382V1.50168H8.03738V4.53382C8.03738 4.86659 7.93826 5.12148 7.74001 5.29849C7.54531 5.4755 7.27979 5.564 6.94348 5.564ZM10.0922 4.45416C9.80898 4.45416 9.55055 4.38867 9.3169 4.25769C9.08679 4.1267 8.9027 3.94792 8.76464 3.72135C8.63011 3.49478 8.56285 3.23635 8.56285 2.94606C8.56285 2.65577 8.63011 2.39734 8.76464 2.17077C8.9027 1.9442 9.08679 1.76542 9.3169 1.63444C9.54701 1.50345 9.80544 1.43796 10.0922 1.43796C10.3754 1.43796 10.6321 1.50345 10.8622 1.63444C11.0923 1.76542 11.2746 1.9442 11.4091 2.17077C11.5472 2.39734 11.6162 2.65577 11.6162 2.94606C11.6162 3.23635 11.5472 3.49655 11.4091 3.72666C11.2711 3.95323 11.087 4.13201 10.8569 4.263C10.6268 4.39044 10.3719 4.45416 10.0922 4.45416ZM10.0922 3.81694C10.248 3.81694 10.3843 3.77977 10.5011 3.70542C10.6214 3.63108 10.7153 3.52842 10.7825 3.39743C10.8533 3.2629 10.8887 3.11245 10.8887 2.94606C10.8887 2.77967 10.8533 2.63099 10.7825 2.5C10.7153 2.36902 10.6214 2.26635 10.5011 2.19201C10.3843 2.11413 10.248 2.07519 10.0922 2.07519C9.93643 2.07519 9.79659 2.11413 9.67268 2.19201C9.55232 2.26635 9.45674 2.36902 9.38593 2.5C9.31867 2.63099 9.28504 2.77967 9.28504 2.94606C9.28504 3.11245 9.31867 3.2629 9.38593 3.39743C9.45674 3.52842 9.55232 3.63108 9.67268 3.70542C9.79659 3.77977 9.93643 3.81694 10.0922 3.81694ZM12.1437 4.39044V1.50168H12.7968V1.85747C12.8746 1.7194 12.9844 1.61497 13.126 1.54416C13.2711 1.47336 13.434 1.43796 13.6145 1.43796C13.8269 1.43796 14.0146 1.48398 14.1774 1.57602C14.3438 1.66807 14.473 1.79728 14.5651 1.96367C14.6571 2.12652 14.7031 2.31592 14.7031 2.53186V4.39044H14.0075V2.69648C14.0075 2.50531 13.9526 2.35486 13.8429 2.24511C13.7367 2.13183 13.5968 2.07519 13.4234 2.07519C13.2499 2.07519 13.1083 2.13183 12.9985 2.24511C12.8923 2.3584 12.8392 2.50885 12.8392 2.69648V4.39044H12.1437ZM16.2937 4.39044V0.434328H16.984L18.301 2.21856L19.586 0.434328H20.2764V4.39044H19.5489V1.70347L18.3275 3.3284H18.2426L17.0159 1.65037V4.39044H16.2937ZM21.8514 4.45416C21.5505 4.45416 21.3097 4.37982 21.1292 4.23113C20.9487 4.08245 20.8584 3.88066 20.8584 3.62577C20.8584 3.38504 20.9398 3.18502 21.1026 3.02572C21.2655 2.86641 21.5168 2.75843 21.8567 2.70179L22.717 2.56373V2.46814C22.717 2.34424 22.6674 2.24157 22.5683 2.16015C22.4727 2.07519 22.3452 2.0327 22.1859 2.0327C22.0337 2.0327 21.9009 2.07342 21.7877 2.15484C21.6744 2.23272 21.5912 2.33716 21.5381 2.46814L20.9699 2.19201C21.0549 1.96544 21.2106 1.78312 21.4372 1.64506C21.6638 1.50699 21.9222 1.43796 22.2125 1.43796C22.4497 1.43796 22.6568 1.48221 22.8338 1.57071C23.0143 1.65568 23.1559 1.77604 23.2586 1.93181C23.3613 2.08758 23.4126 2.26635 23.4126 2.46814V4.39044H22.7541V4.08245C22.5276 4.33026 22.2266 4.45416 21.8514 4.45416ZM21.5806 3.59922C21.5806 3.69834 21.6177 3.778 21.6921 3.83818C21.7664 3.89482 21.862 3.92314 21.9788 3.92314C22.1983 3.92314 22.3753 3.85411 22.5099 3.71604C22.6479 3.57798 22.717 3.40982 22.717 3.21157V3.09475L21.9895 3.21688C21.7169 3.26998 21.5806 3.39743 21.5806 3.59922ZM24.0555 4.39044V0.370605H24.7511V1.78843C24.8325 1.67161 24.9405 1.58488 25.075 1.52823C25.2096 1.46805 25.36 1.43796 25.5264 1.43796C25.7388 1.43796 25.9264 1.48398 26.0893 1.57602C26.2557 1.66807 26.3849 1.79728 26.4769 1.96367C26.569 2.12652 26.615 2.31592 26.615 2.53186V4.39044H25.9194V2.69648C25.9194 2.50531 25.8645 2.35486 25.7548 2.24511C25.645 2.13183 25.5052 2.07519 25.3352 2.07519C25.1653 2.07519 25.0255 2.13183 24.9157 2.24511C24.806 2.3584 24.7511 2.50885 24.7511 2.69648V4.39044H24.0555ZM28.5465 4.45416C28.2668 4.45416 28.0173 4.38867 27.7978 4.25769C27.5783 4.12316 27.4048 3.94261 27.2774 3.71604C27.1499 3.48593 27.0862 3.22927 27.0862 2.94606C27.0862 2.66285 27.1499 2.40796 27.2774 2.18139C27.4048 1.95128 27.5783 1.77073 27.7978 1.63975C28.0208 1.50522 28.2686 1.43796 28.5412 1.43796C28.9165 1.43796 29.2121 1.55655 29.428 1.79374V0.370605H30.1236V4.39044H29.4652V4.07183C29.359 4.19573 29.2262 4.29132 29.0669 4.35858C28.9076 4.4223 28.7341 4.45416 28.5465 4.45416ZM28.6209 3.81694C28.7766 3.81694 28.9147 3.77977 29.035 3.70542C29.159 3.63108 29.2545 3.52842 29.3218 3.39743C29.3926 3.26644 29.428 3.11599 29.428 2.94606C29.428 2.77613 29.3926 2.62568 29.3218 2.49469C29.2545 2.36371 29.159 2.26104 29.035 2.1867C28.9147 2.11236 28.7766 2.07519 28.6209 2.07519C28.4651 2.07519 28.3253 2.11413 28.2013 2.19201C28.0774 2.26635 27.9801 2.36902 27.9093 2.5C27.842 2.63099 27.8084 2.77967 27.8084 2.94606C27.8084 3.11245 27.842 3.2629 27.9093 3.39743C27.9801 3.52842 28.0774 3.63108 28.2013 3.70542C28.3253 3.77977 28.4651 3.81694 28.6209 3.81694ZM31.1216 5.564C31.0437 5.564 30.9676 5.55692 30.8933 5.54276C30.8189 5.53214 30.7517 5.51267 30.6915 5.48435V4.90022C30.741 4.91438 30.7977 4.925 30.8614 4.93208C30.9251 4.9427 30.9853 4.94801 31.042 4.94801C31.2013 4.94801 31.3163 4.91084 31.3871 4.8365C31.4615 4.76216 31.527 4.6648 31.5836 4.54444L31.6473 4.39044L30.5056 1.50168H31.2544L32.0031 3.49301L32.7465 1.50168H33.5006L32.2421 4.6825C32.1323 4.96217 31.9854 5.17812 31.8013 5.33035C31.6208 5.48612 31.3942 5.564 31.1216 5.564ZM34.8848 4.39044V0.434328H35.5751L36.892 2.21856L38.1771 0.434328H38.8675V4.39044H38.14V1.70347L36.9186 3.3284H36.8336L35.607 1.65037V4.39044H34.8848ZM40.4421 4.45416C40.1412 4.45416 39.9005 4.37982 39.7199 4.23113C39.5394 4.08245 39.4491 3.88066 39.4491 3.62577C39.4491 3.38504 39.5305 3.18502 39.6934 3.02572C39.8562 2.86641 40.1076 2.75843 40.4474 2.70179L41.3077 2.56373V2.46814C41.3077 2.34424 41.2581 2.24157 41.159 2.16015C41.0634 2.07519 40.936 2.0327 40.7767 2.0327C40.6244 2.0327 40.4917 2.07342 40.3784 2.15484C40.2651 2.23272 40.1819 2.33716 40.1288 2.46814L39.5606 2.19201C39.6456 1.96544 39.8013 1.78312 40.0279 1.64506C40.2545 1.50699 40.5129 1.43796 40.8032 1.43796C41.0404 1.43796 41.2475 1.48221 41.4245 1.57071C41.605 1.65568 41.7467 1.77604 41.8493 1.93181C41.952 2.08758 42.0033 2.26635 42.0033 2.46814V4.39044H41.3448V4.08245C41.1183 4.33026 40.8174 4.45416 40.4421 4.45416ZM40.1713 3.59922C40.1713 3.69834 40.2085 3.778 40.2828 3.83818C40.3571 3.89482 40.4527 3.92314 40.5696 3.92314C40.789 3.92314 40.966 3.85411 41.1006 3.71604C41.2386 3.57798 41.3077 3.40982 41.3077 3.21157V3.09475L40.5802 3.21688C40.3076 3.26998 40.1713 3.39743 40.1713 3.59922ZM42.6466 4.39044V0.370605H43.3422V1.78843C43.4236 1.67161 43.5316 1.58488 43.6661 1.52823C43.8006 1.46805 43.9511 1.43796 44.1175 1.43796C44.3299 1.43796 44.5175 1.48398 44.6804 1.57602C44.8468 1.66807 44.976 1.79728 45.068 1.96367C45.1601 2.12652 45.2061 2.31592 45.2061 2.53186V4.39044H44.5104V2.69648C44.5104 2.50531 44.4556 2.35486 44.3458 2.24511C44.2361 2.13183 44.0962 2.07519 43.9263 2.07519C43.7564 2.07519 43.6166 2.13183 43.5068 2.24511C43.3971 2.3584 43.3422 2.50885 43.3422 2.69648V4.39044H42.6466ZM45.7941 4.39044V1.50168H46.4473V1.86278C46.5216 1.72117 46.6296 1.61497 46.7712 1.54416C46.9128 1.47336 47.0739 1.43796 47.2544 1.43796C47.4491 1.43796 47.6244 1.48044 47.7801 1.5654C47.9394 1.65037 48.0616 1.76365 48.1465 1.90526C48.2457 1.74949 48.3713 1.63267 48.5236 1.55478C48.6793 1.4769 48.8528 1.43796 49.044 1.43796C49.2493 1.43796 49.4316 1.48398 49.5909 1.57602C49.7502 1.66807 49.8759 1.79728 49.9679 1.96367C50.0635 2.12652 50.1113 2.31592 50.1113 2.53186V4.39044H49.4157V2.69648C49.4157 2.50531 49.3643 2.35486 49.2617 2.24511C49.1625 2.13183 49.028 2.07519 48.8581 2.07519C48.6917 2.07519 48.5572 2.13183 48.4545 2.24511C48.3519 2.3584 48.3005 2.50885 48.3005 2.69648V4.39044H47.6049V2.69648C47.6049 2.50531 47.5536 2.35486 47.4509 2.24511C47.3518 2.13183 47.2172 2.07519 47.0473 2.07519C46.8809 2.07519 46.7464 2.13183 46.6437 2.24511C46.5411 2.3584 46.4897 2.50885 46.4897 2.69648V4.39044H45.7941ZM51.7302 4.45416C51.3904 4.45416 51.1231 4.34619 50.9284 4.13024C50.7372 3.91075 50.6416 3.624 50.6416 3.26998V1.50168H51.3373V3.21157C51.3373 3.39566 51.3904 3.54258 51.4966 3.65232C51.6063 3.76207 51.7479 3.81694 51.9214 3.81694C52.0913 3.81694 52.2311 3.76207 52.3409 3.65232C52.4506 3.53904 52.5055 3.38681 52.5055 3.19564V1.50168H53.2011V4.39044H52.5427V4.04528C52.4613 4.1798 52.3497 4.28247 52.2081 4.35327C52.0701 4.42053 51.9108 4.45416 51.7302 4.45416ZM55.1911 4.45416C54.9114 4.45416 54.6618 4.38867 54.4423 4.25769C54.2228 4.12316 54.0494 3.94261 53.9219 3.71604C53.7945 3.48593 53.7308 3.22927 53.7308 2.94606C53.7308 2.66285 53.7945 2.40796 53.9219 2.18139C54.0494 1.95128 54.2228 1.77073 54.4423 1.63975C54.6654 1.50522 54.9132 1.43796 55.1858 1.43796C55.561 1.43796 55.8566 1.55655 56.0726 1.79374V0.370605H56.7682V4.39044H56.1097V4.07183C56.0035 4.19573 55.8708 4.29132 55.7115 4.35858C55.5522 4.4223 55.3787 4.45416 55.1911 4.45416ZM55.2654 3.81694C55.4212 3.81694 55.5592 3.77977 55.6796 3.70542C55.8035 3.63108 55.8991 3.52842 55.9664 3.39743C56.0372 3.26644 56.0726 3.11599 56.0726 2.94606C56.0726 2.77613 56.0372 2.62568 55.9664 2.49469C55.8991 2.36371 55.8035 2.26104 55.6796 2.1867C55.5592 2.11236 55.4212 2.07519 55.2654 2.07519C55.1096 2.07519 54.9698 2.11413 54.8459 2.19201C54.722 2.26635 54.6246 2.36902 54.5538 2.5C54.4866 2.63099 54.4529 2.77967 54.4529 2.94606C54.4529 3.11245 54.4866 3.2629 54.5538 3.39743C54.6246 3.52842 54.722 3.63108 54.8459 3.70542C54.9698 3.77977 55.1096 3.81694 55.2654 3.81694ZM57.4153 1.17776V0.434328H58.111V1.17776H57.4153ZM57.4153 4.39044V1.50168H58.111V4.39044H57.4153ZM58.7535 4.39044V1.50168H59.4067V1.85747C59.4846 1.7194 59.5943 1.61497 59.7359 1.54416C59.8811 1.47336 60.0439 1.43796 60.2244 1.43796C60.4369 1.43796 60.6245 1.48398 60.7873 1.57602C60.9537 1.66807 61.0829 1.79728 61.175 1.96367C61.267 2.12652 61.313 2.31592 61.313 2.53186V4.39044H60.6174V2.69648C60.6174 2.50531 60.5625 2.35486 60.4528 2.24511C60.3466 2.13183 60.2067 2.07519 60.0333 2.07519C59.8598 2.07519 59.7182 2.13183 59.6085 2.24511C59.5023 2.3584 59.4492 2.50885 59.4492 2.69648V4.39044H58.7535Z" fill="black"/>
</svg>
