<svg width="77" height="18" viewBox="0 0 77 18" fill="none" xmlns="http://www.w3.org/2000/svg">
<path d="M1.60413 1.07584V0.699163C1.60413 0.550477 1.63882 0.423279 1.70821 0.317535C1.77759 0.208498 1.86681 0.139112 1.97584 0.109375V0.267973C1.90646 0.281178 1.85194 0.320827 1.81229 0.386921C1.77593 0.453016 1.75777 0.533945 1.75777 0.629777H1.87672V1.07584H1.60413ZM0.959821 1.07584V0.699163C0.959821 0.550477 0.994514 0.423279 1.0639 0.317535C1.13329 0.208498 1.2225 0.139112 1.33154 0.109375V0.267973C1.26215 0.281178 1.20763 0.320827 1.16798 0.386921C1.13162 0.453016 1.11346 0.533945 1.11346 0.629777H1.23241V1.07584H0.959821ZM2.92212 3.86122V0.168849H3.16993V1.86883H5.35066V0.168849H5.59847V3.86122H5.35066V2.09186H3.16993V3.86122H2.92212ZM7.73106 3.9207C7.48325 3.9207 7.26022 3.86122 7.06197 3.74227C6.86372 3.62332 6.70675 3.46143 6.59113 3.25656C6.47547 3.0484 6.41766 2.81546 6.41766 2.55774C6.41766 2.29673 6.47547 2.06378 6.59113 1.85892C6.70675 1.65405 6.86372 1.49216 7.06197 1.37321C7.26022 1.25426 7.48325 1.19478 7.73106 1.19478C7.98216 1.19478 8.20519 1.25426 8.40015 1.37321C8.59839 1.49216 8.75533 1.65405 8.87098 1.85892C8.98661 2.06378 9.04445 2.29673 9.04445 2.55774C9.04445 2.81546 8.98661 3.0484 8.87098 3.25656C8.75533 3.46143 8.59839 3.62332 8.40015 3.74227C8.20519 3.86122 7.98216 3.9207 7.73106 3.9207ZM7.73106 3.70758C7.9326 3.70758 8.11431 3.65802 8.27624 3.55889C8.43813 3.45648 8.56699 3.3177 8.66282 3.14257C8.75862 2.96744 8.80655 2.77252 8.80655 2.55774C8.80655 2.33967 8.75862 2.14471 8.66282 1.97291C8.57029 1.79778 8.44309 1.66067 8.2812 1.56154C8.11927 1.45913 7.93589 1.4079 7.73106 1.4079C7.52948 1.4079 7.3461 1.45913 7.18092 1.56154C7.01899 1.66067 6.89013 1.79778 6.79434 1.97291C6.7018 2.14471 6.65556 2.33967 6.65556 2.55774C6.65556 2.77252 6.70346 2.96744 6.79929 3.14257C6.89509 3.3177 7.02395 3.45648 7.18588 3.55889C7.34777 3.65802 7.52948 3.70758 7.73106 3.70758ZM10.6619 3.89096C10.4603 3.89096 10.305 3.83644 10.196 3.7274C10.087 3.61837 10.0324 3.45481 10.0324 3.23674V1.45251H9.53682V1.25426H9.78463C9.94981 1.25426 10.0324 1.16505 10.0324 0.986622V0.639689H10.2555V1.25426H10.8205V1.45251H10.2555V3.23674C10.2555 3.29621 10.2637 3.36064 10.2802 3.43003C10.3001 3.49942 10.3397 3.55889 10.3992 3.60846C10.462 3.65473 10.5561 3.67784 10.6817 3.67784C10.7081 3.67784 10.7412 3.67618 10.7808 3.67289C10.8205 3.66959 10.8518 3.66627 10.875 3.66297V3.86122C10.8419 3.87113 10.8023 3.87775 10.756 3.88105C10.7131 3.88767 10.6817 3.89096 10.6619 3.89096ZM12.2794 3.9207C12.1208 3.9207 11.9771 3.89096 11.8482 3.83148C11.7227 3.76872 11.6219 3.6828 11.5459 3.57376C11.4699 3.46143 11.4319 3.33257 11.4319 3.18718C11.4319 3.06823 11.4584 2.95424 11.5112 2.8452C11.5674 2.73287 11.6566 2.63538 11.7789 2.55278C11.9044 2.47019 12.0713 2.41235 12.2794 2.37932L13.2905 2.2108V2.05221C13.2905 1.85725 13.2228 1.70198 13.0873 1.58632C12.9551 1.46737 12.7783 1.4079 12.557 1.4079C12.3885 1.4079 12.2332 1.44921 12.0911 1.5318C11.949 1.6144 11.8383 1.72343 11.759 1.85892L11.5608 1.75484C11.6103 1.65571 11.683 1.56483 11.7789 1.48224C11.878 1.39632 11.9936 1.32694 12.1258 1.27408C12.2579 1.22123 12.4017 1.19478 12.557 1.19478C12.7453 1.19478 12.9105 1.23114 13.0526 1.30382C13.198 1.3765 13.3103 1.47729 13.3896 1.60615C13.4722 1.73501 13.5135 1.8837 13.5135 2.05221V3.86122H13.2905V3.33586C13.2409 3.43828 13.1666 3.53411 13.0675 3.62332C12.9716 3.71254 12.856 3.78521 12.7205 3.8414C12.5884 3.89425 12.4413 3.9207 12.2794 3.9207ZM11.6599 3.17727C11.6599 3.34248 11.721 3.47297 11.8433 3.56881C11.9655 3.66464 12.1175 3.71254 12.2993 3.71254C12.5008 3.71254 12.6743 3.66464 12.8197 3.56881C12.9683 3.47297 13.084 3.34744 13.1666 3.19213C13.2492 3.03354 13.2905 2.86336 13.2905 2.68164V2.42392L12.3538 2.57756C12.0961 2.62051 11.916 2.69651 11.8136 2.80555C11.7111 2.91459 11.6599 3.03849 11.6599 3.17727ZM14.3869 3.86122V1.25426H14.61V1.63588C14.6793 1.50373 14.7834 1.39799 14.9222 1.31869C15.0643 1.2361 15.2196 1.19478 15.3881 1.19478C15.5731 1.19478 15.7449 1.24435 15.9035 1.34347C16.0654 1.44259 16.1844 1.57808 16.2604 1.74988C16.3264 1.58137 16.4371 1.44755 16.5924 1.34843C16.751 1.24601 16.9278 1.19478 17.1227 1.19478C17.2913 1.19478 17.4482 1.23443 17.5936 1.31373C17.7389 1.39303 17.8563 1.50536 17.9455 1.65075C18.0347 1.79282 18.0793 1.9597 18.0793 2.15133V3.86122H17.8563V2.17611C17.8563 2.01751 17.8216 1.88203 17.7522 1.7697C17.6828 1.65405 17.5903 1.56483 17.4746 1.50207C17.3623 1.4393 17.2384 1.4079 17.1029 1.4079C16.9476 1.4079 16.8121 1.44755 16.6965 1.52685C16.5841 1.60286 16.4966 1.70694 16.4338 1.83909C16.3744 1.96795 16.3446 2.11334 16.3446 2.27523V3.86122H16.1216V2.17611C16.1216 2.01751 16.0869 1.88203 16.0175 1.7697C15.9481 1.65405 15.8556 1.56483 15.74 1.50207C15.6276 1.4393 15.5037 1.4079 15.3683 1.4079C15.2129 1.4079 15.0775 1.44755 14.9618 1.52685C14.8495 1.60286 14.7619 1.70694 14.6992 1.83909C14.6397 1.96795 14.61 2.11334 14.61 2.27523V3.86122H14.3869ZM19.6363 3.9207C19.4777 3.9207 19.334 3.89096 19.2051 3.83148C19.0796 3.76872 18.9788 3.6828 18.9028 3.57376C18.8268 3.46143 18.7888 3.33257 18.7888 3.18718C18.7888 3.06823 18.8152 2.95424 18.8681 2.8452C18.9243 2.73287 19.0135 2.63538 19.1357 2.55278C19.2613 2.47019 19.4282 2.41235 19.6363 2.37932L20.6474 2.2108V2.05221C20.6474 1.85725 20.5796 1.70198 20.4442 1.58632C20.312 1.46737 20.1352 1.4079 19.9139 1.4079C19.7454 1.4079 19.5901 1.44921 19.448 1.5318C19.3059 1.6144 19.1952 1.72343 19.1159 1.85892L18.9177 1.75484C18.9672 1.65571 19.0399 1.56483 19.1357 1.48224C19.2349 1.39632 19.3505 1.32694 19.4827 1.27408C19.6148 1.22123 19.7586 1.19478 19.9139 1.19478C20.1022 1.19478 20.2674 1.23114 20.4095 1.30382C20.5548 1.3765 20.6672 1.47729 20.7465 1.60615C20.8291 1.73501 20.8704 1.8837 20.8704 2.05221V3.86122H20.6474V3.33586C20.5978 3.43828 20.5235 3.53411 20.4244 3.62332C20.3285 3.71254 20.2129 3.78521 20.0774 3.8414C19.9452 3.89425 19.7982 3.9207 19.6363 3.9207ZM19.0168 3.17727C19.0168 3.34248 19.0779 3.47297 19.2002 3.56881C19.3224 3.66464 19.4744 3.71254 19.6561 3.71254C19.8577 3.71254 20.0312 3.66464 20.1765 3.56881C20.3252 3.47297 20.4409 3.34744 20.5235 3.19213C20.6061 3.03354 20.6474 2.86336 20.6474 2.68164V2.42392L19.7107 2.57756C19.4529 2.62051 19.2729 2.69651 19.1704 2.80555C19.068 2.91459 19.0168 3.03849 19.0168 3.17727ZM22.5375 3.86122V1.25426H22.7606V1.63588C22.83 1.50373 22.934 1.39799 23.0728 1.31869C23.2149 1.2361 23.3702 1.19478 23.5387 1.19478C23.7237 1.19478 23.8955 1.24435 24.0541 1.34347C24.216 1.44259 24.335 1.57808 24.411 1.74988C24.4771 1.58137 24.5877 1.44755 24.7431 1.34843C24.9017 1.24601 25.0784 1.19478 25.2734 1.19478C25.4419 1.19478 25.5988 1.23443 25.7442 1.31373C25.8896 1.39303 26.0069 1.50536 26.0961 1.65075C26.1853 1.79282 26.2299 1.9597 26.2299 2.15133V3.86122H26.0069V2.17611C26.0069 2.01751 25.9722 1.88203 25.9028 1.7697C25.8334 1.65405 25.7409 1.56483 25.6253 1.50207C25.5129 1.4393 25.389 1.4079 25.2535 1.4079C25.0982 1.4079 24.9628 1.44755 24.8471 1.52685C24.7348 1.60286 24.6472 1.70694 24.5845 1.83909C24.525 1.96795 24.4952 2.11334 24.4952 2.27523V3.86122H24.2722V2.17611C24.2722 2.01751 24.2375 1.88203 24.1681 1.7697C24.0987 1.65405 24.0062 1.56483 23.8906 1.50207C23.7783 1.4393 23.6544 1.4079 23.5189 1.4079C23.3636 1.4079 23.2281 1.44755 23.1125 1.52685C23.0001 1.60286 22.9125 1.70694 22.8498 1.83909C22.7903 1.96795 22.7606 2.11334 22.7606 2.27523V3.86122H22.5375ZM27.787 3.9207C27.6285 3.9207 27.4847 3.89096 27.3559 3.83148C27.2302 3.76872 27.1293 3.6828 27.0535 3.57376C26.9774 3.46143 26.9395 3.33257 26.9395 3.18718C26.9395 3.06823 26.9657 2.95424 27.0188 2.8452C27.0748 2.73287 27.164 2.63538 27.2865 2.55278C27.4118 2.47019 27.5789 2.41235 27.787 2.37932L28.7981 2.2108V2.05221C28.7981 1.85725 28.7301 1.70198 28.5949 1.58632C28.4625 1.46737 28.2859 1.4079 28.0646 1.4079C27.8961 1.4079 27.7407 1.44921 27.5987 1.5318C27.4564 1.6144 27.3459 1.72343 27.2666 1.85892L27.0684 1.75484C27.118 1.65571 27.1905 1.56483 27.2865 1.48224C27.3856 1.39632 27.501 1.32694 27.6334 1.27408C27.7655 1.22123 27.9092 1.19478 28.0646 1.19478C28.2529 1.19478 28.4179 1.23114 28.5602 1.30382C28.7054 1.3765 28.8179 1.47729 28.8972 1.60615C28.9797 1.73501 29.0211 1.8837 29.0211 2.05221V3.86122H28.7981V3.33586C28.7486 3.43828 28.6742 3.53411 28.5751 3.62332C28.4791 3.71254 28.3634 3.78521 28.2282 3.8414C28.0958 3.89425 27.9488 3.9207 27.787 3.9207ZM27.1675 3.17727C27.1675 3.34248 27.2284 3.47297 27.3509 3.56881C27.473 3.66464 27.6249 3.71254 27.8069 3.71254C28.0083 3.71254 28.1818 3.66464 28.3273 3.56881C28.476 3.47297 28.5914 3.34744 28.6742 3.19213C28.7567 3.03354 28.7981 2.86336 28.7981 2.68164V2.42392L27.8614 2.57756C27.6037 2.62051 27.4235 2.69651 27.3212 2.80555C27.2185 2.91459 27.1675 3.03849 27.1675 3.17727ZM29.8945 3.86122V0.109375H30.1175V2.70147L31.5895 1.25426H31.9265L30.8461 2.30993L32.0257 3.86122H31.7283L30.6627 2.46357L30.1175 3.01867V3.86122H29.8945ZM33.7271 3.9207C33.4792 3.9207 33.2562 3.86122 33.058 3.74227C32.8597 3.62003 32.7025 3.45648 32.5871 3.25161C32.4714 3.04345 32.4137 2.81217 32.4137 2.55774C32.4137 2.30002 32.4696 2.06874 32.5822 1.86387C32.6944 1.65571 32.8449 1.49216 33.0332 1.37321C33.2247 1.25426 33.4396 1.19478 33.6775 1.19478C33.9055 1.19478 34.1087 1.2493 34.2871 1.35834C34.4655 1.46737 34.6057 1.61606 34.7084 1.8044C34.8139 1.98944 34.867 2.19923 34.867 2.43384C34.867 2.48669 34.862 2.55112 34.8521 2.62713H32.6367C32.6498 2.83529 32.7043 3.02196 32.8002 3.18718C32.8958 3.34907 33.0233 3.47793 33.1819 3.57376C33.3437 3.66627 33.5253 3.71254 33.7271 3.71254C33.9154 3.71254 34.0853 3.66793 34.2375 3.57872C34.3894 3.48951 34.5116 3.36394 34.6043 3.20205L34.7926 3.30117C34.6967 3.4928 34.553 3.64481 34.3615 3.75714C34.1731 3.86618 33.9614 3.9207 33.7271 3.9207ZM33.6775 1.40294C33.4955 1.40294 33.3288 1.44755 33.1769 1.53676C33.0282 1.62597 32.9057 1.74821 32.8102 1.90352C32.7174 2.05883 32.6615 2.23392 32.6416 2.42888H34.639C34.639 2.23392 34.5958 2.06046 34.5101 1.90848C34.4241 1.75317 34.3084 1.63093 34.1632 1.54172C34.0209 1.44921 33.8591 1.40294 33.6775 1.40294ZM36.4824 3.9207C36.2512 3.9207 36.0462 3.86451 35.8678 3.75219C35.6894 3.63653 35.5555 3.47793 35.4663 3.27639L35.6745 3.18222C35.7605 3.34744 35.8727 3.4763 36.0115 3.56881C36.1535 3.66131 36.3107 3.70758 36.4824 3.70758C36.6675 3.70758 36.8226 3.66131 36.9482 3.56881C37.0771 3.4763 37.1415 3.35402 37.1415 3.20205C37.1415 2.96086 36.9829 2.7973 36.6657 2.71138L36.2345 2.59243C35.8115 2.47678 35.6002 2.24716 35.6002 1.90352C35.6002 1.76475 35.6348 1.64251 35.7042 1.53676C35.7768 1.42772 35.8745 1.34347 35.9966 1.284C36.1188 1.22452 36.2544 1.19478 36.4031 1.19478C36.6144 1.19478 36.8063 1.2493 36.978 1.35834C37.1532 1.46408 37.2736 1.60449 37.3398 1.77962L37.1217 1.87874C37.0491 1.73005 36.95 1.6144 36.8243 1.5318C36.6987 1.44921 36.5585 1.4079 36.4031 1.4079C36.2377 1.4079 36.1007 1.45417 35.9917 1.54667C35.8827 1.63918 35.8281 1.7565 35.8281 1.89856C35.8281 2.11664 35.9751 2.26699 36.2692 2.34958L36.7054 2.47348C36.9203 2.53296 37.0852 2.62546 37.201 2.75103C37.3168 2.87327 37.3745 3.02033 37.3745 3.19213C37.3745 3.33091 37.3348 3.45648 37.2555 3.56881C37.1762 3.67784 37.069 3.76376 36.9334 3.82653C36.8013 3.88929 36.6509 3.9207 36.4824 3.9207ZM40.9288 3.9207C40.681 3.9207 40.4579 3.86122 40.2597 3.74227C40.0614 3.62003 39.9046 3.45648 39.7888 3.25161C39.6734 3.04345 39.6154 2.81217 39.6154 2.55774C39.6154 2.30002 39.6717 2.06874 39.7839 1.86387C39.8965 1.65571 40.0466 1.49216 40.2349 1.37321C40.4268 1.25426 40.6413 1.19478 40.8792 1.19478C41.1072 1.19478 41.3104 1.2493 41.4888 1.35834C41.6673 1.46737 41.8078 1.61606 41.9101 1.8044C42.016 1.98944 42.0687 2.19923 42.0687 2.43384C42.0687 2.48669 42.0638 2.55112 42.0538 2.62713H39.8384C39.8519 2.83529 39.9064 3.02196 40.002 3.18718C40.0979 3.34907 40.225 3.47793 40.3836 3.57376C40.5457 3.66627 40.7273 3.71254 40.9288 3.71254C41.1171 3.71254 41.2874 3.66793 41.4393 3.57872C41.5915 3.48951 41.7136 3.36394 41.806 3.20205L41.9944 3.30117C41.8988 3.4928 41.7551 3.64481 41.5632 3.75714C41.3748 3.86618 41.1635 3.9207 40.9288 3.9207ZM40.8792 1.40294C40.6976 1.40294 40.5309 1.44755 40.3786 1.53676C40.2299 1.62597 40.1078 1.74821 40.0119 1.90352C39.9195 2.05883 39.8632 2.23392 39.8434 2.42888H41.8407C41.8407 2.23392 41.7979 2.06046 41.7119 1.90848C41.6262 1.75317 41.5104 1.63093 41.3649 1.54172C41.223 1.44921 41.0612 1.40294 40.8792 1.40294ZM43.5219 3.9207C43.3633 3.9207 43.2196 3.89096 43.0907 3.83148C42.9651 3.76872 42.8645 3.6828 42.7884 3.57376C42.7123 3.46143 42.6744 3.33257 42.6744 3.18718C42.6744 3.06823 42.701 2.95424 42.7537 2.8452C42.81 2.73287 42.8992 2.63538 43.0214 2.55278C43.147 2.47019 43.3138 2.41235 43.5219 2.37932L44.533 2.2108V2.05221C44.533 1.85725 44.4654 1.70198 44.3298 1.58632C44.1978 1.46737 44.0207 1.4079 43.7995 1.4079C43.631 1.4079 43.4756 1.44921 43.3336 1.5318C43.1916 1.6144 43.0808 1.72343 43.0015 1.85892L42.8033 1.75484C42.8528 1.65571 42.9254 1.56483 43.0214 1.48224C43.1205 1.39632 43.2362 1.32694 43.3683 1.27408C43.5003 1.22123 43.6441 1.19478 43.7995 1.19478C43.9878 1.19478 44.1531 1.23114 44.2951 1.30382C44.4406 1.3765 44.5528 1.47729 44.6321 1.60615C44.7146 1.73501 44.756 1.8837 44.756 2.05221V3.86122H44.533V3.33586C44.4834 3.43828 44.4091 3.53411 44.31 3.62332C44.214 3.71254 44.0986 3.78521 43.963 3.8414C43.831 3.89425 43.6837 3.9207 43.5219 3.9207ZM42.9024 3.17727C42.9024 3.34248 42.9637 3.47297 43.0858 3.56881C43.2079 3.66464 43.3602 3.71254 43.5418 3.71254C43.7432 3.71254 43.9167 3.66464 44.0622 3.56881C44.2108 3.47297 44.3266 3.34744 44.4091 3.19213C44.4916 3.03354 44.533 2.86336 44.533 2.68164V2.42392L43.5963 2.57756C43.3386 2.62051 43.1584 2.69651 43.056 2.80555C42.9537 2.91459 42.9024 3.03849 42.9024 3.17727ZM46.4818 3.9207C46.2507 3.9207 46.0457 3.86451 45.8673 3.75219C45.6889 3.63653 45.555 3.47793 45.4658 3.27639L45.674 3.18222C45.76 3.34744 45.8722 3.4763 46.011 3.56881C46.153 3.66131 46.3102 3.70758 46.4818 3.70758C46.667 3.70758 46.8221 3.66131 46.9477 3.56881C47.0766 3.4763 47.141 3.35402 47.141 3.20205C47.141 2.96086 46.9824 2.7973 46.6652 2.71138L46.234 2.59243C45.811 2.47678 45.5996 2.24716 45.5996 1.90352C45.5996 1.76475 45.6343 1.64251 45.7037 1.53676C45.7763 1.42772 45.874 1.34347 45.9961 1.284C46.1183 1.22452 46.2539 1.19478 46.4025 1.19478C46.6139 1.19478 46.8058 1.2493 46.9775 1.35834C47.1527 1.46408 47.2731 1.60449 47.3393 1.77962L47.1212 1.87874C47.0486 1.73005 46.9495 1.6144 46.8238 1.5318C46.6982 1.44921 46.558 1.4079 46.4025 1.4079C46.2372 1.4079 46.1002 1.45417 45.9912 1.54667C45.8821 1.63918 45.8276 1.7565 45.8276 1.89856C45.8276 2.11664 45.9745 2.26699 46.2687 2.34958L46.7049 2.47348C46.9198 2.53296 47.0847 2.62546 47.2005 2.75103C47.3163 2.87327 47.374 3.02033 47.374 3.19213C47.374 3.33091 47.3343 3.45648 47.255 3.56881C47.1757 3.67784 47.0685 3.76376 46.9329 3.82653C46.8008 3.88929 46.6504 3.9207 46.4818 3.9207ZM48.0533 4.95159C48.0137 4.95159 47.9676 4.94829 47.9145 4.94167C47.8618 4.93505 47.8105 4.92351 47.7609 4.90698V4.70377C47.8073 4.71698 47.8551 4.72526 47.9046 4.72856C47.9577 4.73518 48.0023 4.73847 48.0385 4.73847C48.2006 4.73518 48.3294 4.69057 48.425 4.60465C48.5242 4.52206 48.6084 4.39978 48.6778 4.23789L48.8414 3.85131L47.7906 1.25426H48.0434L48.9702 3.54402L49.9069 1.25426H50.1647L48.9157 4.26267C48.8796 4.35189 48.8251 4.44935 48.7521 4.55509C48.6828 4.66413 48.5904 4.75663 48.4746 4.83264C48.3624 4.91194 48.2218 4.95159 48.0533 4.95159ZM52.4073 3.89096C52.2056 3.89096 52.0505 3.83644 51.9415 3.7274C51.8324 3.61837 51.7779 3.45481 51.7779 3.23674V1.45251H51.2823V1.25426H51.5301C51.6951 1.25426 51.7779 1.16505 51.7779 0.986622V0.639689H52.0009V1.25426H52.5659V1.45251H52.0009V3.23674C52.0009 3.29621 52.0091 3.36064 52.0257 3.43003C52.0455 3.49942 52.0852 3.55889 52.1447 3.60846C52.2073 3.65473 52.3015 3.67784 52.4272 3.67784C52.4534 3.67784 52.4866 3.67618 52.5263 3.67289C52.5659 3.66959 52.5971 3.66627 52.6205 3.66297V3.86122C52.5872 3.87113 52.5475 3.87775 52.5015 3.88105C52.4583 3.88767 52.4272 3.89096 52.4073 3.89096ZM54.4907 3.9207C54.2429 3.9207 54.0199 3.86122 53.8216 3.74227C53.6234 3.62332 53.4666 3.46143 53.3508 3.25656C53.235 3.0484 53.1773 2.81546 53.1773 2.55774C53.1773 2.29673 53.235 2.06378 53.3508 1.85892C53.4666 1.65405 53.6234 1.49216 53.8216 1.37321C54.0199 1.25426 54.2429 1.19478 54.4907 1.19478C54.7417 1.19478 54.9647 1.25426 55.1598 1.37321C55.3581 1.49216 55.5149 1.65405 55.6306 1.85892C55.7464 2.06378 55.8041 2.29673 55.8041 2.55774C55.8041 2.81546 55.7464 3.0484 55.6306 3.25656C55.5149 3.46143 55.3581 3.62332 55.1598 3.74227C54.9647 3.86122 54.7417 3.9207 54.4907 3.9207ZM54.4907 3.70758C54.6922 3.70758 54.8741 3.65802 55.0359 3.55889C55.1977 3.45648 55.3265 3.3177 55.4225 3.14257C55.5184 2.96744 55.5662 2.77252 55.5662 2.55774C55.5662 2.33967 55.5184 2.14471 55.4225 1.97291C55.3301 1.79778 55.2026 1.66067 55.0409 1.56154C54.8791 1.45913 54.6957 1.4079 54.4907 1.4079C54.2893 1.4079 54.1059 1.45913 53.9406 1.56154C53.7788 1.66067 53.6499 1.79778 53.554 1.97291C53.4616 2.14471 53.4152 2.33967 53.4152 2.55774C53.4152 2.77252 53.463 2.96744 53.559 3.14257C53.6549 3.3177 53.7838 3.45648 53.9455 3.55889C54.1073 3.65802 54.2893 3.70758 54.4907 3.70758ZM57.3618 3.86122V0.109375H57.5848V1.63588C57.6574 1.50373 57.7646 1.39799 57.907 1.31869C58.0489 1.2361 58.2093 1.19478 58.3877 1.19478C58.5626 1.19478 58.7247 1.23443 58.8734 1.31373C59.0221 1.39303 59.1411 1.50536 59.2303 1.65075C59.3227 1.79282 59.369 1.9597 59.369 2.15133V3.86122H59.146V2.17611C59.146 2.01751 59.1113 1.88203 59.0419 1.7697C58.9725 1.65405 58.8784 1.56483 58.7594 1.50207C58.6437 1.4393 58.513 1.4079 58.3679 1.4079C58.2026 1.4079 58.0606 1.44755 57.9417 1.52685C57.8259 1.60286 57.7367 1.70694 57.674 1.83909C57.6145 1.96795 57.5848 2.11334 57.5848 2.27523V3.86122H57.3618ZM61.3926 3.9207C61.1448 3.9207 60.9218 3.86122 60.7235 3.74227C60.5253 3.62003 60.3684 3.45648 60.2527 3.25161C60.1369 3.04345 60.0792 2.81217 60.0792 2.55774C60.0792 2.30002 60.1355 2.06874 60.2477 1.86387C60.3599 1.65571 60.5104 1.49216 60.6987 1.37321C60.8902 1.25426 61.1051 1.19478 61.343 1.19478C61.571 1.19478 61.7742 1.2493 61.9526 1.35834C62.1311 1.46737 62.2716 1.61606 62.3739 1.8044C62.4798 1.98944 62.5325 2.19923 62.5325 2.43384C62.5325 2.48669 62.5276 2.55112 62.5176 2.62713H60.3022C60.3153 2.83529 60.3698 3.02196 60.4658 3.18718C60.5617 3.34907 60.6888 3.47793 60.8474 3.57376C61.0092 3.66627 61.1912 3.71254 61.3926 3.71254C61.5809 3.71254 61.7512 3.66793 61.9031 3.57872C62.055 3.48951 62.1774 3.36394 62.2698 3.20205L62.4582 3.30117C62.3622 3.4928 62.2185 3.64481 62.027 3.75714C61.8386 3.86618 61.6273 3.9207 61.3926 3.9207ZM61.343 1.40294C61.1614 1.40294 60.9943 1.44755 60.8425 1.53676C60.6938 1.62597 60.5716 1.74821 60.4757 1.90352C60.3833 2.05883 60.327 2.23392 60.3072 2.42888H62.3045C62.3045 2.23392 62.2617 2.06046 62.1757 1.90848C62.0896 1.75317 61.9742 1.63093 61.8287 1.54172C61.6868 1.44921 61.5246 1.40294 61.343 1.40294ZM63.2954 3.86122V0.109375H63.5184V3.86122H63.2954ZM64.3893 4.85246V1.25426H64.6124V1.82422C64.715 1.63259 64.8602 1.48058 65.0485 1.36825C65.2368 1.25259 65.4485 1.19478 65.6829 1.19478C65.9275 1.19478 66.1456 1.25426 66.3371 1.37321C66.5322 1.49216 66.6858 1.65571 66.798 1.86387C66.9106 2.06874 66.9666 2.30002 66.9666 2.55774C66.9666 2.81546 66.9106 3.04674 66.798 3.25161C66.6858 3.45648 66.5322 3.62003 66.3371 3.74227C66.1456 3.86122 65.9275 3.9207 65.6829 3.9207C65.4485 3.9207 65.2368 3.86451 65.0485 3.75219C64.8602 3.63653 64.715 3.48289 64.6124 3.29126V4.85246H64.3893ZM65.6829 3.69767C65.8847 3.69767 66.0631 3.6481 66.2182 3.54898C66.3768 3.44986 66.5007 3.31438 66.5899 3.14257C66.6826 2.97077 66.7287 2.77581 66.7287 2.55774C66.7287 2.33967 66.6826 2.14471 66.5899 1.97291C66.5007 1.8011 66.3768 1.66562 66.2182 1.5665C66.0631 1.46737 65.8847 1.41781 65.6829 1.41781C65.4846 1.41781 65.3048 1.46737 65.1427 1.5665C64.9841 1.66562 64.8587 1.8011 64.766 1.97291C64.6736 2.14142 64.6272 2.33637 64.6272 2.55774C64.6272 2.77581 64.6736 2.97077 64.766 3.14257C64.8587 3.31438 64.9841 3.44986 65.1427 3.54898C65.3048 3.6481 65.4846 3.69767 65.6829 3.69767ZM68.4881 4.95159C68.4485 4.95159 68.4021 4.94829 68.3493 4.94167C68.2966 4.93505 68.2452 4.92351 68.1957 4.90698V4.70377C68.2421 4.71698 68.2899 4.72526 68.3394 4.72856C68.3922 4.73518 68.4368 4.73847 68.4732 4.73847C68.635 4.73518 68.7639 4.69057 68.8598 4.60465C68.9589 4.52206 69.0432 4.39978 69.1126 4.23789L69.2761 3.85131L68.2254 1.25426H68.4782L69.405 3.54402L70.3417 1.25426H70.5994L69.3505 4.26267C69.314 4.35189 69.2595 4.44935 69.1869 4.55509C69.1175 4.66413 69.0251 4.75663 68.9094 4.83264C68.7972 4.91194 68.6566 4.95159 68.4881 4.95159ZM72.3019 3.9207C72.0541 3.9207 71.8311 3.86122 71.6328 3.74227C71.4346 3.62332 71.2777 3.46143 71.162 3.25656C71.0466 3.0484 70.9885 2.81546 70.9885 2.55774C70.9885 2.29673 71.0466 2.06378 71.162 1.85892C71.2777 1.65405 71.4346 1.49216 71.6328 1.37321C71.8311 1.25426 72.0541 1.19478 72.3019 1.19478C72.5533 1.19478 72.7763 1.25426 72.971 1.37321C73.1692 1.49216 73.3264 1.65405 73.4418 1.85892C73.5576 2.06378 73.6153 2.29673 73.6153 2.55774C73.6153 2.81546 73.5576 3.0484 73.4418 3.25656C73.3264 3.46143 73.1692 3.62332 72.971 3.74227C72.7763 3.86122 72.5533 3.9207 72.3019 3.9207ZM72.3019 3.70758C72.5037 3.70758 72.6853 3.65802 72.8471 3.55889C73.0092 3.45648 73.1381 3.3177 73.2337 3.14257C73.3296 2.96744 73.3774 2.77252 73.3774 2.55774C73.3774 2.33967 73.3296 2.14471 73.2337 1.97291C73.1413 1.79778 73.0142 1.66067 72.852 1.56154C72.6903 1.45913 72.5069 1.4079 72.3019 1.4079C72.1005 1.4079 71.9171 1.45913 71.7518 1.56154C71.59 1.66067 71.4611 1.79778 71.3652 1.97291C71.2728 2.14471 71.2264 2.33967 71.2264 2.55774C71.2264 2.77252 71.2746 2.96744 71.3701 3.14257C71.4661 3.3177 71.5949 3.45648 71.7567 3.55889C71.9189 3.65802 72.1005 3.70758 72.3019 3.70758ZM75.3061 3.9207C75.1344 3.9207 74.974 3.88271 74.8253 3.8067C74.6766 3.7307 74.5559 3.62003 74.4635 3.47464C74.3711 3.32924 74.3247 3.15082 74.3247 2.93937V1.25426H74.5478V2.93937C74.5478 3.10459 74.5825 3.24499 74.6519 3.36064C74.7244 3.4763 74.8204 3.56385 74.9393 3.62332C75.0583 3.67951 75.1871 3.70758 75.3259 3.70758C75.4944 3.70758 75.6364 3.66959 75.7521 3.59359C75.8711 3.51429 75.9603 3.40854 76.0198 3.27639C76.0792 3.14424 76.109 2.99884 76.109 2.84024V1.25426H76.332V3.86122H76.109V3.47959C76.0364 3.61175 75.9288 3.71916 75.7868 3.80175C75.6481 3.88105 75.4877 3.9207 75.3061 3.9207ZM0.994514 10.2335V7.62652H1.21754V8.00815C1.28693 7.8761 1.39101 7.77025 1.52978 7.69095C1.67185 7.60847 1.82716 7.56705 1.99567 7.56705C2.18071 7.56705 2.35251 7.61661 2.51111 7.71573C2.673 7.81486 2.79195 7.95044 2.86796 8.12214C2.93405 7.95363 3.04472 7.81981 3.20003 7.72069C3.35862 7.61838 3.53538 7.56705 3.73034 7.56705C3.89885 7.56705 4.05578 7.6067 4.20118 7.686C4.34657 7.76529 4.46386 7.87752 4.55307 8.02302C4.64228 8.16498 4.68689 8.33207 4.68689 8.52359V10.2335H4.46386V8.54837C4.46386 8.38978 4.42916 8.25419 4.35978 8.14197C4.29039 8.0262 4.19789 7.93699 4.08223 7.87433C3.9699 7.81167 3.84599 7.78016 3.71051 7.78016C3.55521 7.78016 3.41976 7.81981 3.30411 7.89911C3.19178 7.97522 3.10419 8.07931 3.04143 8.21135C2.98195 8.34021 2.95221 8.48571 2.95221 8.6475V10.2335H2.72919V8.54837C2.72919 8.38978 2.69449 8.25419 2.62511 8.14197C2.55572 8.0262 2.46321 7.93699 2.34756 7.87433C2.23523 7.81167 2.11132 7.78016 1.97584 7.78016C1.82054 7.78016 1.68509 7.81981 1.56943 7.89911C1.45711 7.97522 1.36952 8.07931 1.30675 8.21135C1.24728 8.34021 1.21754 8.48571 1.21754 8.6475V10.2335H0.994514ZM6.24391 10.293C6.08531 10.293 5.94159 10.2632 5.81272 10.2037C5.68715 10.1411 5.5864 10.0551 5.5104 9.94602C5.43439 9.8338 5.3964 9.70494 5.3964 9.55944C5.3964 9.44049 5.42285 9.3265 5.4757 9.21746C5.53188 9.10524 5.62109 9.00753 5.74334 8.92505C5.86891 8.84256 6.03575 8.7845 6.24391 8.75158L7.25498 8.58307V8.42447C7.25498 8.22941 7.18726 8.07435 7.05177 7.95859C6.91962 7.83964 6.74283 7.78016 6.52146 7.78016C6.35295 7.78016 6.19764 7.82158 6.05558 7.90407C5.91351 7.98655 5.80281 8.09559 5.72351 8.23118L5.52526 8.1271C5.57483 8.02797 5.6475 7.93699 5.74334 7.85451C5.84246 7.76848 5.95812 7.69909 6.09027 7.64635C6.22242 7.5936 6.36615 7.56705 6.52146 7.56705C6.7098 7.56705 6.87502 7.60351 7.01708 7.67608C7.16248 7.74866 7.2748 7.84955 7.3541 7.97841C7.4367 8.10727 7.47801 8.25596 7.47801 8.42447V10.2335H7.25498V9.70813C7.20542 9.81044 7.13107 9.90637 7.03195 9.99559C6.93612 10.0848 6.8205 10.1574 6.68501 10.2137C6.55286 10.2664 6.4058 10.293 6.24391 10.293ZM5.62439 9.54953C5.62439 9.71485 5.68553 9.84513 5.80777 9.94107C5.93001 10.037 6.08202 10.0848 6.26374 10.0848C6.46528 10.0848 6.63875 10.037 6.78414 9.94107C6.93283 9.84513 7.04848 9.71981 7.13107 9.5644C7.21367 9.4058 7.25498 9.23552 7.25498 9.05391V8.79619L6.31826 8.94983C6.06053 8.99266 5.88045 9.06878 5.77803 9.17781C5.67561 9.28685 5.62439 9.41075 5.62439 9.54953ZM8.3514 10.2335V7.62652H8.57443V8.00815C8.64711 7.8761 8.75448 7.77025 8.89658 7.69095C9.03865 7.60847 9.19891 7.56705 9.37733 7.56705C9.55243 7.56705 9.71435 7.6067 9.86304 7.686C10.0117 7.76529 10.1307 7.87752 10.2199 8.02302C10.3124 8.16498 10.3587 8.33207 10.3587 8.52359V10.2335H10.1356V8.54837C10.1356 8.38978 10.1009 8.25419 10.0316 8.14197C9.96216 8.0262 9.868 7.93699 9.74905 7.87433C9.63339 7.81167 9.50287 7.78016 9.35751 7.78016C9.19229 7.78016 9.05022 7.81981 8.93127 7.89911C8.81562 7.97522 8.72641 8.07931 8.66364 8.21135C8.60416 8.34021 8.57443 8.48571 8.57443 8.6475V10.2335H8.3514ZM11.9164 10.293C11.7578 10.293 11.6141 10.2632 11.4852 10.2037C11.3597 10.1411 11.2589 10.0551 11.1829 9.94602C11.1069 9.8338 11.0689 9.70494 11.0689 9.55944C11.0689 9.44049 11.0954 9.3265 11.1482 9.21746C11.2044 9.10524 11.2936 9.00753 11.4159 8.92505C11.5414 8.84256 11.7083 8.7845 11.9164 8.75158L12.9275 8.58307V8.42447C12.9275 8.22941 12.8598 8.07435 12.7243 7.95859C12.5921 7.83964 12.4154 7.78016 12.194 7.78016C12.0255 7.78016 11.8702 7.82158 11.7281 7.90407C11.586 7.98655 11.4753 8.09559 11.396 8.23118L11.1978 8.1271C11.2473 8.02797 11.3201 7.93699 11.4159 7.85451C11.515 7.76848 11.6306 7.69909 11.7628 7.64635C11.895 7.5936 12.0387 7.56705 12.194 7.56705C12.3823 7.56705 12.5475 7.60351 12.6896 7.67608C12.835 7.74866 12.9473 7.84955 13.0266 7.97841C13.1092 8.10727 13.1505 8.25596 13.1505 8.42447V10.2335H12.9275V9.70813C12.8779 9.81044 12.8036 9.90637 12.7045 9.99559C12.6087 10.0848 12.493 10.1574 12.3575 10.2137C12.2254 10.2664 12.0784 10.293 11.9164 10.293ZM11.2969 9.54953C11.2969 9.71485 11.358 9.84513 11.4803 9.94107C11.6026 10.037 11.7545 10.0848 11.9363 10.0848C12.1378 10.0848 12.3113 10.037 12.4567 9.94107C12.6053 9.84513 12.721 9.71981 12.8036 9.5644C12.8862 9.4058 12.9275 9.23552 12.9275 9.05391V8.79619L11.9908 8.94983C11.7331 8.99266 11.553 9.06878 11.4505 9.17781C11.3481 9.28685 11.2969 9.41075 11.2969 9.54953ZM15.2283 11.3238C14.9772 11.3238 14.7541 11.2644 14.5592 11.1454C14.3642 11.0265 14.2189 10.8796 14.123 10.7043L14.3114 10.5953C14.4072 10.7571 14.5344 10.8845 14.693 10.9769C14.8516 11.0693 15.03 11.1157 15.2283 11.1157C15.3935 11.1157 15.5504 11.081 15.6991 11.0116C15.8511 10.9454 15.975 10.8399 16.0708 10.6944C16.17 10.5525 16.2195 10.3691 16.2195 10.1443V9.57926C16.1171 9.7676 15.975 9.91806 15.7933 10.0303C15.6116 10.1393 15.405 10.1938 15.1738 10.1938C14.9326 10.1938 14.7161 10.1344 14.5245 10.0154C14.3362 9.89646 14.1875 9.73786 14.0784 9.53962C13.9694 9.34137 13.9149 9.12152 13.9149 8.88044C13.9149 8.63936 13.9694 8.41951 14.0784 8.22127C14.1875 8.02302 14.3362 7.86442 14.5245 7.74547C14.7161 7.62652 14.9326 7.56705 15.1738 7.56705C15.405 7.56705 15.6116 7.62333 15.7933 7.73556C15.975 7.84459 16.1171 7.99328 16.2195 8.18162V7.62652H16.4425V10.1443C16.4425 10.3723 16.3897 10.5755 16.2839 10.7539C16.1815 10.9323 16.0394 11.0711 15.8577 11.1702C15.676 11.2725 15.4662 11.3238 15.2283 11.3238ZM15.1738 9.97081C15.3753 9.97081 15.5521 9.92301 15.7041 9.82707C15.8594 9.72795 15.9816 9.5959 16.0708 9.43058C16.16 9.26525 16.2046 9.08187 16.2046 8.88044C16.2046 8.67547 16.16 8.49209 16.0708 8.3303C15.9816 8.16498 15.8594 8.0347 15.7041 7.93876C15.5521 7.83964 15.3753 7.79007 15.1738 7.79007C14.9722 7.79007 14.7938 7.83964 14.6385 7.93876C14.4865 8.0347 14.3676 8.16498 14.2816 8.3303C14.1957 8.49563 14.1528 8.67901 14.1528 8.88044C14.1528 9.08187 14.1957 9.26525 14.2816 9.43058C14.3676 9.5959 14.4865 9.72795 14.6385 9.82707C14.7938 9.92301 14.9722 9.97081 15.1738 9.97081ZM18.5195 10.293C18.2717 10.293 18.0487 10.2335 17.8504 10.1145C17.6522 9.9924 17.4952 9.82885 17.3796 9.62387C17.2639 9.41571 17.2061 9.18454 17.2061 8.93C17.2061 8.67228 17.2623 8.44111 17.3746 8.23613C17.487 8.02797 17.6373 7.86442 17.8256 7.74547C18.0173 7.62652 18.232 7.56705 18.4699 7.56705C18.6979 7.56705 18.9011 7.62156 19.0796 7.7306C19.258 7.83964 19.3984 7.98832 19.5008 8.17666C19.6065 8.36181 19.6594 8.57139 19.6594 8.8061C19.6594 8.85885 19.6545 8.92328 19.6446 8.99939H17.4291C17.4424 9.20755 17.4969 9.39412 17.5927 9.55944C17.6885 9.72122 17.8157 9.85009 17.9743 9.94602C18.1362 10.0384 18.3179 10.0848 18.5195 10.0848C18.7078 10.0848 18.878 10.0402 19.03 9.95098C19.182 9.86177 19.3042 9.73609 19.3968 9.57431L19.5851 9.67343C19.4893 9.86495 19.3455 10.0172 19.1539 10.1294C18.9656 10.2384 18.7541 10.293 18.5195 10.293ZM18.4699 7.77521C18.2882 7.77521 18.1214 7.81981 17.9694 7.90902C17.8207 7.99823 17.6984 8.12037 17.6026 8.27578C17.5101 8.4312 17.4539 8.60608 17.4341 8.80114H19.4315C19.4315 8.60608 19.3885 8.43261 19.3026 8.28074C19.2167 8.12533 19.101 8.00319 18.9557 7.91398C18.8136 7.82158 18.6517 7.77521 18.4699 7.77521ZM22.4206 11.3238C22.1695 11.3238 21.9464 11.2644 21.7515 11.1454C21.5565 11.0265 21.4112 10.8796 21.3153 10.7043L21.5037 10.5953C21.5995 10.7571 21.7267 10.8845 21.8853 10.9769C22.0439 11.0693 22.2223 11.1157 22.4206 11.1157C22.5858 11.1157 22.7427 11.081 22.8914 11.0116C23.0434 10.9454 23.1673 10.8399 23.2631 10.6944C23.3623 10.5525 23.4118 10.3691 23.4118 10.1443V9.57926C23.3094 9.7676 23.1673 9.91806 22.9856 10.0303C22.8039 10.1393 22.5973 10.1938 22.3661 10.1938C22.1249 10.1938 21.9084 10.1344 21.7168 10.0154C21.5285 9.89646 21.3798 9.73786 21.2707 9.53962C21.1617 9.34137 21.1072 9.12152 21.1072 8.88044C21.1072 8.63936 21.1617 8.41951 21.2707 8.22127C21.3798 8.02302 21.5285 7.86442 21.7168 7.74547C21.9084 7.62652 22.1249 7.56705 22.3661 7.56705C22.5973 7.56705 22.8039 7.62333 22.9856 7.73556C23.1673 7.84459 23.3094 7.99328 23.4118 8.18162V7.62652H23.6348V10.1443C23.6348 10.3723 23.582 10.5755 23.4762 10.7539C23.3738 10.9323 23.2317 11.0711 23.05 11.1702C22.8683 11.2725 22.6585 11.3238 22.4206 11.3238ZM22.3661 9.97081C22.5676 9.97081 22.7444 9.92301 22.8964 9.82707C23.0517 9.72795 23.1739 9.5959 23.2631 9.43058C23.3523 9.26525 23.3969 9.08187 23.3969 8.88044C23.3969 8.67547 23.3523 8.49209 23.2631 8.3303C23.1739 8.16498 23.0517 8.0347 22.8964 7.93876C22.7444 7.83964 22.5676 7.79007 22.3661 7.79007C22.1645 7.79007 21.9861 7.83964 21.8308 7.93876C21.6788 8.0347 21.5599 8.16498 21.4739 8.3303C21.388 8.49563 21.3451 8.67901 21.3451 8.88044C21.3451 9.08187 21.388 9.26525 21.4739 9.43058C21.5599 9.5959 21.6788 9.72795 21.8308 9.82707C21.9861 9.92301 22.1645 9.97081 22.3661 9.97081ZM24.5075 10.2335V7.62652H24.7305V8.00319C24.7999 7.87433 24.9006 7.77521 25.0328 7.70582C25.1683 7.63325 25.3186 7.59678 25.4838 7.59678H25.6474V7.81981H25.4789C25.241 7.81981 25.0559 7.89734 24.9238 8.05275C24.7949 8.20817 24.7305 8.40641 24.7305 8.6475V10.2335H24.5075ZM27.3962 10.293C27.1484 10.293 26.9254 10.2335 26.7271 10.1145C26.5289 9.99559 26.3718 9.8338 26.2562 9.62883C26.1406 9.42067 26.0828 9.18773 26.0828 8.93C26.0828 8.66909 26.1406 8.43615 26.2562 8.23118C26.3718 8.0262 26.5289 7.86442 26.7271 7.74547C26.9254 7.62652 27.1484 7.56705 27.3962 7.56705C27.6472 7.56705 27.8702 7.62652 28.0653 7.74547C28.2635 7.86442 28.4204 8.0262 28.5361 8.23118C28.6516 8.43615 28.7096 8.66909 28.7096 8.93C28.7096 9.18773 28.6516 9.42067 28.5361 9.62883C28.4204 9.8338 28.2635 9.99559 28.0653 10.1145C27.8702 10.2335 27.6472 10.293 27.3962 10.293ZM27.3962 10.0798C27.5976 10.0798 27.7793 10.0303 27.9414 9.93116C28.1032 9.82885 28.232 9.69007 28.328 9.51483C28.4236 9.3396 28.4717 9.14489 28.4717 8.93C28.4717 8.71193 28.4236 8.51687 28.328 8.34517C28.2352 8.16993 28.1081 8.03293 27.9464 7.9338C27.7842 7.83149 27.6008 7.78016 27.3962 7.78016C27.1944 7.78016 27.011 7.83149 26.8461 7.9338C26.6839 8.03293 26.5551 8.16993 26.4595 8.34517C26.3669 8.51687 26.3206 8.71193 26.3206 8.93C26.3206 9.14489 26.3685 9.3396 26.4644 9.51483C26.56 9.69007 26.6889 9.82885 26.851 9.93116C27.0128 10.0303 27.1944 10.0798 27.3962 10.0798ZM29.9901 10.2335L29.098 7.62652H29.3458L30.109 9.90142L30.7732 7.62652H31.0111L31.6752 9.89646L32.4434 7.62652H32.6912L31.7941 10.2335H31.5562L30.8921 7.97841L30.228 10.2335H29.9901ZM33.9933 11.3238C33.9536 11.3238 33.9073 11.3207 33.8545 11.3139C33.8014 11.3072 33.7504 11.2959 33.7009 11.2792V11.076C33.7469 11.0891 33.795 11.0976 33.8446 11.1008C33.8973 11.1075 33.9419 11.1107 33.9784 11.1107C34.1402 11.1075 34.2691 11.0629 34.365 10.9769C34.4641 10.8944 34.5484 10.7719 34.6178 10.6102L34.7813 10.2236L33.7306 7.62652H33.9834L34.9102 9.91629L35.8469 7.62652H36.1046L34.8557 10.6349C34.8192 10.7241 34.7647 10.8215 34.6921 10.9274C34.6227 11.0364 34.53 11.1288 34.4146 11.2049C34.302 11.2842 34.1618 11.3238 33.9933 11.3238ZM37.8071 10.293C37.5593 10.293 37.3362 10.2335 37.138 10.1145C36.9397 9.99559 36.7829 9.8338 36.6672 9.62883C36.5514 9.42067 36.4937 9.18773 36.4937 8.93C36.4937 8.66909 36.5514 8.43615 36.6672 8.23118C36.7829 8.0262 36.9397 7.86442 37.138 7.74547C37.3362 7.62652 37.5593 7.56705 37.8071 7.56705C38.0581 7.56705 38.2811 7.62652 38.4762 7.74547C38.6744 7.86442 38.8312 8.0262 38.947 8.23118C39.0628 8.43615 39.1205 8.66909 39.1205 8.93C39.1205 9.18773 39.0628 9.42067 38.947 9.62883C38.8312 9.8338 38.6744 9.99559 38.4762 10.1145C38.2811 10.2335 38.0581 10.293 37.8071 10.293ZM37.8071 10.0798C38.0085 10.0798 38.1905 10.0303 38.3523 9.93116C38.514 9.82885 38.6429 9.69007 38.7388 9.51483C38.8348 9.3396 38.8826 9.14489 38.8826 8.93C38.8826 8.71193 38.8348 8.51687 38.7388 8.34517C38.6464 8.16993 38.519 8.03293 38.3572 7.9338C38.1954 7.83149 38.0121 7.78016 37.8071 7.78016C37.6056 7.78016 37.4223 7.83149 37.2569 7.9338C37.0952 8.03293 36.9663 8.16993 36.8704 8.34517C36.778 8.51687 36.7316 8.71193 36.7316 8.93C36.7316 9.14489 36.7794 9.3396 36.8753 9.51483C36.9712 9.69007 37.1001 9.82885 37.2619 9.93116C37.4237 10.0303 37.6056 10.0798 37.8071 10.0798ZM40.8112 10.293C40.6392 10.293 40.4792 10.2551 40.3305 10.179C40.1818 10.1029 40.0611 9.9924 39.9687 9.8469C39.8759 9.7014 39.8299 9.52298 39.8299 9.31163V7.62652H40.0529V9.31163C40.0529 9.47696 40.0876 9.61714 40.157 9.73291C40.2296 9.84867 40.3255 9.93611 40.4445 9.99559C40.5634 10.0519 40.6923 10.0798 40.8311 10.0798C40.9996 10.0798 41.1415 10.042 41.2573 9.96585C41.3763 9.88655 41.4655 9.7807 41.5249 9.64865C41.5844 9.5166 41.6142 9.3711 41.6142 9.2125V7.62652H41.8372V10.2335H41.6142V9.85186C41.5412 9.9839 41.434 10.0915 41.292 10.174C41.1532 10.2533 40.9929 10.293 40.8112 10.293ZM42.7109 10.2335V7.62652H42.9339V8.00319C43.0033 7.87433 43.1042 7.77521 43.2362 7.70582C43.3718 7.63325 43.5219 7.59678 43.6873 7.59678H43.8508V7.81981H43.6823C43.4444 7.81981 43.2593 7.89734 43.1272 8.05275C42.9983 8.20817 42.9339 8.40641 42.9339 8.6475V10.2335H42.7109ZM46.4826 10.293C46.2478 10.293 46.0365 10.2367 45.8482 10.1244C45.6598 10.0087 45.5143 9.85504 45.412 9.66352V10.2335H45.189V6.48164H45.412V8.19648C45.5143 8.00496 45.6598 7.85274 45.8482 7.74051C46.0365 7.62475 46.2478 7.56705 46.4826 7.56705C46.7272 7.56705 46.9453 7.62652 47.1368 7.74547C47.3318 7.86442 47.4855 8.02797 47.5977 8.23613C47.7099 8.44111 47.7662 8.67228 47.7662 8.93C47.7662 9.18773 47.7099 9.4189 47.5977 9.62387C47.4855 9.82885 47.3318 9.9924 47.1368 10.1145C46.9453 10.2335 46.7272 10.293 46.4826 10.293ZM46.4826 10.0699C46.684 10.0699 46.8624 10.0204 47.0178 9.92124C47.1764 9.82212 47.3003 9.68653 47.3895 9.51483C47.4819 9.34314 47.5283 9.14808 47.5283 8.93C47.5283 8.71193 47.4819 8.51687 47.3895 8.34517C47.3003 8.17347 47.1764 8.03788 47.0178 7.93876C46.8624 7.83964 46.684 7.79007 46.4826 7.79007C46.2843 7.79007 46.1041 7.83964 45.9423 7.93876C45.7837 8.03788 45.6581 8.17347 45.5657 8.34517C45.4733 8.51368 45.4269 8.70874 45.4269 8.93C45.4269 9.14808 45.4733 9.34314 45.5657 9.51483C45.6581 9.68653 45.7837 9.82212 45.9423 9.92124C46.1041 10.0204 46.2843 10.0699 46.4826 10.0699ZM49.4552 10.293C49.2835 10.293 49.1231 10.2551 48.9745 10.179C48.8258 10.1029 48.7054 9.9924 48.6127 9.8469C48.5203 9.7014 48.4739 9.52298 48.4739 9.31163V7.62652H48.6969V9.31163C48.6969 9.47696 48.7316 9.61714 48.801 9.73291C48.8739 9.84867 48.9695 9.93611 49.0885 9.99559C49.2074 10.0519 49.3363 10.0798 49.475 10.0798C49.6436 10.0798 49.7859 10.042 49.9013 9.96585C50.0202 9.88655 50.1094 9.7807 50.1689 9.64865C50.2284 9.5166 50.2581 9.3711 50.2581 9.2125V7.62652H50.4812V10.2335H50.2581V9.85186C50.1856 9.9839 50.0783 10.0915 49.936 10.174C49.7972 10.2533 49.6372 10.293 49.4552 10.293ZM52.2077 10.293C51.9765 10.293 51.7715 10.2367 51.5931 10.1244C51.4147 10.0087 51.2809 9.85009 51.1917 9.64865L51.3998 9.55448C51.4858 9.71981 51.5981 9.84867 51.7368 9.94107C51.8788 10.0335 52.036 10.0798 52.2077 10.0798C52.3928 10.0798 52.5479 10.0335 52.6736 9.94107C52.8024 9.84867 52.8669 9.72618 52.8669 9.57431C52.8669 9.33323 52.7083 9.16967 52.3911 9.08364L51.9599 8.9647C51.5368 8.84893 51.3255 8.61953 51.3255 8.27578C51.3255 8.13701 51.3602 8.01487 51.4296 7.90902C51.5021 7.79999 51.5998 7.71573 51.722 7.65626C51.8441 7.59678 51.9797 7.56705 52.1284 7.56705C52.3397 7.56705 52.5316 7.62156 52.7033 7.7306C52.8785 7.83645 52.9989 7.97664 53.0651 8.15188L52.847 8.251C52.7745 8.10232 52.6753 7.98655 52.5497 7.90407C52.424 7.82158 52.2838 7.78016 52.1284 7.78016C51.9631 7.78016 51.826 7.82654 51.717 7.91894C51.608 8.01133 51.5535 8.12887 51.5535 8.27083C51.5535 8.4889 51.7004 8.63936 51.9946 8.72184L52.4307 8.84575C52.6456 8.90522 52.8106 8.99762 52.9263 9.12329C53.0421 9.24543 53.0998 9.3927 53.0998 9.5644C53.0998 9.70317 53.0602 9.82885 52.9809 9.94107C52.9016 10.0501 52.7943 10.1361 52.6587 10.1988C52.5266 10.2615 52.3762 10.293 52.2077 10.293ZM53.8623 7.08629V6.54111H54.0854V7.08629H53.8623ZM53.8623 10.2335V7.62652H54.0854V10.2335H53.8623ZM54.9563 10.2335V7.62652H55.1793V8.00815C55.2519 7.8761 55.3591 7.77025 55.5014 7.69095C55.6434 7.60847 55.8038 7.56705 55.9822 7.56705C56.1571 7.56705 56.3192 7.6067 56.4679 7.686C56.6166 7.76529 56.7355 7.87752 56.8247 8.02302C56.9171 8.16498 56.9635 8.33207 56.9635 8.52359V10.2335H56.7405V8.54837C56.7405 8.38978 56.7058 8.25419 56.6364 8.14197C56.567 8.0262 56.4729 7.93699 56.3539 7.87433C56.2381 7.81167 56.1075 7.78016 55.9624 7.78016C55.797 7.78016 55.6551 7.81981 55.5361 7.89911C55.4204 7.97522 55.3312 8.07931 55.2685 8.21135C55.209 8.34021 55.1793 8.48571 55.1793 8.6475V10.2335H54.9563ZM58.9871 10.293C58.7393 10.293 58.5162 10.2335 58.318 10.1145C58.1197 9.9924 57.9629 9.82885 57.8471 9.62387C57.7314 9.41571 57.6737 9.18454 57.6737 8.93C57.6737 8.67228 57.73 8.44111 57.8422 8.23613C57.9544 8.02797 58.1049 7.86442 58.2932 7.74547C58.4847 7.62652 58.6996 7.56705 58.9375 7.56705C59.1655 7.56705 59.3687 7.62156 59.5471 7.7306C59.7255 7.83964 59.8661 7.98832 59.9684 8.17666C60.0742 8.36181 60.127 8.57139 60.127 8.8061C60.127 8.85885 60.122 8.92328 60.1121 8.99939H57.8967C57.9098 9.20755 57.9643 9.39412 58.0602 9.55944C58.1562 9.72122 58.2833 9.85009 58.4419 9.94602C58.6037 10.0384 58.7856 10.0848 58.9871 10.0848C59.1754 10.0848 59.3457 10.0402 59.4976 9.95098C59.6494 9.86177 59.7719 9.73609 59.8643 9.57431L60.0526 9.67343C59.9567 9.86495 59.813 10.0172 59.6215 10.1294C59.4331 10.2384 59.2218 10.293 58.9871 10.293ZM58.9375 7.77521C58.7559 7.77521 58.5888 7.81981 58.4369 7.90902C58.2882 7.99823 58.1661 8.12037 58.0702 8.27578C57.9778 8.4312 57.9215 8.60608 57.9016 8.80114H59.899C59.899 8.60608 59.8562 8.43261 59.7701 8.28074C59.6841 8.12533 59.5687 8.00319 59.4232 7.91398C59.2812 7.82158 59.1191 7.77521 58.9375 7.77521ZM61.7424 10.293C61.5112 10.293 61.3062 10.2367 61.1278 10.1244C60.9494 10.0087 60.8155 9.85009 60.7263 9.64865L60.9345 9.55448C61.0205 9.71981 61.1327 9.84867 61.2715 9.94107C61.4138 10.0335 61.5707 10.0798 61.7424 10.0798C61.9275 10.0798 62.0829 10.0335 62.2082 9.94107C62.3371 9.84867 62.4015 9.72618 62.4015 9.57431C62.4015 9.33323 62.2429 9.16967 61.9257 9.08364L61.4945 8.9647C61.0718 8.84893 60.8602 8.61953 60.8602 8.27578C60.8602 8.13701 60.8948 8.01487 60.9642 7.90902C61.0372 7.79999 61.1345 7.71573 61.2566 7.65626C61.3791 7.59678 61.5144 7.56705 61.6631 7.56705C61.8748 7.56705 62.0663 7.62156 62.238 7.7306C62.4132 7.83645 62.5339 7.97664 62.5998 8.15188L62.3817 8.251C62.3091 8.10232 62.21 7.98655 62.0843 7.90407C61.959 7.82158 61.8185 7.78016 61.6631 7.78016C61.4981 7.78016 61.3607 7.82654 61.2517 7.91894C61.1427 8.01133 61.0881 8.12887 61.0881 8.27083C61.0881 8.4889 61.2354 8.63936 61.5292 8.72184L61.9654 8.84575C62.1803 8.90522 62.3456 8.99762 62.461 9.12329C62.5768 9.24543 62.6345 9.3927 62.6345 9.5644C62.6345 9.70317 62.5948 9.82885 62.5155 9.94107C62.4362 10.0501 62.329 10.1361 62.1934 10.1988C62.0613 10.2615 61.9109 10.293 61.7424 10.293ZM64.2495 10.293C64.0183 10.293 63.8133 10.2367 63.6349 10.1244C63.4565 10.0087 63.3227 9.85009 63.2335 9.64865L63.4416 9.55448C63.5277 9.71981 63.6399 9.84867 63.7786 9.94107C63.921 10.0335 64.0778 10.0798 64.2495 10.0798C64.4346 10.0798 64.59 10.0335 64.7154 9.94107C64.8442 9.84867 64.9087 9.72618 64.9087 9.57431C64.9087 9.33323 64.7501 9.16967 64.4329 9.08364L64.0017 8.9647C63.579 8.84893 63.3673 8.61953 63.3673 8.27578C63.3673 8.13701 63.402 8.01487 63.4714 7.90902C63.5443 7.79999 63.6416 7.71573 63.7638 7.65626C63.8863 7.59678 64.0215 7.56705 64.1702 7.56705C64.3819 7.56705 64.5734 7.62156 64.7451 7.7306C64.9203 7.83645 65.0411 7.97664 65.1069 8.15188L64.8888 8.251C64.8163 8.10232 64.7171 7.98655 64.5915 7.90407C64.4661 7.82158 64.3256 7.78016 64.1702 7.78016C64.0052 7.78016 63.8679 7.82654 63.7588 7.91894C63.6498 8.01133 63.5953 8.12887 63.5953 8.27083C63.5953 8.4889 63.7425 8.63936 64.0364 8.72184L64.4725 8.84575C64.6874 8.90522 64.8527 8.99762 64.9681 9.12329C65.0839 9.24543 65.1416 9.3927 65.1416 9.5644C65.1416 9.70317 65.102 9.82885 65.0227 9.94107C64.9434 10.0501 64.8361 10.1361 64.7005 10.1988C64.5685 10.2615 64.418 10.293 64.2495 10.293ZM66.6982 7.08629V6.54111H66.9212V7.08629H66.6982ZM66.6982 10.2335V7.62652H66.9212V10.2335H66.6982ZM67.7921 10.2335V7.62652H68.0151V8.00815C68.0877 7.8761 68.195 7.77025 68.3373 7.69095C68.4792 7.60847 68.6396 7.56705 68.818 7.56705C68.9929 7.56705 69.1551 7.6067 69.3038 7.686C69.4524 7.76529 69.5714 7.87752 69.6606 8.02302C69.753 8.16498 69.7994 8.33207 69.7994 8.52359V10.2335H69.5763V8.54837C69.5763 8.38978 69.5416 8.25419 69.4723 8.14197C69.4029 8.0262 69.3087 7.93699 69.1898 7.87433C69.074 7.81167 68.9434 7.78016 68.7982 7.78016C68.6329 7.78016 68.4909 7.81981 68.372 7.89911C68.2562 7.97522 68.167 8.07931 68.1044 8.21135C68.0449 8.34021 68.0151 8.48571 68.0151 8.6475V10.2335H67.7921ZM1.89654 16.6355C1.695 16.6355 1.5397 16.581 1.43066 16.4719C1.32162 16.3629 1.26711 16.1993 1.26711 15.9813V14.197H0.771484V13.9988H1.01929C1.18451 13.9988 1.26711 13.9096 1.26711 13.7311V13.3842H1.49013V13.9988H2.05514V14.197H1.49013V15.9813C1.49013 16.0407 1.49838 16.1052 1.51492 16.1746C1.53474 16.2439 1.57439 16.3034 1.63386 16.353C1.69663 16.3994 1.7908 16.4224 1.91637 16.4224C1.94281 16.4224 1.97584 16.4206 2.01549 16.4174C2.05514 16.4142 2.08654 16.4107 2.10966 16.4075V16.6057C2.07663 16.6157 2.03698 16.6224 1.99071 16.6256C1.94777 16.6323 1.91637 16.6355 1.89654 16.6355ZM3.98002 16.6652C3.73221 16.6652 3.50919 16.6057 3.31094 16.4868C3.11269 16.3647 2.95572 16.2011 2.8401 15.9961C2.72444 15.788 2.6666 15.5568 2.6666 15.3023C2.6666 15.0445 2.72278 14.8134 2.83514 14.6084C2.94747 14.4002 3.09782 14.2367 3.28616 14.1177C3.47778 13.9988 3.69256 13.9393 3.93046 13.9393C4.15845 13.9393 4.36165 13.9938 4.54008 14.1029C4.7185 14.2119 4.8589 14.3606 4.96135 14.5489C5.06706 14.7341 5.11995 14.9436 5.11995 15.1784C5.11995 15.2311 5.115 15.2955 5.10508 15.3717H2.88966C2.90287 15.5798 2.95738 15.7664 3.05321 15.9317C3.14901 16.0935 3.27624 16.2223 3.43484 16.3183C3.59673 16.4107 3.77845 16.4571 3.98002 16.4571C4.16836 16.4571 4.3385 16.4125 4.49051 16.3232C4.64249 16.234 4.76473 16.1084 4.85727 15.9466L5.04561 16.0457C4.94978 16.2372 4.80605 16.3894 4.61442 16.5017C4.42608 16.6107 4.21459 16.6652 3.98002 16.6652ZM3.93046 14.1475C3.74871 14.1475 3.58187 14.1921 3.42989 14.2813C3.2812 14.3705 3.15892 14.4926 3.06313 14.648C2.97059 14.8035 2.91444 14.9783 2.89462 15.1734H4.89197C4.89197 14.9783 4.84899 14.8049 4.76311 14.653C4.67719 14.4976 4.56153 14.3755 4.41617 14.2862C4.27407 14.1938 4.11218 14.1475 3.93046 14.1475ZM7.07245 16.6652C6.83126 16.6652 6.61152 16.6057 6.41327 16.4868C6.21832 16.3678 6.06305 16.2061 5.94739 16.0011C5.83173 15.7929 5.77392 15.56 5.77392 15.3023C5.77392 15.0414 5.83173 14.8084 5.94739 14.6034C6.06305 14.3985 6.21832 14.2367 6.41327 14.1177C6.61152 13.9988 6.83126 13.9393 7.07245 13.9393C7.31364 13.9393 7.52676 13.9988 7.7118 14.1177C7.90014 14.2335 8.03891 14.3786 8.12812 14.5539L7.93979 14.658C7.84728 14.4926 7.72667 14.3673 7.57798 14.2813C7.4293 14.1921 7.26079 14.1475 7.07245 14.1475C6.87091 14.1475 6.68916 14.1953 6.52727 14.2912C6.36538 14.3871 6.23651 14.5224 6.14068 14.6976C6.04485 14.8693 5.99695 15.0711 5.99695 15.3023C5.99695 15.5334 6.04485 15.7366 6.14068 15.9119C6.23651 16.0836 6.36538 16.2174 6.52727 16.3133C6.68916 16.4093 6.87091 16.4571 7.07245 16.4571C7.26079 16.4571 7.4293 16.4125 7.57798 16.3232C7.72667 16.234 7.84728 16.1084 7.93979 15.9466L8.12812 16.0457C8.03891 16.2209 7.90014 16.3678 7.7118 16.4868C7.52676 16.6057 7.31364 16.6652 7.07245 16.6652ZM8.89346 16.6057V12.8539H9.11649V14.3804C9.18917 14.2484 9.29658 14.1425 9.43865 14.0632C9.58071 13.9807 9.74098 13.9393 9.9194 13.9393C10.0945 13.9393 10.2564 13.979 10.4051 14.0583C10.5538 14.1376 10.6727 14.2498 10.762 14.3953C10.8545 14.5372 10.9007 14.7043 10.9007 14.8959V16.6057H10.6777V14.9206C10.6777 14.762 10.643 14.6265 10.5736 14.5142C10.5042 14.3985 10.4101 14.3093 10.2911 14.2466C10.1755 14.1839 10.045 14.1524 9.89957 14.1524C9.73436 14.1524 9.59229 14.1921 9.47334 14.2714C9.35768 14.3475 9.26847 14.4516 9.2057 14.5836C9.14623 14.7125 9.11649 14.858 9.11649 15.0198V16.6057H8.89346ZM11.7201 16.6057V13.9988H11.9431V14.3804C12.0158 14.2484 12.1231 14.1425 12.2652 14.0632C12.4073 13.9807 12.5676 13.9393 12.746 13.9393C12.9211 13.9393 13.083 13.979 13.2317 14.0583C13.3804 14.1376 13.4993 14.2498 13.5885 14.3953C13.6811 14.5372 13.7273 14.7043 13.7273 14.8959V16.6057H13.5043V14.9206C13.5043 14.762 13.4696 14.6265 13.4002 14.5142C13.3308 14.3985 13.2367 14.3093 13.1177 14.2466C13.0021 14.1839 12.8715 14.1524 12.7262 14.1524C12.5609 14.1524 12.4189 14.1921 12.2999 14.2714C12.1843 14.3475 12.0951 14.4516 12.0323 14.5836C11.9728 14.7125 11.9431 14.858 11.9431 15.0198V16.6057H11.7201ZM15.751 16.6652C15.5032 16.6652 15.2802 16.6057 15.0819 16.4868C14.8837 16.3678 14.7267 16.2061 14.6111 16.0011C14.4954 15.7929 14.4376 15.56 14.4376 15.3023C14.4376 15.0414 14.4954 14.8084 14.6111 14.6034C14.7267 14.3985 14.8837 14.2367 15.0819 14.1177C15.2802 13.9988 15.5032 13.9393 15.751 13.9393C16.0021 13.9393 16.2251 13.9988 16.4201 14.1177C16.6183 14.2367 16.7753 14.3985 16.8909 14.6034C17.0066 14.8084 17.0644 15.0414 17.0644 15.3023C17.0644 15.56 17.0066 15.7929 16.8909 16.0011C16.7753 16.2061 16.6183 16.3678 16.4201 16.4868C16.2251 16.6057 16.0021 16.6652 15.751 16.6652ZM15.751 16.4521C15.9526 16.4521 16.1343 16.4025 16.2962 16.3034C16.4581 16.2011 16.5869 16.0623 16.6828 15.8871C16.7786 15.7119 16.8265 15.5172 16.8265 15.3023C16.8265 15.0842 16.7786 14.8891 16.6828 14.7174C16.5902 14.5422 16.463 14.4052 16.3012 14.3061C16.1392 14.2038 15.9558 14.1524 15.751 14.1524C15.5494 14.1524 15.3661 14.2038 15.2009 14.3061C15.0389 14.4052 14.9101 14.5422 14.8143 14.7174C14.7218 14.8891 14.6755 15.0842 14.6755 15.3023C14.6755 15.5172 14.7234 15.7119 14.8192 15.8871C14.915 16.0623 15.0439 16.2011 15.2058 16.3034C15.3677 16.4025 15.5494 16.4521 15.751 16.4521ZM17.8282 16.6057V12.8539H18.0512V16.6057H17.8282ZM20.1264 16.6652C19.8786 16.6652 19.6555 16.6057 19.4573 16.4868C19.259 16.3678 19.1021 16.2061 18.9865 16.0011C18.8708 15.7929 18.813 15.56 18.813 15.3023C18.813 15.0414 18.8708 14.8084 18.9865 14.6034C19.1021 14.3985 19.259 14.2367 19.4573 14.1177C19.6555 13.9988 19.8786 13.9393 20.1264 13.9393C20.3775 13.9393 20.6005 13.9988 20.7955 14.1177C20.9937 14.2367 21.1507 14.3985 21.2663 14.6034C21.382 14.8084 21.4398 15.0414 21.4398 15.3023C21.4398 15.56 21.382 15.7929 21.2663 16.0011C21.1507 16.2061 20.9937 16.3678 20.7955 16.4868C20.6005 16.6057 20.3775 16.6652 20.1264 16.6652ZM20.1264 16.4521C20.328 16.4521 20.5097 16.4025 20.6716 16.3034C20.8335 16.2011 20.9624 16.0623 21.0582 15.8871C21.154 15.7119 21.2019 15.5172 21.2019 15.3023C21.2019 15.0842 21.154 14.8891 21.0582 14.7174C20.9656 14.5422 20.8384 14.4052 20.6765 14.3061C20.5146 14.2038 20.3313 14.1524 20.1264 14.1524C19.9248 14.1524 19.7415 14.2038 19.5762 14.3061C19.4144 14.4052 19.2855 14.5422 19.1897 14.7174C19.0972 14.8891 19.0509 15.0842 19.0509 15.3023C19.0509 15.5172 19.0988 15.7119 19.1946 15.8871C19.2904 16.0623 19.4193 16.2011 19.5812 16.3034C19.7431 16.4025 19.9248 16.4521 20.1264 16.4521ZM23.408 17.6961C23.1568 17.6961 22.9338 17.6366 22.7389 17.5177C22.5439 17.3987 22.3985 17.2518 22.3027 17.0766L22.4911 16.9676C22.5869 17.1293 22.7141 17.2568 22.8727 17.3492C23.0313 17.4416 23.2097 17.488 23.408 17.488C23.5731 17.488 23.7301 17.4533 23.8788 17.3839C24.0308 17.3177 24.1547 17.2122 24.2505 17.0667C24.3496 16.9247 24.3992 16.7413 24.3992 16.5165V15.9515C24.2967 16.1399 24.1547 16.2903 23.973 16.4025C23.7912 16.5116 23.5847 16.5661 23.3534 16.5661C23.1122 16.5661 22.8958 16.5066 22.7042 16.3877C22.5158 16.2687 22.3672 16.1101 22.2581 15.9119C22.1491 15.7136 22.0946 15.4938 22.0946 15.2527C22.0946 15.0116 22.1491 14.7918 22.2581 14.5935C22.3672 14.3953 22.5158 14.2367 22.7042 14.1177C22.8958 13.9988 23.1122 13.9393 23.3534 13.9393C23.5847 13.9393 23.7912 13.9956 23.973 14.1078C24.1547 14.2169 24.2967 14.3655 24.3992 14.5539V13.9988H24.6222V16.5165C24.6222 16.7445 24.5693 16.9477 24.4636 17.1261C24.3612 17.3046 24.2191 17.4433 24.0374 17.5425C23.8556 17.6448 23.6459 17.6961 23.408 17.6961ZM23.3534 16.3431C23.555 16.3431 23.7317 16.2953 23.8838 16.1993C24.039 16.1002 24.1613 15.9682 24.2505 15.8028C24.3397 15.6375 24.3843 15.4541 24.3843 15.2527C24.3843 15.0477 24.3397 14.8643 24.2505 14.7026C24.1613 14.5372 24.039 14.407 23.8838 14.311C23.7317 14.2119 23.555 14.1623 23.3534 14.1623C23.1519 14.1623 22.9734 14.2119 22.8182 14.311C22.6662 14.407 22.5472 14.5372 22.4613 14.7026C22.3754 14.8679 22.3325 15.0513 22.3325 15.2527C22.3325 15.4541 22.3754 15.6375 22.4613 15.8028C22.5472 15.9682 22.6662 16.1002 22.8182 16.1993C22.9734 16.2953 23.1519 16.3431 23.3534 16.3431ZM25.4601 17.6961C25.4205 17.6961 25.3742 17.6929 25.3213 17.6862C25.2685 17.6795 25.2173 17.6681 25.1677 17.6515V17.4483C25.214 17.4614 25.2619 17.4699 25.3114 17.4731C25.3643 17.4798 25.4089 17.483 25.4452 17.483C25.6072 17.4798 25.736 17.4352 25.8318 17.3492C25.9309 17.2667 26.0152 17.1442 26.0846 16.9824L26.2481 16.5958L25.1974 13.9988H25.4502L26.377 16.2885L27.3137 13.9988H27.5715L26.3225 17.0072C26.2862 17.0964 26.2316 17.1938 26.1589 17.2996C26.0895 17.4087 25.997 17.5011 25.8814 17.5772C25.7691 17.6565 25.6286 17.6961 25.4601 17.6961ZM28.7277 13.8798V13.7212C28.7971 13.7046 28.8502 13.6649 28.8863 13.6023C28.9259 13.5361 28.9457 13.4554 28.9457 13.3594H28.8268V12.9134H29.0994V13.29C29.0994 13.4387 29.0647 13.5676 28.9953 13.6766C28.9259 13.7825 28.8367 13.8501 28.7277 13.8798ZM28.0834 13.8798V13.7212C28.1527 13.7046 28.2058 13.6649 28.242 13.6023C28.2816 13.5361 28.3014 13.4554 28.3014 13.3594H28.1825V12.9134H28.4551V13.29C28.4551 13.4387 28.4204 13.5676 28.351 13.6766C28.2816 13.7825 28.1924 13.8501 28.0834 13.8798Z" fill="black"/>
</svg>
